<?xml version="1.0" encoding="utf-8"?>
<!-- Generator: Adobe Illustrator 16.0.0, SVG Export Plug-In . SVG Version: 6.00 Build 0)  -->
<!DOCTYPE svg PUBLIC "-//W3C//DTD SVG 1.1//EN" "http://www.w3.org/Graphics/SVG/1.1/DTD/svg11.dtd">
<svg version="1.1" xmlns="http://www.w3.org/2000/svg" xmlns:xlink="http://www.w3.org/1999/xlink" x="0px" y="0px" width="1080px"
	 height="1920px" viewBox="0 0 1080 1920" enable-background="new 0 0 1080 1920" xml:space="preserve">
<g id="Layer_2">
</g>
<g id="Layer_1">
	<rect fill="#7BECEF" width="1080.002" height="1920"/>
	<g>
		<circle fill="#FFDF78" cx="520.459" cy="171.178" r="118.656"/>
		<path fill="#FFF18C" d="M604.629,171.178c0,46.486-37.684,84.167-84.17,84.167s-84.168-37.681-84.168-84.167
			c0-46.487,37.682-84.168,84.168-84.168S604.629,124.691,604.629,171.178z"/>
	</g>
	<path fill="#E6E7E8" d="M716.447,86.206c-1.407,0-2.764,0.214-4.039,0.613c-3.471-5.931-9.889-9.926-17.257-9.926
		c-0.358,0-0.711,0.037-1.065,0.055c-5.497-10.146-16.236-17.037-28.584-17.037c-11.912,0-22.319,6.415-27.975,15.969
		c-0.293-0.008-0.587-0.019-0.882-0.019c-7.516,0-14.162,3.658-18.308,9.276c-1.078-0.274-2.199-0.434-3.364-0.434
		c-7.564,0-13.696,6.134-13.696,13.698c0,7.563,6.132,13.695,13.696,13.695c1.062,0,2.091-0.133,3.082-0.361
		c4.124,5.832,10.905,9.652,18.59,9.652c3.664,0,7.123-0.872,10.188-2.408c5.283,3.717,11.717,5.906,18.668,5.906
		c8.838,0,16.848-3.535,22.705-9.26c2.166,0.801,4.499,1.264,6.944,1.264c5.468,0,10.416-2.199,14.024-5.751
		c2.104,1.339,4.593,2.128,7.271,2.128c7.474,0,13.531-6.057,13.531-13.528C729.979,92.263,723.921,86.206,716.447,86.206z"/>
	<path fill="#FFFFFF" d="M156.952,187.825c-2.032,0-3.989,0.311-5.831,0.886c-5.008-8.561-14.274-14.326-24.907-14.326
		c-0.521,0-1.026,0.048-1.539,0.076c-7.932-14.645-23.433-24.59-41.259-24.59c-17.19,0-32.213,9.256-40.375,23.051
		c-0.424-0.016-0.847-0.032-1.274-0.032c-18.146,0-32.856,14.712-32.856,32.858c0,18.148,14.71,32.857,32.856,32.857
		c5.288,0,10.281-1.255,14.706-3.476c7.625,5.365,16.913,8.525,26.943,8.525c12.759,0,24.319-5.104,32.773-13.367
		c3.127,1.158,6.494,1.822,10.024,1.822c7.891,0,15.033-3.172,20.244-8.301c3.032,1.938,6.628,3.077,10.494,3.077
		c10.786,0,19.53-8.745,19.53-19.529C176.482,196.569,167.738,187.825,156.952,187.825z"/>
	<path fill="#FFFFFF" d="M859.756,598.007c-2.032,0-3.989,0.311-5.831,0.887c-5.008-8.56-14.274-14.327-24.907-14.327
		c-0.521,0-1.026,0.05-1.539,0.077c-7.932-14.644-23.433-24.59-41.259-24.59c-17.19,0-32.213,9.256-40.375,23.05
		c-0.424-0.015-0.847-0.031-1.274-0.031c-18.146,0-32.856,14.711-32.856,32.857c0,18.149,14.71,32.858,32.856,32.858
		c5.288,0,10.281-1.255,14.706-3.476c7.625,5.365,16.913,8.525,26.943,8.525c12.759,0,24.319-5.104,32.773-13.367
		c3.127,1.159,6.494,1.822,10.024,1.822c7.891,0,15.033-3.172,20.244-8.301c3.032,1.938,6.628,3.076,10.494,3.076
		c10.786,0,19.53-8.744,19.53-19.529C879.286,606.751,870.542,598.007,859.756,598.007z"/>
	<path fill="#FFFFFF" d="M1056.686,196.934c-2.17,0-4.258,0.332-6.223,0.948c-5.344-9.137-15.232-15.29-26.579-15.29
		c-0.555,0-1.098,0.055-1.645,0.083c-8.465-15.627-25.006-26.243-44.03-26.243c-18.346,0-34.377,9.88-43.086,24.601
		c-0.453-0.019-0.904-0.034-1.359-0.034c-11.578,0-21.813,5.635-28.199,14.29c-1.66-0.422-3.389-0.67-5.18-0.67
		c-11.652,0-21.1,9.446-21.1,21.098c0,11.652,9.447,21.1,21.1,21.1c1.635,0,3.219-0.205,4.746-0.559
		c6.35,8.985,16.795,14.869,28.633,14.869c5.645,0,10.971-1.341,15.693-3.711c8.137,5.724,18.047,9.099,28.752,9.099
		c13.614,0,25.952-5.447,34.975-14.267c3.336,1.241,6.93,1.947,10.699,1.947c8.418,0,16.042-3.387,21.602-8.859
		c3.236,2.069,7.072,3.283,11.199,3.283c11.51,0,20.842-9.331,20.842-20.84C1077.527,206.263,1068.195,196.934,1056.686,196.934z"/>
	<path fill="#FFFFFF" d="M353.881,735.637c-2.17,0-4.258,0.332-6.223,0.947c-5.344-9.137-15.232-15.289-26.578-15.289
		c-0.555,0-1.098,0.055-1.645,0.082c-8.465-15.627-25.006-26.242-44.029-26.242c-18.346,0-34.377,9.878-43.086,24.6
		c-0.453-0.018-0.904-0.033-1.359-0.033c-11.578,0-21.813,5.635-28.199,14.289c-1.66-0.421-3.389-0.669-5.18-0.669
		c-11.652,0-21.1,9.445-21.1,21.097c0,11.653,9.447,21.1,21.1,21.1c1.635,0,3.219-0.205,4.746-0.559
		c6.35,8.984,16.795,14.869,28.633,14.869c5.645,0,10.971-1.341,15.693-3.711c8.137,5.725,18.047,9.1,28.752,9.1
		c13.613,0,25.951-5.447,34.975-14.268c3.336,1.24,6.93,1.947,10.699,1.947c8.418,0,16.041-3.387,21.602-8.859
		c3.236,2.067,7.072,3.283,11.199,3.283c11.51,0,20.842-9.332,20.842-20.841C374.723,744.967,365.391,735.637,353.881,735.637z"/>
	<path fill="#FFFFFF" d="M156.952,1840.88c-2.032,0-3.989,0.311-5.831,0.887c-5.008-8.561-14.274-14.327-24.907-14.327
		c-0.521,0-1.026,0.049-1.539,0.076c-7.932-14.645-23.433-24.59-41.259-24.59c-17.19,0-32.213,9.257-40.375,23.051
		c-0.424-0.015-0.847-0.031-1.274-0.031c-18.146,0-32.856,14.711-32.856,32.857c0,18.148,14.71,32.858,32.856,32.858
		c5.288,0,10.281-1.256,14.706-3.477c7.625,5.366,16.913,8.525,26.943,8.525c12.759,0,24.319-5.104,32.773-13.367
		c3.127,1.158,6.494,1.823,10.024,1.823c7.891,0,15.033-3.173,20.244-8.301c3.032,1.937,6.628,3.076,10.494,3.076
		c10.786,0,19.53-8.744,19.53-19.529C176.482,1849.624,167.738,1840.88,156.952,1840.88z"/>
	<path fill="#FFFFFF" d="M1056.686,1849.989c-2.17,0-4.258,0.332-6.223,0.947c-5.344-9.137-15.232-15.289-26.579-15.289
		c-0.555,0-1.098,0.054-1.645,0.082c-8.465-15.627-25.006-26.242-44.03-26.242c-18.346,0-34.377,9.879-43.086,24.6
		c-0.453-0.018-0.904-0.033-1.359-0.033c-11.578,0-21.813,5.634-28.199,14.289c-1.66-0.422-3.389-0.67-5.18-0.67
		c-11.652,0-21.1,9.445-21.1,21.098s9.447,21.1,21.1,21.1c1.635,0,3.219-0.204,4.746-0.558c6.35,8.984,16.795,14.869,28.633,14.869
		c5.645,0,10.971-1.342,15.693-3.711c8.137,5.725,18.047,9.1,28.752,9.1c13.614,0,25.952-5.447,34.975-14.268
		c3.336,1.24,6.93,1.948,10.699,1.948c8.418,0,16.042-3.387,21.602-8.86c3.236,2.068,7.072,3.283,11.199,3.283
		c11.51,0,20.842-9.332,20.842-20.839C1077.527,1859.319,1068.195,1849.989,1056.686,1849.989z"/>
	<path fill="#FFFFFF" d="M447.318,106.431c-0.909,0-1.793,0.097-2.649,0.272c-2.526-10.277-11.778-17.913-22.838-17.913
		c-8.434,0-15.81,4.45-19.968,11.114c-1.542-0.481-3.183-0.737-4.883-0.737c-9.088,0-16.453,7.365-16.453,16.452
		c0,9.084,7.365,16.449,16.453,16.449c3.231,0,6.239-0.944,8.783-2.556c4.208,3.941,9.847,6.37,16.067,6.37
		c6.545,0,12.462-2.674,16.729-6.984c2.306,2.123,5.375,3.43,8.758,3.43c7.15,0,12.947-5.799,12.947-12.95
		S454.469,106.431,447.318,106.431z"/>
	<path fill="#FFFFFF" d="M110.715,1357.166c-0.908,0-1.793,0.096-2.648,0.272c-2.527-10.278-11.779-17.913-22.838-17.913
		c-8.434,0-15.811,4.45-19.969,11.113c-1.541-0.48-3.182-0.735-4.883-0.735c-9.088,0-16.453,7.365-16.453,16.451
		c0,9.084,7.365,16.449,16.453,16.449c3.232,0,6.24-0.944,8.783-2.555c4.209,3.94,9.848,6.369,16.068,6.369
		c6.545,0,12.461-2.674,16.729-6.984c2.307,2.123,5.375,3.43,8.758,3.43c7.15,0,12.947-5.799,12.947-12.949
		C123.662,1362.963,117.865,1357.166,110.715,1357.166z"/>
	<path fill="#FFFFFF" d="M1023.128,1581.795c-0.908,0-1.793,0.097-2.648,0.271c-2.527-10.277-11.779-17.912-22.838-17.912
		c-8.434,0-15.81,4.449-19.968,11.113c-1.542-0.48-3.183-0.736-4.883-0.736c-9.088,0-16.453,7.365-16.453,16.451
		c0,9.084,7.365,16.449,16.453,16.449c3.231,0,6.239-0.943,8.783-2.555c4.208,3.939,9.847,6.369,16.068,6.369
		c6.545,0,12.461-2.673,16.729-6.984c2.307,2.123,5.375,3.43,8.758,3.43c7.15,0,12.948-5.799,12.948-12.949
		S1030.279,1581.795,1023.128,1581.795z"/>
	<path fill="#FFFFFF" d="M587.251,1211.585c-0.909,0-1.793,0.095-2.649,0.271c-2.526-10.277-11.778-17.912-22.838-17.912
		c-8.434,0-15.81,4.449-19.968,11.113c-1.542-0.48-3.183-0.736-4.883-0.736c-9.088,0-16.453,7.365-16.453,16.451
		c0,9.084,7.365,16.449,16.453,16.449c3.231,0,6.239-0.942,8.783-2.554c4.208,3.939,9.847,6.369,16.067,6.369
		c6.545,0,12.462-2.673,16.729-6.984c2.306,2.123,5.375,3.429,8.758,3.429c7.15,0,12.947-5.797,12.947-12.948
		S594.401,1211.585,587.251,1211.585z"/>
</g>
</svg>
