<?xml version="1.0" encoding="utf-8"?>
<!-- Generator: Adobe Illustrator 16.0.0, SVG Export Plug-In . SVG Version: 6.00 Build 0)  -->
<!DOCTYPE svg PUBLIC "-//W3C//DTD SVG 1.1//EN" "http://www.w3.org/Graphics/SVG/1.1/DTD/svg11.dtd">
<svg version="1.1" xmlns="http://www.w3.org/2000/svg" xmlns:xlink="http://www.w3.org/1999/xlink" x="0px" y="0px"
	 width="173.32px" height="204px" viewBox="0 0 173.32 204" enable-background="new 0 0 173.32 204" xml:space="preserve">
<g id="Layer_2">
</g>
<g id="Layer_1">
	<g>
		
			<path fill-rule="evenodd" clip-rule="evenodd" fill="none" stroke="#E6E7E8" stroke-width="6" stroke-linecap="round" stroke-linejoin="round" stroke-miterlimit="10" d="
			M46.333,3c27.411,0,54.824,0,82.236,0c2.968,1.119,3.636,3.35,3.629,6.355c-0.079,33.986-0.051,67.972-0.051,101.959
			c0,2.133,0.003,2.134,2.179,2.136c8.483,0,16.967-0.007,25.45,0.01c2.105,0.003,4.216,0.029,6.316,0.162
			c1.726,0.109,3.341,0.571,4.228,2.295c0,0.633,0,1.264,0,1.897c-1.173,1.662-2.153,3.509-3.548,4.958
			c-14.12,14.66-28.303,29.26-42.477,43.867c-8.611,8.875-17.206,17.766-25.878,26.58c-2.737,2.781-5.096,6.022-8.753,7.779
			c-0.844,0-1.688,0-2.53,0c-1.445-0.923-3.082-1.648-4.304-2.809c-6.22-5.902-12.336-11.916-18.481-17.898
			c-10.033-9.768-20.054-19.548-30.093-29.309c-7.354-7.148-14.777-14.227-22.073-21.436C8.882,126.287,5.091,123.418,3,119.08
			c0-0.632,0-1.265,0-1.898c1.573-1.564,3.602-1.523,5.587-1.527c10.485-0.02,20.97-0.01,31.454-0.01c0.612,0,1.224,0,1.912,0
			c0.04-0.692,0.092-1.154,0.092-1.619c-0.01-35.458-0.021-70.914-0.049-106.374c-0.001-1.857,0.854-3.094,2.461-3.879
			C45.063,3.479,45.706,3.256,46.333,3z"/>
	</g>
</g>
</svg>
