<?xml version="1.0" encoding="utf-8"?>
<!-- Generator: Adobe Illustrator 16.0.0, SVG Export Plug-In . SVG Version: 6.00 Build 0)  -->
<!DOCTYPE svg PUBLIC "-//W3C//DTD SVG 1.1//EN" "http://www.w3.org/Graphics/SVG/1.1/DTD/svg11.dtd">
<svg version="1.1" xmlns="http://www.w3.org/2000/svg" xmlns:xlink="http://www.w3.org/1999/xlink" x="0px" y="0px"
	 width="204.947px" height="111.828px" viewBox="0 0 204.947 111.828" enable-background="new 0 0 204.947 111.828"
	 xml:space="preserve">
<g id="Layer_2">
</g>
<g id="Layer_1">
	<g>
		<g>
			<g>
				<g>
					<path fill-rule="evenodd" clip-rule="evenodd" fill="#9B9AE6" d="M114.833,6.569c0-1.521-0.002-2.89,0.002-4.257
						c0.002-0.307-0.008-0.622,0.048-0.92c0.154-0.811,0.853-1.373,1.671-1.383c0.805-0.008,1.496,0.557,1.651,1.389
						c0.062,0.326,0.066,0.667,0.068,1c0.009,1.34,0.002,2.681,0.002,3.999c0.654,0.207,15.441,0.261,16.551,0.07
						c0.016-0.279,0.046-0.58,0.049-0.881c0.008-1.287-0.028-2.576,0.016-3.863c0.046-1.326,1.294-2.1,2.425-1.533
						c0.654,0.33,0.976,0.895,0.974,1.639c-0.003,1.228,0,2.46,0,3.695c0.002,0.301,0,0.602,0,0.883
						c0.665,0.193,15.387,0.25,16.577,0.072c0.013-0.275,0.035-0.572,0.035-0.873c0.007-1.314-0.015-2.629,0.016-3.945
						c0.018-0.831,0.486-1.374,1.257-1.581c0.694-0.189,1.459,0.063,1.823,0.698c0.184,0.322,0.278,0.734,0.289,1.111
						c0.036,1.229,0.015,2.463,0.015,3.693c0,0.275,0,0.553,0,0.809c0.625,0.211,15.202,0.29,16.562,0.098
						c0.015-0.277,0.044-0.572,0.046-0.868c0.007-1.259,0-2.519,0.003-3.779c0.004-0.728,0.276-1.311,0.955-1.643
						c1.145-0.566,2.394,0.186,2.438,1.505c0.045,1.288,0.012,2.575,0.014,3.862c0,0.3,0,0.6,0,1.004c0.412,0,0.711,0.002,1.013,0
						c3.106,0,6.213,0,9.319,0.002c0.279,0,0.563-0.01,0.839,0.029c0.835,0.114,1.369,0.637,1.499,1.467
						c0.038,0.246,0.027,0.504,0.027,0.756c0.002,6.744-0.007,13.49,0.014,20.237c0.002,0.717,0.093,1.453,0.267,2.15
						c3.204,12.982,6.427,25.962,9.645,38.941c1.308,5.268,2.591,10.541,3.927,15.802c0.226,0.891-0.033,1.54-0.651,2.096
						c-0.189,0.17-0.485,0.285-0.738,0.301c-1.03,0.063-2.063,0.092-3.094,0.103c-0.5,0.007-1.003-0.085-1.502-0.084
						c-0.613,0.004-1.225,0.083-1.836,0.086c-1.652,0.012-3.303,0.004-4.953,0.004c-0.308,0-0.612,0-1.024,0
						c-0.02,0.384-0.047,0.707-0.047,1.029c-0.006,3.471-0.002,6.943-0.006,10.412c0,0.279,0.014,0.564-0.033,0.838
						c-0.14,0.805-0.724,1.342-1.553,1.402c-0.585,0.041-1.175,0.025-1.762,0.027c-21.805,0.043-43.612,0.084-65.416,0.127
						c-0.307,0-0.63-0.041-0.92,0.033c-0.839,0.221-1.456-0.097-2.028-0.677c-2.386-2.402-4.793-4.783-7.178-7.191
						c-1.633-1.648-3.223-3.336-4.862-4.98c-1.421-1.422-2.875-2.811-4.328-4.198c-0.544-0.516-0.802-1.09-0.75-1.863
						c0.061-0.89-0.008-1.788-0.008-2.684c-0.001-17.494-0.001-34.991-0.001-52.484c0-2.346,0-4.693,0-7.041
						c0-4.168,0-8.336,0.001-12.504c0.001-1.541,0.586-2.133,2.132-2.135c3.136-0.006,6.271-0.002,9.405-0.002
						C114.043,6.569,114.373,6.569,114.833,6.569z M122.497,98.891c21.748-0.048,43.367-0.1,65.08-0.15c0-0.578,0-1.072,0-1.568
						c0-11.475-0.002-22.949,0.001-34.424c0-0.863,0.033-1.727,0.051-2.59c0.019-0.944,0.059-1.893,0.05-2.84
						c-0.019-1.838-0.094-3.675-0.098-5.514c-0.013-6.186-0.003-12.371-0.006-18.555c0-0.381-0.04-0.762-0.058-1.115
						c-0.169-0.053-0.247-0.098-0.324-0.098c-26.98-0.007-53.96-0.013-80.938-0.015c-0.166,0-0.331,0.035-0.497,0.059
						c-0.024,0.004-0.049,0.025-0.07,0.041c-0.019,0.02-0.033,0.045-0.054,0.072c0,16.211,0,32.43,0,48.73c0.392,0,0.721,0,1.051,0
						c4.338,0,8.676,0,13.014,0c0.392,0,0.785-0.014,1.175,0.012c0.877,0.053,1.512,0.66,1.61,1.535
						c0.027,0.25,0.014,0.502,0.014,0.756c0,4.869,0,9.738,0,14.607C122.497,98.141,122.497,98.446,122.497,98.891z M105.592,28.491
						c27.382,0,54.629,0,81.864,0c0.194-0.906,0.158-17.763-0.035-18.414c-2.995,0-6,0-9.053,0c0,1.281,0,2.5,0,3.687
						c3.317,1.736,4.663,4.148,3.979,7.064c-0.63,2.686-2.95,4.557-5.692,4.592c-2.727,0.035-5.097-1.744-5.803-4.34
						c-0.36-1.318-0.282-2.607,0.239-3.863c0.725-1.729,2.056-2.818,3.764-3.441c0-1.254,0-2.448,0-3.704c-5.514,0-10.982,0-16.5,0
						c0,1.27,0,2.488,0,3.695c3.684,1.58,4.599,4.465,3.761,7.625c-0.565,2.128-2.732,4.051-5.577,4.033
						c-2.702-0.018-5.146-1.795-5.715-4.44c-0.55-2.564-0.013-5.572,4.034-7.27c0-1.189,0-2.385,0-3.564
						c-0.882-0.229-15.873-0.189-16.525,0.039c0,1.184,0,2.377,0,3.545c2.268,1.332,2.83,1.818,3.404,2.93
						c0.72,1.398,1.012,2.883,0.498,4.383c-0.892,2.596-2.863,4.411-5.783,4.371c-2.64-0.037-4.957-1.793-5.651-4.324
						c-0.352-1.285-0.291-2.557,0.204-3.789c0.712-1.763,2.048-2.893,3.771-3.508c0.175-1.016,0.135-3.125-0.053-3.709
						c-1.384-0.209-15.821-0.117-16.399,0.109c0,1.191,0,2.389,0,3.559c3.34,1.816,4.632,4.143,3.965,7.078
						c-0.583,2.564-2.842,4.458-5.451,4.57c-2.776,0.12-5.13-1.484-5.981-4.09c-0.414-1.266-0.394-2.532,0.053-3.789
						c0.671-1.898,2.064-3.068,3.927-3.774c0-0.644,0-1.228,0-1.816c0-0.605,0-1.21,0-1.787c-1.035-0.229-8.586-0.182-9.243,0.046
						C105.592,16.264,105.592,22.35,105.592,28.491z M191.198,45.02c-0.045,0.006-0.091,0.01-0.134,0.015
						c-0.015,0.125-0.042,0.252-0.044,0.377c-0.047,2.29-0.125,4.579-0.122,6.87c0.006,2.986,0.109,5.971,0.118,8.959
						c0.017,7.607,0.002,15.212,0.004,22.82c0,0.295,0.033,0.592,0.056,0.951c3.37-0.037,6.643,0.049,10.009-0.019
						C197.767,71.573,194.481,58.298,191.198,45.02z M119.052,84.385c-4.06,0-8.023,0-12.149,0c0.915,0.922,1.711,1.736,2.52,2.539
						c3.147,3.127,6.299,6.254,9.451,9.377c0.014,0.016,0.054,0.016,0.076,0.008c0.025-0.006,0.048-0.028,0.103-0.063
						C119.052,92.336,119.052,88.405,119.052,84.385z M156.527,22.011c1.461-0.061,2.695-1.323,2.61-2.667
						c-0.079-1.273-1.402-2.424-2.705-2.357c-1.287,0.064-2.555,1.294-2.491,2.496C154.003,20.657,155.289,22.344,156.527,22.011z
						 M118.997,19.622c0.055-1.407-0.986-2.562-2.376-2.633c-1.363-0.07-2.57,1.022-2.636,2.389
						c-0.069,1.369,1.025,2.566,2.395,2.625C117.78,22.061,118.944,21.002,118.997,19.622z M176.523,22.002
						c1.378,0.027,2.531-1.08,2.564-2.461c0.031-1.35-1.113-2.533-2.478-2.559c-1.37-0.025-2.522,1.095-2.545,2.47
						C174.04,20.85,175.127,21.977,176.523,22.002z M139.021,19.546c0.021-1.395-1.063-2.524-2.452-2.559
						c-1.361-0.037-2.549,1.108-2.557,2.465c-0.005,1.409,1.076,2.529,2.461,2.551C137.879,22.022,139.001,20.942,139.021,19.546z"
						/>
					<path fill-rule="evenodd" clip-rule="evenodd" fill="#9B9AE6" d="M141.309,111.827c-10.489,0-20.981,0-31.472-0.002
						c-0.338,0-0.676,0.018-1.007-0.029c-0.924-0.129-1.51-0.824-1.492-1.73c0.015-0.863,0.6-1.514,1.495-1.637
						c0.305-0.041,0.615-0.041,0.921-0.041c21.068,0,42.135,0,63.203,0.002c0.332,0,0.672,0.008,1,0.064
						c0.801,0.143,1.343,0.776,1.382,1.571c0.036,0.789-0.44,1.492-1.225,1.695c-0.372,0.1-0.774,0.104-1.162,0.104
						C162.403,111.828,151.857,111.827,141.309,111.827z"/>
					<path fill-rule="evenodd" clip-rule="evenodd" fill="#9B9AE6" d="M184.036,108.442c0.991-0.008,1.711,0.688,1.711,1.654
						c-0.002,0.951-0.763,1.736-1.68,1.729c-0.922-0.004-1.731-0.793-1.736-1.693C182.326,109.19,183.071,108.452,184.036,108.442z"
						/>
					<g>
						<path fill="#9B9AE6" d="M125.69,55.101c-0.006,0.03-0.032-0.351-0.001-0.853c0.039-0.521,0.138-1.267,0.494-2.134
							c0.334-0.871,0.949-1.895,2.012-2.76c0.527-0.429,1.168-0.79,1.863-1.046c0.699-0.248,1.436-0.365,2.149-0.383l0.136-0.006
							l0.033-0.001l0.192,0.007l0.046,0.004l0.182,0.015l0.364,0.029l0.194,0.023l0.306,0.057l0.603,0.132
							c0.752,0.208,1.349,0.498,1.926,0.87c0.563,0.367,1.016,0.816,1.397,1.25c0.378,0.437,0.655,0.893,0.872,1.313
							c0.438,0.845,0.604,1.587,0.686,2.11c0.045,0.259,0.049,0.475,0.061,0.623c0.008,0.169,0.012,0.26,0.012,0.26
							c0.017,0.392-0.288,0.723-0.68,0.74c-0.015,0-0.029,0-0.043,0l-1.846-0.038c0.002,0.003-0.027,0-0.094-0.074
							c-0.068-0.07-0.167-0.172-0.293-0.303c-0.252-0.261-0.62-0.624-1.043-0.965c-0.209-0.174-0.453-0.316-0.674-0.467
							c-0.114-0.06-0.232-0.122-0.354-0.185c-0.127-0.035-0.239-0.094-0.355-0.138c-0.227-0.067-0.505-0.145-0.688-0.161
							c-0.036,0-0.071-0.004-0.105-0.013l-0.051-0.016c-0.03-0.005-0.113-0.003-0.168-0.006l-0.363-0.019l-0.184-0.009l-0.045-0.003
							h-0.012l-0.006-0.001c-0.152-0.004,0.201,0.008,0.164,0.006l-0.012,0.002l-0.048,0.008c-0.123,0.025-0.257,0.007-0.375,0.025
							c-0.108,0.036-0.228,0.036-0.337,0.06c-0.211,0.062-0.426,0.116-0.64,0.223c-0.215,0.102-0.444,0.227-0.661,0.396
							c-0.113,0.075-0.225,0.158-0.327,0.255c-0.114,0.083-0.222,0.176-0.319,0.275c-0.199,0.191-0.39,0.39-0.558,0.571
							c-0.169,0.191-0.315,0.358-0.437,0.495c-0.246,0.306-0.375,0.402-0.382,0.432c-0.166,0.717-0.881,1.164-1.598,0.997
							C125.971,56.532,125.523,55.816,125.69,55.101z"/>
					</g>
					<g>
						<path fill="#9B9AE6" d="M155.303,55.1c-0.006,0.03-0.033-0.351,0-0.853c0.039-0.521,0.137-1.267,0.493-2.134
							c0.334-0.87,0.949-1.895,2.011-2.76c0.528-0.429,1.168-0.79,1.865-1.046c0.697-0.248,1.435-0.365,2.148-0.383l0.136-0.006
							l0.034-0.001l0.191,0.007l0.046,0.003l0.181,0.015l0.365,0.029l0.196,0.023l0.305,0.057l0.603,0.132
							c0.751,0.208,1.348,0.499,1.925,0.871c0.563,0.366,1.016,0.815,1.397,1.249c0.378,0.437,0.655,0.893,0.873,1.313
							c0.436,0.845,0.604,1.587,0.686,2.109c0.045,0.26,0.049,0.476,0.061,0.624c0.008,0.169,0.012,0.26,0.012,0.26
							c0.017,0.392-0.289,0.723-0.681,0.74c-0.015,0.001-0.028,0.001-0.043,0.001l-1.845-0.038c0.002,0.002-0.027-0.001-0.094-0.075
							c-0.067-0.07-0.166-0.172-0.293-0.302c-0.252-0.262-0.62-0.625-1.043-0.966c-0.211-0.173-0.453-0.316-0.674-0.467
							c-0.115-0.06-0.232-0.122-0.354-0.185c-0.128-0.035-0.24-0.095-0.357-0.138c-0.226-0.067-0.504-0.146-0.687-0.162
							c-0.038,0-0.073-0.004-0.106-0.013l-0.051-0.016c-0.028-0.005-0.112-0.003-0.166-0.006l-0.365-0.019l-0.182-0.009
							l-0.046-0.003h-0.012h-0.005c0.073,0.002-0.173-0.006,0.162,0.005l-0.012,0.002l-0.047,0.008
							c-0.123,0.025-0.256,0.007-0.375,0.025c-0.108,0.036-0.228,0.036-0.337,0.06c-0.21,0.062-0.425,0.116-0.64,0.224
							c-0.215,0.102-0.444,0.227-0.66,0.396c-0.114,0.075-0.226,0.158-0.328,0.255c-0.113,0.083-0.221,0.176-0.32,0.275
							c-0.199,0.191-0.389,0.39-0.557,0.571c-0.169,0.191-0.315,0.358-0.437,0.495c-0.246,0.305-0.376,0.403-0.382,0.432
							c-0.166,0.716-0.881,1.163-1.598,0.996C155.583,56.532,155.137,55.816,155.303,55.1z"/>
					</g>
					
						<path fill="none" stroke="#9B9AE6" stroke-width="4.208" stroke-linecap="round" stroke-linejoin="round" stroke-miterlimit="10" d="
						M162.725,62.657c0,7.34-7.112,13.288-15.888,13.288c-8.773,0-15.889-5.948-15.889-13.288"/>
				</g>
			</g>
			
				<polygon fill="none" stroke="#9B99E8" stroke-width="3.3664" stroke-linecap="round" stroke-linejoin="round" stroke-miterlimit="10" points="
				81.357,43.508 54.113,43.508 54.113,16.078 28.926,16.078 28.926,43.508 1.684,43.508 1.684,68.323 28.926,68.323 28.926,95.75 
				54.113,95.75 54.113,68.323 81.357,68.323 			"/>
		</g>
	</g>
</g>
</svg>
