<?xml version="1.0" encoding="UTF-8" standalone="no"?>
<!-- Generator: Adobe Illustrator 16.0.0, SVG Export Plug-In . SVG Version: 6.00 Build 0)  -->

<svg
   xmlns:dc="http://purl.org/dc/elements/1.1/"
   xmlns:cc="http://creativecommons.org/ns#"
   xmlns:rdf="http://www.w3.org/1999/02/22-rdf-syntax-ns#"
   xmlns:svg="http://www.w3.org/2000/svg"
   xmlns="http://www.w3.org/2000/svg"
   xmlns:xlink="http://www.w3.org/1999/xlink"
   xmlns:sodipodi="http://sodipodi.sourceforge.net/DTD/sodipodi-0.dtd"
   xmlns:inkscape="http://www.inkscape.org/namespaces/inkscape"
   version="1.1"
   x="0px"
   y="0px"
   width="1080.0031"
   height="318.20514"
   viewBox="0 0 1080.0031 318.20513"
   enable-background="new 0 0 1080 320.07"
   xml:space="preserve"
   id="svg40"
   sodipodi:docname="Fondo sol-69.svg"
   inkscape:version="0.92.1 r15371"><metadata
     id="metadata46"><rdf:RDF><cc:Work
         rdf:about=""><dc:format>image/svg+xml</dc:format><dc:type
           rdf:resource="http://purl.org/dc/dcmitype/StillImage" /></cc:Work></rdf:RDF></metadata><defs
     id="defs44" /><sodipodi:namedview
     pagecolor="#ffffff"
     bordercolor="#666666"
     borderopacity="1"
     objecttolerance="10"
     gridtolerance="10"
     guidetolerance="10"
     inkscape:pageopacity="0"
     inkscape:pageshadow="2"
     inkscape:window-width="1920"
     inkscape:window-height="1032"
     id="namedview42"
     showgrid="false"
     inkscape:zoom="0.72962962"
     inkscape:cx="466.39164"
     inkscape:cy="-78.14884"
     inkscape:window-x="0"
     inkscape:window-y="0"
     inkscape:window-maximized="1"
     inkscape:current-layer="svg40" /><g
     id="Layer_2"
     transform="translate(-1.8609999,0.31299999)" /><g
     id="Layer_1"
     transform="translate(-1.8609999,0.31299999)"><rect
       width="0"
       height="94.416245"
       id="rect5"
       x="0"
       y="0"
       style="fill:#ffffff" /><rect
       x="1.8609999"
       y="-0.31299999"
       width="1080.002"
       height="255.313"
       id="rect7"
       style="fill:#7becef" /><path
       d="m 841.309,172.599 c -1.406,0 -2.764,0.215 -4.039,0.614 -3.471,-5.933 -9.889,-9.926 -17.256,-9.926 -0.359,0 -0.711,0.037 -1.066,0.054 -5.496,-10.146 -16.236,-17.036 -28.584,-17.036 -11.912,0 -22.318,6.414 -27.975,15.968 -0.293,-0.007 -0.586,-0.019 -0.881,-0.019 -7.517,0 -14.162,3.659 -18.309,9.275 -1.078,-0.273 -2.199,-0.434 -3.363,-0.434 -7.564,0 -13.697,6.136 -13.697,13.699 0,7.563 6.133,13.696 13.697,13.696 1.061,0 2.089,-0.133 3.082,-0.361 4.122,5.832 10.904,9.652 18.59,9.652 3.664,0 7.123,-0.871 10.188,-2.408 5.283,3.716 11.717,5.906 18.668,5.906 8.838,0 16.848,-3.535 22.705,-9.26 2.166,0.801 4.5,1.264 6.945,1.264 5.467,0 10.416,-2.199 14.023,-5.752 2.104,1.34 4.594,2.128 7.271,2.128 7.475,0 13.531,-6.057 13.531,-13.529 10e-4,-7.472 -6.056,-13.531 -13.53,-13.531 z"
       id="path9"
       inkscape:connector-curvature="0"
       style="fill:#e6e7e8" /><path
       d="m 730.395,42.629 c -1.678,0 -3.289,0.254 -4.809,0.729 -4.127,-7.058 -11.768,-11.811 -20.531,-11.811 -0.431,0 -0.85,0.042 -1.271,0.063 -6.539,-12.072 -19.318,-20.272 -34.014,-20.272 -14.172,0 -26.557,7.632 -33.285,19.005 -0.352,-0.015 -0.699,-0.026 -1.051,-0.026 -8.945,0 -16.852,4.352 -21.785,11.039 -1.281,-0.326 -2.617,-0.518 -4.002,-0.518 -9.002,0 -16.299,7.296 -16.299,16.298 0,9.002 7.297,16.301 16.299,16.301 1.263,0 2.488,-0.159 3.668,-0.432 4.904,6.941 12.974,11.487 22.119,11.487 4.361,0 8.474,-1.036 12.123,-2.866 6.286,4.421 13.943,7.029 22.213,7.029 10.518,0 20.049,-4.209 27.019,-11.023 2.577,0.958 5.355,1.505 8.267,1.505 6.502,0 12.393,-2.617 16.688,-6.845 2.5,1.599 5.463,2.536 8.652,2.536 8.891,0 16.1,-7.209 16.1,-16.099 -0.002,-8.893 -7.211,-16.1 -16.101,-16.1 z"
       id="path11"
       inkscape:connector-curvature="0"
       style="fill:#ffffff" /><g
       id="g21"><g
         id="g17"><circle
           cx="950.32501"
           cy="108.706"
           r="78.158997"
           id="circle13"
           style="fill:#ffdf78" /><path
           d="m 1005.768,108.706 c 0,30.623 -24.822,55.442 -55.444,55.442 -30.618,0 -55.44,-24.819 -55.44,-55.442 0,-30.621 24.822,-55.44 55.44,-55.44 30.621,0 55.444,24.819 55.444,55.44 z"
           id="path15"
           inkscape:connector-curvature="0"
           style="fill:#fff18c" /></g><path
         d="m 909.232,74.451 c -0.741,0 -1.461,0.076 -2.158,0.221 -2.057,-8.372 -9.592,-14.588 -18.599,-14.588 -6.869,0 -12.874,3.622 -16.261,9.05 -1.256,-0.391 -2.592,-0.599 -3.977,-0.599 -7.4,0 -13.398,5.998 -13.398,13.396 0,7.398 5.998,13.397 13.398,13.397 2.631,0 5.08,-0.769 7.152,-2.081 3.428,3.207 8.019,5.187 13.085,5.187 5.331,0 10.148,-2.178 13.624,-5.689 1.879,1.73 4.376,2.793 7.133,2.793 5.822,0 10.542,-4.723 10.542,-10.545 10e-4,-5.821 -4.718,-10.542 -10.541,-10.542 z"
         id="path19"
         inkscape:connector-curvature="0"
         style="fill:#ffffff" /></g><path
       d="m 1071.322,191.531 c -0.74,0 -1.461,0.078 -2.158,0.221 -2.057,-8.37 -9.593,-14.586 -18.598,-14.586 -6.869,0 -12.876,3.623 -16.262,9.05 -1.256,-0.392 -2.592,-0.599 -3.977,-0.599 -7.4,0 -13.398,5.999 -13.398,13.397 0,7.398 5.998,13.396 13.398,13.396 2.631,0 5.079,-0.77 7.152,-2.081 3.427,3.207 8.02,5.186 13.086,5.186 5.33,0 10.148,-2.178 13.623,-5.687 1.879,1.728 4.377,2.792 7.133,2.792 5.822,0 10.543,-4.722 10.543,-10.545 10e-4,-5.823 -4.719,-10.544 -10.542,-10.544 z"
       id="path23"
       inkscape:connector-curvature="0"
       style="fill:#ffffff" /><g
       id="g37"><defs
         id="defs26"><rect
           id="SVGID_25_"
           x="1.8609999"
           y="10"
           width="1080.002"
           height="338.87601" /></defs><clipPath
         id="SVGID_2_"><use
           xlink:href="#SVGID_25_"
           overflow="visible"
           id="use28"
           style="overflow:visible"
           x="0"
           y="0"
           width="100%"
           height="100%" /></clipPath><g
         clip-path="url(#SVGID_2_)"
         id="g35"><path
           d="m -104.432,117.05 c -0.01,-0.098 -0.021,-0.194 -0.023,-0.293 19.672,-6.189 23.289,-37.602 33.277,-54.867 9.547,-16.498 26.799,-26.988 41.371,-34.529 C 3.094,10.336 40.418,6.89 75.215,1.703 148.361,-9.2 221.9,-1.274 294.551,8.298 c 68.648,9.048 203.283,82.855 272.514,79.996 68.156,-2.812 135.018,-11.314 202.728,-17.42 56.366,-5.083 108.903,-23.491 164.663,-35.936 100.006,-22.319 193.929,96.905 199.792,219.721 1.625,34.03 -30.863,34.938 -52.749,41.874 -91.742,29.084 -187.746,17.92 -280.732,14.467 -88.369,-3.281 -176.816,-8.711 -265.301,-7.013 -64.08,1.229 -128.164,13.052 -192.203,11.087 -83.432,-2.56 -166.709,-8.999 -249.977,-13.192 -25.912,-1.305 -85.709,9.844 -102.832,-22.646 -4.391,-8.333 -1.707,-17.858 -4.424,-26.612 -3.588,-11.561 -13.318,-18.482 -17.852,-29.835 -5.944,-14.875 -70.864,-89.348 -72.61,-105.739 z"
           id="path31"
           inkscape:connector-curvature="0"
           style="opacity:0.2;fill:#ffffff" /><path
           d="m -489.182,245.46 c -27.053,-19.372 -41.209,-65.748 -7.4,-75.369 35.279,-10.037 106.32,-9.079 143.178,-9.383 66.992,-0.552 133.973,2.368 200.967,1.133 111.264,-2.046 174.281,-52.13 343.57,-93.818 68.807,-16.944 208.292,-40.066 282.152,-35 111.385,7.641 279.115,42.699 349.35,60.411 55.885,14.093 112.266,30.804 168.006,45.054 69.125,17.674 113.306,12.209 137.005,72.771 12.133,31.012 4.52,64.5 -41.913,75.098 -22.228,5.074 -47.606,5.306 -70.568,5.936 -55.907,1.533 -111.861,1.573 -167.803,3.155 -55.967,1.583 -113.252,-0.144 -168.865,4.227 -54.125,4.256 -107.89,8.073 -162.254,10.151 -109.662,4.188 -217.268,9.877 -327.15,7.509 -56.604,-1.22 -112.18,-0.371 -168.66,-4.81 -31.807,-2.499 -63.377,-4.024 -95.346,-3.981 -82.967,0.106 -170.639,1.103 -252.518,-9.548 -39.475,-5.132 -83.434,-7.807 -118.391,-22.526 0,0 -43.342,-31 -43.36,-31.01 z"
           id="path33"
           inkscape:connector-curvature="0"
           style="fill:#ffffff" /></g></g></g></svg>