<?xml version="1.0" encoding="utf-8"?>
<!-- Generator: Adobe Illustrator 16.0.0, SVG Export Plug-In . SVG Version: 6.00 Build 0)  -->
<!DOCTYPE svg PUBLIC "-//W3C//DTD SVG 1.1//EN" "http://www.w3.org/Graphics/SVG/1.1/DTD/svg11.dtd">
<svg version="1.1" xmlns="http://www.w3.org/2000/svg" xmlns:xlink="http://www.w3.org/1999/xlink" x="0px" y="0px"
	 width="56.563px" height="56.358px" viewBox="0 0 56.563 56.358" enable-background="new 0 0 56.563 56.358" xml:space="preserve">
<g id="Layer_2">
</g>
<g id="Layer_1">
	<g>
		<g>
			
				<path fill-rule="evenodd" clip-rule="evenodd" fill="#BCBEC0" stroke="#BCBEC0" stroke-width="0.9114" stroke-miterlimit="10" d="
				M7.31,4.011c0-0.823,0-1.565,0.002-2.305c0-0.166-0.004-0.336,0.025-0.498c0.084-0.439,0.461-0.744,0.904-0.75
				c0.436-0.004,0.81,0.303,0.896,0.754c0.031,0.175,0.035,0.359,0.035,0.541c0.004,0.725,0.002,1.451,0.002,2.164
				c0.354,0.112,8.359,0.143,8.961,0.039c0.01-0.152,0.025-0.314,0.027-0.478c0.004-0.697-0.016-1.395,0.007-2.092
				c0.026-0.717,0.702-1.135,1.313-0.828c0.354,0.178,0.529,0.484,0.527,0.887c-0.002,0.664,0,1.332,0,2
				c0.002,0.162,0,0.326,0,0.478c0.358,0.104,8.332,0.135,8.977,0.04c0.006-0.149,0.02-0.311,0.02-0.473
				c0.004-0.71-0.008-1.424,0.008-2.137c0.01-0.449,0.264-0.744,0.682-0.854c0.375-0.102,0.788,0.035,0.986,0.376
				c0.1,0.174,0.15,0.398,0.155,0.602c0.021,0.666,0.009,1.334,0.009,2c0,0.15,0,0.299,0,0.438c0.337,0.115,8.234,0.157,8.971,0.054
				c0.008-0.15,0.023-0.311,0.023-0.47c0.004-0.683,0.002-1.364,0.002-2.048c0.002-0.395,0.15-0.709,0.518-0.888
				c0.619-0.307,1.297,0.1,1.32,0.816c0.023,0.697,0.006,1.395,0.007,2.09c0,0.163,0,0.324,0,0.543c0.224,0,0.385,0.001,0.548,0
				c1.684,0,3.364,0,5.047,0.001c0.152,0,0.305-0.006,0.454,0.016c0.451,0.06,0.741,0.345,0.812,0.794
				c0.021,0.133,0.016,0.272,0.016,0.408c0,3.653-0.004,7.305,0.008,10.959c0,0.387,0.05,0.788,0.145,1.164
				c1.733,7.029,3.479,14.057,5.223,21.086c0.707,2.852,1.402,5.707,2.125,8.558c0.123,0.481-0.018,0.833-0.354,1.134
				c-0.102,0.092-0.262,0.154-0.398,0.163c-0.559,0.035-1.117,0.051-1.677,0.056c-0.271,0.002-0.542-0.047-0.812-0.045
				c-0.332,0.002-0.662,0.043-0.994,0.045c-0.895,0.008-1.789,0.002-2.684,0.002c-0.166,0-0.33,0-0.553,0
				c-0.012,0.209-0.027,0.383-0.027,0.559c-0.002,1.878,0,3.759-0.002,5.639c0,0.15,0.008,0.304-0.02,0.453
				c-0.074,0.435-0.391,0.727-0.84,0.76c-0.317,0.021-0.637,0.014-0.953,0.014c-11.807,0.023-23.617,0.044-35.424,0.068
				c-0.166,0-0.342-0.022-0.498,0.02c-0.455,0.118-0.789-0.053-1.1-0.367c-1.291-1.301-2.596-2.593-3.885-3.896
				C4.96,50.71,4.099,49.796,3.21,48.905c-0.768-0.77-1.558-1.521-2.342-2.271c-0.296-0.281-0.436-0.592-0.406-1.01
				c0.033-0.482-0.006-0.969-0.006-1.453c0-9.473,0-18.947,0-28.42c0-1.27,0-2.541,0-3.813c0-2.254,0-4.513,0-6.769
				C0.458,4.335,0.774,4.016,1.61,4.013C3.31,4.009,5.007,4.011,6.704,4.011C6.882,4.011,7.062,4.011,7.31,4.011z M11.46,54.003
				c11.775-0.027,23.484-0.054,35.242-0.082c0-0.314,0-0.58,0-0.85c0-6.213-0.002-12.425,0-18.639c0-0.469,0.018-0.935,0.027-1.404
				c0.01-0.512,0.033-1.024,0.027-1.538c-0.01-0.993-0.052-1.99-0.053-2.986c-0.008-3.348-0.002-6.697-0.004-10.047
				c0-0.205-0.021-0.412-0.031-0.602c-0.092-0.029-0.133-0.053-0.176-0.053c-14.611-0.005-29.219-0.009-43.828-0.009
				c-0.09,0-0.181,0.019-0.27,0.031c-0.012,0.002-0.026,0.014-0.037,0.023c-0.01,0.01-0.018,0.023-0.029,0.037
				c0,8.78,0,17.561,0,26.387c0.213,0,0.391,0,0.568,0c2.35,0,4.699,0,7.047,0c0.213,0,0.425-0.006,0.637,0.009
				c0.474,0.029,0.818,0.356,0.871,0.83c0.015,0.135,0.008,0.273,0.008,0.41c0,2.637,0,5.274,0,7.911
				C11.46,53.597,11.46,53.761,11.46,54.003z M2.306,15.883c14.828,0,29.581,0,44.329,0c0.106-0.491,0.087-9.62-0.019-9.971
				c-1.621,0-3.248,0-4.9,0c0,0.693,0,1.353,0,1.996c1.795,0.941,2.525,2.246,2.154,3.826c-0.34,1.453-1.599,2.467-3.082,2.486
				c-1.477,0.018-2.76-0.945-3.143-2.35c-0.196-0.715-0.152-1.414,0.131-2.091c0.391-0.938,1.11-1.528,2.037-1.864
				c0-0.68,0-1.326,0-2.006c-2.986,0-5.947,0-8.938,0c0,0.688,0,1.348,0,2c1.996,0.855,2.49,2.418,2.037,4.129
				c-0.307,1.154-1.479,2.193-3.02,2.186c-1.463-0.009-2.787-0.973-3.094-2.404c-0.299-1.388-0.008-3.018,2.184-3.937
				c0-0.644,0-1.292,0-1.931c-0.479-0.123-8.597-0.104-8.95,0.021c0,0.641,0,1.288,0,1.92c1.229,0.72,1.534,0.982,1.845,1.585
				c0.391,0.756,0.549,1.561,0.27,2.374c-0.482,1.406-1.551,2.389-3.132,2.367c-1.429-0.021-2.683-0.97-3.06-2.342
				c-0.189-0.694-0.156-1.384,0.111-2.05c0.385-0.958,1.109-1.569,2.041-1.9c0.093-0.551,0.072-1.692-0.029-2.008
				C17.331,5.806,9.513,5.854,9.2,5.978c0,0.644,0,1.292,0,1.925c1.809,0.984,2.508,2.244,2.146,3.834
				c-0.314,1.389-1.539,2.414-2.951,2.475c-1.504,0.064-2.778-0.803-3.238-2.213c-0.225-0.686-0.213-1.373,0.026-2.054
				c0.364-1.026,1.12-1.661,2.128-2.043c0-0.348,0-0.664,0-0.982c0-0.328,0-0.656,0-0.969C6.751,5.828,2.663,5.853,2.306,5.976
				C2.306,9.261,2.306,12.556,2.306,15.883z M48.661,24.833c-0.023,0.002-0.047,0.004-0.07,0.008
				c-0.008,0.066-0.023,0.135-0.025,0.204c-0.023,1.24-0.066,2.478-0.064,3.719c0.002,1.617,0.059,3.235,0.063,4.851
				c0.009,4.119,0.002,8.238,0.002,12.357c0,0.16,0.02,0.32,0.031,0.516c1.824-0.02,3.596,0.025,5.419-0.012
				C52.219,39.21,50.44,32.022,48.661,24.833z M9.595,46.147c-2.197,0-4.346,0-6.579,0c0.495,0.5,0.927,0.94,1.364,1.375
				c1.705,1.693,3.41,3.387,5.119,5.078c0.006,0.008,0.027,0.008,0.041,0.004s0.025-0.016,0.055-0.033
				C9.595,50.452,9.595,48.323,9.595,46.147z M29.886,12.372c0.793-0.033,1.461-0.715,1.413-1.443
				c-0.042-0.69-0.759-1.313-1.464-1.276c-0.697,0.033-1.383,0.699-1.348,1.352C28.52,11.64,29.216,12.554,29.886,12.372z
				 M9.565,11.079c0.029-0.762-0.535-1.387-1.287-1.426c-0.738-0.037-1.393,0.555-1.428,1.296c-0.037,0.739,0.557,1.388,1.297,1.419
				C8.904,12.399,9.536,11.828,9.565,11.079z M40.716,12.368c0.746,0.016,1.371-0.586,1.388-1.332
				c0.018-0.73-0.601-1.37-1.339-1.387c-0.742-0.011-1.367,0.595-1.379,1.34C39.372,11.746,39.96,12.354,40.716,12.368z
				 M20.407,11.038c0.012-0.756-0.574-1.367-1.328-1.385c-0.736-0.021-1.379,0.6-1.383,1.334c-0.004,0.763,0.582,1.369,1.332,1.381
				C19.788,12.38,20.397,11.794,20.407,11.038z"/>
			
				<path fill-rule="evenodd" clip-rule="evenodd" fill="#BCBEC0" stroke="#BCBEC0" stroke-width="0.0026" stroke-miterlimit="10" d="
				M12.276,27.487c0,0.381-0.311,0.692-0.691,0.692H6.652c-0.381,0-0.69-0.311-0.69-0.692v-4.932c0-0.381,0.31-0.69,0.69-0.69h4.933
				c0.381,0,0.691,0.31,0.691,0.69V27.487z"/>
			
				<path fill-rule="evenodd" clip-rule="evenodd" fill="#BCBEC0" stroke="#BCBEC0" stroke-width="0.0026" stroke-miterlimit="10" d="
				M21.97,27.487c0,0.381-0.311,0.692-0.691,0.692h-4.932c-0.381,0-0.689-0.311-0.689-0.692v-4.932c0-0.381,0.309-0.69,0.689-0.69
				h4.932c0.381,0,0.691,0.31,0.691,0.69V27.487z"/>
			
				<path fill-rule="evenodd" clip-rule="evenodd" fill="#BCBEC0" stroke="#BCBEC0" stroke-width="0.0026" stroke-miterlimit="10" d="
				M31.665,27.487c0,0.381-0.311,0.692-0.691,0.692h-4.932c-0.381,0-0.691-0.311-0.691-0.692v-4.932c0-0.381,0.311-0.69,0.691-0.69
				h4.932c0.381,0,0.691,0.31,0.691,0.69V27.487z"/>
			
				<path fill-rule="evenodd" clip-rule="evenodd" fill="#BCBEC0" stroke="#BCBEC0" stroke-width="0.0026" stroke-miterlimit="10" d="
				M41.36,27.487c0,0.381-0.31,0.692-0.691,0.692h-4.93c-0.384,0-0.691-0.311-0.691-0.692v-4.932c0-0.381,0.308-0.69,0.691-0.69
				h4.93c0.382,0,0.691,0.31,0.691,0.69V27.487z"/>
			
				<path fill-rule="evenodd" clip-rule="evenodd" fill="#BCBEC0" stroke="#BCBEC0" stroke-width="0.0026" stroke-miterlimit="10" d="
				M12.276,36.987c0,0.381-0.311,0.692-0.691,0.692H6.652c-0.381,0-0.69-0.311-0.69-0.692v-4.932c0-0.381,0.31-0.69,0.69-0.69h4.933
				c0.381,0,0.691,0.31,0.691,0.69V36.987z"/>
			
				<path fill-rule="evenodd" clip-rule="evenodd" fill="#BCBEC0" stroke="#BCBEC0" stroke-width="0.0026" stroke-miterlimit="10" d="
				M21.97,36.987c0,0.381-0.311,0.692-0.691,0.692h-4.932c-0.381,0-0.689-0.311-0.689-0.692v-4.932c0-0.381,0.309-0.69,0.689-0.69
				h4.932c0.381,0,0.691,0.31,0.691,0.69V36.987z"/>
			
				<path fill-rule="evenodd" clip-rule="evenodd" fill="#BCBEC0" stroke="#BCBEC0" stroke-width="0.0026" stroke-miterlimit="10" d="
				M31.665,36.987c0,0.381-0.311,0.692-0.691,0.692h-4.932c-0.381,0-0.691-0.311-0.691-0.692v-4.932c0-0.381,0.311-0.69,0.691-0.69
				h4.932c0.381,0,0.691,0.31,0.691,0.69V36.987z"/>
			
				<path fill-rule="evenodd" clip-rule="evenodd" fill="#BCBEC0" stroke="#BCBEC0" stroke-width="0.0026" stroke-miterlimit="10" d="
				M41.36,36.987c0,0.381-0.31,0.692-0.691,0.692h-4.93c-0.384,0-0.691-0.311-0.691-0.692v-4.932c0-0.381,0.308-0.69,0.691-0.69
				h4.93c0.382,0,0.691,0.31,0.691,0.69V36.987z"/>
			
				<path fill-rule="evenodd" clip-rule="evenodd" fill="#BCBEC0" stroke="#BCBEC0" stroke-width="0.0026" stroke-miterlimit="10" d="
				M31.665,46.737c0,0.381-0.311,0.692-0.691,0.692h-4.932c-0.381,0-0.691-0.311-0.691-0.692v-4.932
				c0-0.381,0.311-0.691,0.691-0.691h4.932c0.381,0,0.691,0.311,0.691,0.691V46.737z"/>
			
				<path fill-rule="evenodd" clip-rule="evenodd" fill="#BCBEC0" stroke="#BCBEC0" stroke-width="0.0026" stroke-miterlimit="10" d="
				M41.36,46.737c0,0.381-0.31,0.692-0.691,0.692h-4.93c-0.384,0-0.691-0.311-0.691-0.692v-4.932c0-0.381,0.308-0.691,0.691-0.691
				h4.93c0.382,0,0.691,0.311,0.691,0.691V46.737z"/>
		</g>
	</g>
</g>
</svg>
