<?xml version="1.0" encoding="utf-8"?>
<!-- Generator: Adobe Illustrator 16.0.0, SVG Export Plug-In . SVG Version: 6.00 Build 0)  -->
<!DOCTYPE svg PUBLIC "-//W3C//DTD SVG 1.1//EN" "http://www.w3.org/Graphics/SVG/1.1/DTD/svg11.dtd">
<svg version="1.1" xmlns="http://www.w3.org/2000/svg" xmlns:xlink="http://www.w3.org/1999/xlink" x="0px" y="0px"
	 width="767.115px" height="408.509px" viewBox="0 0 767.115 408.509" enable-background="new 0 0 767.115 408.509"
	 xml:space="preserve">
<g id="Layer_2">
</g>
<g id="Layer_1">
	<path fill="#FFFFFF" d="M767.115,393.509c0,8.284-6.716,15-15,15H15c-8.285,0-15-6.716-15-15V15C0,6.716,6.715,0,15,0h737.115
		c8.284,0,15,6.716,15,15V393.509z"/>
	<g>
		<g>
			<g>
				<path fill="#7BCEE9" d="M69.127,170.475V66.934h26.241c9.338,0,16.414,2.287,21.227,6.858c4.811,4.573,7.217,11.312,7.217,20.22
					c0,5.306-1.232,9.926-3.697,13.858s-5.879,6.774-10.24,8.528c5.025,1.283,9.09,4.21,12.195,8.788
					c3.106,4.58,4.659,9.95,4.659,16.116c0,9.013-2.465,16.127-7.396,21.346c-4.93,5.218-11.922,7.827-20.977,7.827H69.127z
					 M77.233,113.3h18.846c6.163,0,10.952-1.635,14.365-4.907c3.414-3.272,5.121-8.131,5.121-14.579
					c0-6.588-1.672-11.438-5.014-14.543c-3.342-3.104-8.404-4.658-15.182-4.658H77.233V113.3z M77.233,120.694v42.242H98.71
					c6.162,0,11.021-1.898,14.578-5.696c3.555-3.801,5.333-9.074,5.333-15.815c0-6.271-1.648-11.254-4.942-14.959
					c-3.296-3.706-7.883-5.63-13.76-5.772H77.233z"/>
				<path fill="#7BCEE9" d="M195.424,120.909h-40.18v42.028h46.225v7.539h-54.332V66.934h53.976v7.679h-45.869v38.757h40.18V120.909
					z"/>
				<path fill="#7BCEE9" d="M266.609,141.533h-38.826l-8.818,28.942H210.5l32.997-103.542h7.537l32.998,103.542h-8.463
					L266.609,141.533z M230.128,133.922h34.134l-17.067-55.54L230.128,133.922z"/>
				<path fill="#7BCEE9" d="M358.346,66.934v73.46c-0.046,10.004-2.736,17.756-8.072,23.254c-5.332,5.5-12.908,8.25-22.722,8.25
					c-9.955,0-17.575-2.715-22.86-8.144c-5.289-5.427-7.931-13.31-7.931-23.646V66.934h8.108v72.891
					c0,16.357,7.56,24.534,22.683,24.534c14.888,0,22.425-7.939,22.616-23.823V66.934H358.346z"/>
				<path fill="#7BCEE9" d="M440.483,74.613h-29.439v95.862h-8.18V74.613h-29.37v-7.679h66.989V74.613z"/>
				<path fill="#7BCEE9" d="M466.726,170.475h-8.109V66.934h8.109V170.475z"/>
				<path fill="#7BCEE9" d="M540.612,122.26h-39.824v48.215h-8.107V66.934h53.904v7.679h-45.797v39.966h39.824V122.26z"/>
				<path fill="#7BCEE9" d="M624.239,66.934v73.46c-0.047,10.004-2.736,17.756-8.07,23.254c-5.332,5.5-12.906,8.25-22.721,8.25
					c-9.955,0-17.576-2.715-22.861-8.144c-5.29-5.427-7.932-13.31-7.932-23.646V66.934h8.109v72.891
					c0,16.357,7.559,24.534,22.684,24.534c14.887,0,22.424-7.939,22.613-23.823V66.934H624.239z"/>
				<path fill="#7BCEE9" d="M655.319,162.937h42.668v7.539h-50.846V66.934h8.178V162.937z"/>
			</g>
		</g>
		<g>
			<path fill="#9B9AE6" d="M140.881,210.375h-25.602v86.118H94.301v-86.118H69.127v-17.424h71.754V210.375z"/>
			<path fill="#9B9AE6" d="M225.505,296.493H204.67v-44.305h-30.864v44.305h-20.908V192.951h20.908v41.885h30.864v-41.885h20.835
				V296.493z"/>
			<path fill="#9B9AE6" d="M264.123,296.493h-20.909V192.951h20.909V296.493z"/>
			<path fill="#9B9AE6" d="M354.081,296.493h-20.906l-30.58-67.914v67.914h-20.908V192.951h20.908l30.648,67.984v-67.984h20.838
				V296.493z"/>
			<path fill="#9B9AE6" d="M441.267,284.758c-4.031,4.362-8.973,7.646-14.826,9.849c-5.857,2.206-12.268,3.31-19.238,3.31
				c-11.9,0-21.145-3.688-27.732-11.061c-6.591-7.373-9.98-18.098-10.171-32.179v-18.632c0-14.268,3.118-25.256,9.353-32.961
				c6.232-7.703,15.324-11.556,27.272-11.556c11.236,0,19.71,2.774,25.423,8.321c5.713,5.546,9.018,14.247,9.92,26.099h-20.34
				c-0.568-6.589-1.943-11.082-4.123-13.477c-2.181-2.393-5.594-3.591-10.242-3.591c-5.641,0-9.742,2.063-12.301,6.187
				c-2.561,4.125-3.889,10.693-3.982,19.701v18.774c0,9.434,1.408,16.296,4.229,20.585c2.822,4.291,7.457,6.435,13.904,6.435
				c4.125,0,7.468-0.829,10.029-2.488l1.846-1.281v-18.986H405.64v-15.788h35.627V284.758z"/>
			<path fill="#9B9AE6" d="M499.794,269.327c0-4.219-1.08-7.407-3.236-9.565c-2.158-2.157-6.082-4.396-11.77-6.719
				c-10.383-3.935-17.852-8.545-22.402-13.833c-4.551-5.285-6.824-11.531-6.824-18.738c0-8.722,3.092-15.728,9.279-21.014
				c6.186-5.285,14.043-7.93,23.575-7.93c6.354,0,12.02,1.34,16.994,4.019c4.98,2.679,8.806,6.46,11.486,11.342
				c2.678,4.883,4.018,10.431,4.018,16.641h-20.836c0-4.836-1.03-8.521-3.094-11.058c-2.063-2.536-5.039-3.804-8.924-3.804
				c-3.652,0-6.498,1.079-8.535,3.235c-2.039,2.158-3.057,5.062-3.057,8.71c0,2.846,1.137,5.419,3.414,7.717
				c2.274,2.301,6.303,4.683,12.088,7.147c10.098,3.651,17.436,8.131,22.012,13.441c4.572,5.31,6.861,12.065,6.861,20.268
				c0,9.007-2.869,16.048-8.605,21.122c-5.736,5.072-13.537,7.609-23.395,7.609c-6.688,0-12.779-1.376-18.279-4.125
				s-9.801-6.685-12.906-11.807c-3.105-5.12-4.658-11.165-4.658-18.133h20.979c0,5.974,1.162,10.311,3.486,13.014
				c2.32,2.702,6.115,4.054,11.379,4.054C496.142,280.919,499.794,277.054,499.794,269.327z"/>
		</g>
		<g>
			<g>
				
					<path fill-rule="evenodd" clip-rule="evenodd" fill="#9B9AE6" stroke="#9B9AE6" stroke-width="2.5314" stroke-miterlimit="10" d="
					M561.612,197.455c0-2.287-0.002-4.347,0.002-6.402c0.004-0.46-0.012-0.935,0.072-1.386c0.232-1.218,1.283-2.063,2.514-2.077
					c1.209-0.014,2.25,0.837,2.484,2.087c0.092,0.49,0.1,1.002,0.102,1.505c0.013,2.014,0.006,4.034,0.006,6.013
					c0.98,0.31,23.216,0.394,24.889,0.107c0.025-0.423,0.068-0.876,0.074-1.327c0.01-1.936-0.045-3.875,0.021-5.81
					c0.07-1.993,1.945-3.157,3.646-2.305c0.984,0.494,1.469,1.345,1.467,2.462c-0.006,1.85,0,3.702,0,5.558
					c0.002,0.452,0,0.906,0,1.33c0.998,0.29,23.139,0.375,24.928,0.107c0.02-0.415,0.055-0.861,0.055-1.312
					c0.009-1.978-0.023-3.955,0.021-5.936c0.027-1.247,0.732-2.064,1.893-2.376c1.043-0.284,2.191,0.094,2.74,1.049
					c0.277,0.485,0.42,1.105,0.436,1.671c0.055,1.849,0.021,3.703,0.021,5.554c0,0.416,0,0.832,0,1.216
					c0.939,0.316,22.863,0.435,24.906,0.147c0.023-0.416,0.066-0.861,0.07-1.304c0.01-1.896,0.002-3.789,0.004-5.684
					c0.006-1.097,0.417-1.97,1.438-2.473c1.721-0.85,3.598,0.281,3.666,2.268c0.066,1.935,0.018,3.871,0.02,5.807
					c0,0.449,0,0.899,0,1.507c0.619,0,1.07,0.002,1.521,0c4.674,0,9.346,0,14.018,0.002c0.42,0,0.846-0.013,1.26,0.044
					c1.256,0.172,2.061,0.958,2.256,2.208c0.059,0.371,0.041,0.757,0.041,1.135c0.004,10.146-0.01,20.29,0.02,30.433
					c0.004,1.081,0.143,2.189,0.4,3.236c4.818,19.526,9.666,39.046,14.508,58.565c1.965,7.922,3.895,15.852,5.902,23.766
					c0.342,1.339-0.049,2.314-0.979,3.152c-0.285,0.254-0.729,0.428-1.11,0.453c-1.55,0.093-3.103,0.138-4.656,0.154
					c-0.75,0.007-1.506-0.13-2.256-0.125c-0.922,0.004-1.84,0.121-2.762,0.128c-2.484,0.018-4.967,0.004-7.452,0.004
					c-0.459,0-0.919,0-1.537,0c-0.029,0.579-0.072,1.064-0.072,1.549c-0.008,5.221-0.002,10.442-0.008,15.659
					c0,0.422,0.02,0.849-0.051,1.26c-0.21,1.21-1.087,2.02-2.334,2.111c-0.88,0.062-1.767,0.037-2.65,0.04
					c-32.791,0.063-65.586,0.125-98.379,0.19c-0.461,0-0.945-0.062-1.385,0.051c-1.259,0.332-2.189-0.148-3.048-1.019
					c-3.588-3.614-7.209-7.196-10.793-10.815c-2.455-2.48-4.848-5.018-7.316-7.491c-2.135-2.138-4.322-4.227-6.508-6.313
					c-0.816-0.777-1.207-1.64-1.127-2.801c0.09-1.341-0.013-2.693-0.013-4.038c-0.002-26.31-0.002-52.624-0.002-78.931
					c0-3.53,0-7.061,0-10.589c0-6.268,0-12.537,0.002-18.807c0.004-2.315,0.883-3.206,3.207-3.21
					c4.717-0.007,9.431-0.002,14.145-0.002C560.423,197.455,560.921,197.455,561.612,197.455z M573.138,336.301
					c32.707-0.074,65.221-0.152,97.873-0.227c0-0.871,0-1.612,0-2.358c0-17.257-0.002-34.513,0.004-51.771
					c0-1.297,0.049-2.595,0.076-3.895c0.028-1.422,0.09-2.846,0.075-4.271c-0.027-2.763-0.141-5.53-0.146-8.294
					c-0.02-9.301-0.004-18.603-0.01-27.904c0-0.571-0.058-1.144-0.085-1.675c-0.254-0.079-0.371-0.146-0.486-0.146
					c-40.578-0.011-81.152-0.021-121.727-0.025c-0.248,0-0.496,0.055-0.746,0.09c-0.037,0.004-0.07,0.036-0.104,0.062
					c-0.029,0.026-0.053,0.066-0.084,0.106c0,24.382,0,48.771,0,73.286c0.592,0,1.086,0,1.582,0c6.523,0,13.047,0,19.572,0
					c0.588,0,1.178-0.019,1.768,0.018c1.316,0.083,2.271,0.995,2.42,2.309c0.041,0.376,0.02,0.757,0.02,1.138
					c0,7.322,0,14.647,0,21.968C573.138,335.172,573.138,335.632,573.138,336.301z M547.712,230.425c41.182,0,82.16,0,123.119,0
					c0.291-1.362,0.238-26.716-0.055-27.694c-4.504,0-9.023,0-13.613,0c0,1.928,0,3.759,0,5.546
					c4.988,2.611,7.014,6.238,5.984,10.625c-0.945,4.037-4.438,6.854-8.561,6.905c-4.102,0.051-7.664-2.623-8.727-6.526
					c-0.541-1.982-0.424-3.923,0.361-5.81c1.088-2.6,3.09-4.239,5.66-5.176c0-1.886,0-3.681,0-5.569c-8.294,0-16.517,0-24.816,0
					c0,1.909,0,3.743,0,5.558c5.541,2.375,6.918,6.713,5.656,11.468c-0.85,3.201-4.109,6.091-8.387,6.065
					c-4.064-0.027-7.738-2.698-8.594-6.676c-0.828-3.857-0.02-8.381,6.066-10.934c0-1.788,0-3.585,0-5.361
					c-1.328-0.343-23.873-0.286-24.854,0.058c0,1.782,0,3.576,0,5.332c3.41,2.002,4.256,2.734,5.119,4.406
					c1.086,2.103,1.523,4.336,0.748,6.592c-1.34,3.904-4.305,6.634-8.695,6.574c-3.971-0.056-7.457-2.698-8.5-6.503
					c-0.529-1.934-0.438-3.845,0.307-5.699c1.07-2.652,3.08-4.351,5.672-5.275c0.262-1.527,0.201-4.699-0.08-5.578
					c-2.082-0.315-23.793-0.177-24.664,0.165c0,1.792,0,3.591,0,5.352c5.023,2.731,6.967,6.229,5.963,10.644
					c-0.875,3.857-4.274,6.704-8.197,6.875c-4.176,0.179-7.715-2.232-8.996-6.151c-0.624-1.903-0.59-3.809,0.08-5.7
					c1.008-2.853,3.104-4.612,5.904-5.673c0-0.97,0-1.849,0-2.732c0-0.912,0-1.822,0-2.689c-1.557-0.342-12.91-0.272-13.902,0.069
					C547.712,212.038,547.712,221.189,547.712,230.425z M676.458,255.285c-0.066,0.007-0.135,0.014-0.202,0.022
					c-0.021,0.187-0.064,0.378-0.066,0.565c-0.068,3.443-0.188,6.886-0.184,10.331c0.012,4.492,0.167,8.981,0.18,13.474
					c0.023,11.44,0.002,22.882,0.004,34.322c0,0.442,0.049,0.887,0.084,1.429c5.068-0.055,9.99,0.074,15.053-0.03
					C686.337,295.216,681.397,275.251,676.458,255.285z M567.956,314.485c-6.104,0-12.066,0-18.271,0
					c1.377,1.387,2.574,2.61,3.789,3.817c4.734,4.704,9.475,9.406,14.215,14.104c0.02,0.021,0.08,0.021,0.113,0.011
					c0.041-0.009,0.072-0.042,0.154-0.093C567.956,326.442,567.956,320.53,567.956,314.485z M624.317,220.677
					c2.197-0.09,4.053-1.987,3.926-4.01c-0.119-1.913-2.11-3.643-4.07-3.544c-1.936,0.097-3.842,1.945-3.744,3.756
					C620.521,218.643,622.456,221.183,624.317,220.677z M567.874,217.085c0.082-2.118-1.482-3.854-3.572-3.96
					c-2.051-0.104-3.865,1.539-3.965,3.595c-0.104,2.058,1.543,3.858,3.602,3.945C566.046,220.754,567.796,219.162,567.874,217.085z
					 M654.39,220.666c2.072,0.043,3.807-1.624,3.855-3.698c0.047-2.033-1.672-3.813-3.725-3.85c-2.059-0.038-3.795,1.646-3.83,3.715
					C650.653,218.935,652.288,220.628,654.39,220.666z M597.989,216.973c0.031-2.1-1.598-3.795-3.688-3.85
					c-2.047-0.054-3.832,1.666-3.846,3.709c-0.01,2.116,1.619,3.802,3.701,3.833C596.271,220.697,597.96,219.071,597.989,216.973z"
					/>
				<g>
					<path fill="#9B9AE6" d="M577.941,270.444c0-0.001-0.024-0.085-0.021-0.346c0.003-0.236-0.019-0.545,0.02-0.938
						c0.029-0.394,0.069-0.872,0.196-1.407c0.107-0.542,0.267-1.153,0.537-1.807c0.258-0.655,0.614-1.359,1.112-2.071
						c0.485-0.711,1.128-1.429,1.924-2.073c0.793-0.646,1.756-1.189,2.803-1.573c0.519-0.193,1.064-0.302,1.609-0.424
						c0.541-0.092,1.078-0.125,1.622-0.151l0.203-0.01l0.051-0.002l0.289,0.011l0.069,0.005l0.273,0.022l0.547,0.043l0.294,0.035
						l0.458,0.086c0.305,0.059,0.607,0.125,0.906,0.197c1.13,0.313,2.028,0.749,2.896,1.308c0.418,0.277,0.796,0.59,1.162,0.893
						c0.333,0.33,0.664,0.646,0.946,0.979c0.555,0.669,0.989,1.341,1.313,1.978c0.643,1.279,0.904,2.389,1.022,3.178
						c0.069,0.39,0.075,0.714,0.092,0.937c0.011,0.255,0.017,0.391,0.017,0.391c0.025,0.589-0.432,1.087-1.021,1.113
						c-0.021,0.001-0.043,0.002-0.064,0.001l-2.775-0.056c0.002,0.005-0.042,0-0.142-0.112c-0.094-0.103-0.258-0.254-0.44-0.454
						c-0.381-0.392-0.926-0.945-1.575-1.447c-0.32-0.257-0.669-0.486-1.014-0.7c-0.181-0.094-0.357-0.181-0.527-0.281
						c-0.189-0.057-0.357-0.147-0.533-0.213c-0.188-0.035-0.353-0.118-0.536-0.153c-0.166-0.015-0.403-0.105-0.497-0.088
						c-0.055,0-0.107-0.006-0.159-0.019l-0.076-0.024c-0.047-0.008-0.171-0.005-0.252-0.01l-0.548-0.028l-0.274-0.014l-0.069-0.003
						l-0.017-0.001l-0.009-0.001c-0.059-0.001,0.475,0.017,0.247,0.01l-0.018,0.002l-0.071,0.011
						c-0.187,0.04-0.387,0.013-0.564,0.039c-0.163,0.054-0.343,0.054-0.508,0.09c-0.316,0.093-0.639,0.174-0.961,0.336
						c-0.323,0.153-0.669,0.341-0.993,0.593c-0.172,0.114-0.339,0.238-0.492,0.386c-0.169,0.127-0.326,0.268-0.472,0.42
						c-0.161,0.136-0.305,0.284-0.441,0.432c-0.149,0.138-0.285,0.28-0.407,0.421c-0.253,0.287-0.474,0.538-0.655,0.744
						c-0.176,0.213-0.335,0.39-0.424,0.485c-0.086,0.07-0.152,0.165-0.152,0.165c-0.668,0.974-1.999,1.221-2.972,0.552
						c-0.424-0.291-0.71-0.707-0.843-1.165L577.941,270.444z"/>
				</g>
				<g>
					<path fill="#9B9AE6" d="M622.475,270.442c0,0-0.024-0.084-0.021-0.345c0.004-0.237-0.018-0.545,0.02-0.937
						c0.029-0.394,0.069-0.872,0.196-1.407c0.108-0.542,0.268-1.153,0.537-1.807c0.257-0.655,0.613-1.359,1.112-2.071
						c0.484-0.71,1.128-1.429,1.923-2.073c0.793-0.646,1.757-1.189,2.804-1.573c0.519-0.192,1.064-0.303,1.609-0.424
						c0.541-0.091,1.079-0.124,1.622-0.152l0.203-0.008l0.051-0.002l0.289,0.011l0.068,0.005l0.274,0.022l0.547,0.044
						c0.101,0.011,0.159,0.013,0.295,0.035l0.458,0.085c0.305,0.06,0.607,0.125,0.905,0.198c1.131,0.312,2.028,0.749,2.896,1.307
						c0.418,0.277,0.795,0.591,1.161,0.894c0.333,0.329,0.664,0.646,0.946,0.979c0.555,0.668,0.99,1.34,1.313,1.977
						c0.644,1.279,0.905,2.389,1.023,3.177c0.068,0.391,0.074,0.715,0.093,0.937c0.011,0.256,0.017,0.391,0.017,0.391
						c0.025,0.589-0.432,1.087-1.021,1.113c-0.021,0.001-0.042,0.001-0.063,0.001l-2.776-0.055c0.003,0.004-0.041-0.001-0.142-0.113
						c-0.094-0.103-0.258-0.253-0.439-0.454c-0.382-0.391-0.927-0.943-1.577-1.447c-0.319-0.255-0.668-0.486-1.013-0.699
						c-0.181-0.094-0.357-0.18-0.529-0.281c-0.188-0.058-0.356-0.147-0.533-0.213c-0.188-0.036-0.352-0.119-0.535-0.154
						c-0.167-0.015-0.404-0.104-0.498-0.088c-0.056,0-0.108-0.006-0.159-0.019l-0.077-0.024c-0.044-0.008-0.17-0.005-0.25-0.009
						l-0.549-0.029l-0.275-0.014l-0.068-0.004l-0.018-0.001h-0.008c0.11,0.004-0.26-0.009,0.245,0.009l-0.018,0.002l-0.071,0.011
						c-0.186,0.04-0.386,0.013-0.564,0.039c-0.163,0.054-0.342,0.054-0.506,0.089c-0.317,0.094-0.641,0.175-0.963,0.337
						c-0.323,0.152-0.668,0.34-0.993,0.593c-0.171,0.114-0.339,0.238-0.492,0.386c-0.169,0.127-0.326,0.269-0.472,0.42
						c-0.16,0.136-0.304,0.284-0.44,0.432c-0.15,0.138-0.286,0.28-0.408,0.421c-0.253,0.287-0.474,0.538-0.655,0.744
						c-0.176,0.212-0.335,0.389-0.424,0.485c-0.086,0.07-0.151,0.165-0.151,0.164c-0.668,0.974-2,1.221-2.973,0.552
						c-0.424-0.291-0.71-0.707-0.843-1.165L622.475,270.442z"/>
				</g>
				
					<path fill="none" stroke="#9B9AE6" stroke-width="6.3285" stroke-linecap="round" stroke-linejoin="round" stroke-miterlimit="10" d="
					M633.636,281.807c0,11.038-10.695,19.981-23.893,19.981c-13.196,0-23.895-8.943-23.895-19.981"/>
			</g>
		</g>
		<g>
			<polygon fill="#9B9AE6" points="524.71,324.898 69.127,324.898 69.127,232.291 76.721,232.291 76.721,317.304 524.71,317.304 			
				"/>
		</g>
	</g>
</g>
</svg>
