<?xml version="1.0" encoding="UTF-8" standalone="no"?>
<!-- Created with Inkscape (http://www.inkscape.org/) -->

<svg
   xmlns:dc="http://purl.org/dc/elements/1.1/"
   xmlns:cc="http://creativecommons.org/ns#"
   xmlns:rdf="http://www.w3.org/1999/02/22-rdf-syntax-ns#"
   xmlns:svg="http://www.w3.org/2000/svg"
   xmlns="http://www.w3.org/2000/svg"
   xmlns:sodipodi="http://sodipodi.sourceforge.net/DTD/sodipodi-0.dtd"
   xmlns:inkscape="http://www.inkscape.org/namespaces/inkscape"
   width="92.458382mm"
   height="62.788799mm"
   viewBox="0 0 92.458382 62.788799"
   version="1.1"
   id="svg4547"
   inkscape:version="0.92.1 r15371"
   sodipodi:docname="Sun.svg">
  <defs
     id="defs4541" />
  <sodipodi:namedview
     id="base"
     pagecolor="#ffffff"
     bordercolor="#666666"
     borderopacity="1.0"
     inkscape:pageopacity="0.0"
     inkscape:pageshadow="2"
     inkscape:zoom="1.979899"
     inkscape:cx="118.30149"
     inkscape:cy="141.84026"
     inkscape:document-units="mm"
     inkscape:current-layer="layer1"
     showgrid="false"
     inkscape:window-width="1920"
     inkscape:window-height="1032"
     inkscape:window-x="0"
     inkscape:window-y="0"
     inkscape:window-maximized="1" />
  <metadata
     id="metadata4544">
    <rdf:RDF>
      <cc:Work
         rdf:about="">
        <dc:format>image/svg+xml</dc:format>
        <dc:type
           rdf:resource="http://purl.org/dc/dcmitype/StillImage" />
        <dc:title />
      </cc:Work>
    </rdf:RDF>
  </metadata>
  <g
     inkscape:label="Capa 1"
     inkscape:groupmode="layer"
     id="layer1"
     transform="translate(-20.294619,-112.90322)">
    <g
       transform="matrix(0.26458333,0,0,0.26458333,-80.386481,99.006775)"
       id="g9">
      <circle
         style="fill:#ffdf78"
         cx="555.25153"
         cy="171.17799"
         r="118.656"
         id="circle5" />
      <path
         style="fill:#fff18c"
         inkscape:connector-curvature="0"
         d="m 639.4205,171.178 c 0,46.486 -37.684,84.167 -84.17,84.167 -46.486,0 -84.168,-37.681 -84.168,-84.167 0,-46.487 37.682,-84.168 84.168,-84.168 46.486,0 84.17,37.681 84.17,84.168 z"
         id="path7" />
    </g>
    <path
       inkscape:connector-curvature="0"
       style="fill:#e6e7e8;stroke-width:0.26458332"
       d="m 109.17345,121.81545 c -0.37227,0 -0.73131,0.0566 -1.06865,0.16219 -0.91837,-1.56925 -2.61646,-2.62626 -4.56591,-2.62626 -0.0947,0 -0.18812,0.01 -0.28179,0.0145 -1.45441,-2.68446 -4.295771,-4.5077 -7.562846,-4.5077 -3.151716,0 -5.905235,1.6973 -7.401718,4.22513 -0.07752,-0.002 -0.155311,-0.005 -0.233363,-0.005 -1.988608,0 -3.747029,0.96784 -4.843992,2.45427 -0.28522,-0.0725 -0.581818,-0.11483 -0.890058,-0.11483 -2.001308,0 -3.623733,1.62296 -3.623733,3.62427 0,2.00104 1.622425,3.62347 3.623733,3.62347 0.280988,0 0.553244,-0.0352 0.815446,-0.0955 1.091142,1.54305 2.885281,2.55375 4.918604,2.55375 0.969433,0 1.884627,-0.23071 2.695575,-0.63711 1.397794,0.98345 3.100123,1.56263 4.939242,1.56263 2.338387,0 4.4577,-0.9353 6.00736,-2.45004 0.57309,0.21193 1.19036,0.33443 1.83727,0.33443 1.44674,0 2.7559,-0.58182 3.71052,-1.52162 0.55668,0.35428 1.21523,0.56303 1.92378,0.56303 1.9775,0 3.58008,-1.60258 3.58008,-3.57928 7.9e-4,-1.97776 -1.60205,-3.58034 -3.57955,-3.58034 z"
       id="path11" />
    <path
       inkscape:connector-curvature="0"
       style="fill:#ffffff;stroke-width:0.26458332"
       d="m 43.846334,125.96393 c -0.240506,0 -0.474398,0.0257 -0.700881,0.072 -0.668337,-2.71912 -3.116262,-4.73948 -6.042554,-4.73948 -2.231496,0 -4.183063,1.1774 -5.2832,2.94058 -0.407988,-0.12727 -0.842169,-0.195 -1.291961,-0.195 -2.404533,0 -4.353189,1.94866 -4.353189,4.35293 0,2.40347 1.948656,4.35213 4.353189,4.35213 0.854869,0 1.650736,-0.24977 2.323836,-0.67628 1.113367,1.04273 2.605352,1.6854 4.25106,1.6854 1.731698,0 3.297238,-0.7075 4.426215,-1.84785 0.610129,0.56171 1.422135,0.90752 2.317221,0.90752 1.891771,0 3.42556,-1.53432 3.42556,-3.42636 0,-1.89203 -1.53326,-3.42556 -3.425296,-3.42556 z"
       id="path25" />
  </g>
</svg>
