<?xml version="1.0" encoding="utf-8"?>
<!-- Generator: Adobe Illustrator 16.0.0, SVG Export Plug-In . SVG Version: 6.00 Build 0)  -->
<!DOCTYPE svg PUBLIC "-//W3C//DTD SVG 1.1//EN" "http://www.w3.org/Graphics/SVG/1.1/DTD/svg11.dtd">
<svg version="1.1" xmlns="http://www.w3.org/2000/svg" xmlns:xlink="http://www.w3.org/1999/xlink" x="0px" y="0px"
	 width="382.348px" height="115.984px" viewBox="0 0 382.348 115.984" enable-background="new 0 0 382.348 115.984"
	 xml:space="preserve">
<g id="Layer_2">
</g>
<g id="Layer_1">
	<g>
		<g>
			<g>
				<text transform="matrix(1 0 0 1 0 42.6611)" fill="#01BFBE" font-family="'Bariol-Regular'" font-size="51">by</text>
			</g>
			<g>
				<g>
					<path fill="#01BFBE" d="M163.385,63.465c0.295-0.661,0.686-1.245,1.174-1.747c0.486-0.503,1.068-0.904,1.746-1.199
						c0.68-0.295,1.4-0.443,2.164-0.443c0.766,0,1.479,0.148,2.139,0.443s1.242,0.696,1.746,1.199
						c0.506,0.502,0.904,1.086,1.199,1.747c0.297,0.662,0.443,1.375,0.443,2.138v12.1c0,1.076,0.382,2,1.148,2.762
						c0.764,0.765,1.686,1.148,2.764,1.148s2.008-0.383,2.789-1.148c0.785-0.762,1.176-1.686,1.176-2.762v-12.1
						c0-0.763,0.146-1.477,0.441-2.138c0.297-0.661,0.695-1.245,1.201-1.747c0.502-0.503,1.086-0.904,1.744-1.199
						c0.662-0.295,1.375-0.443,2.139-0.443c0.766,0,1.49,0.148,2.164,0.443c0.68,0.295,1.26,0.696,1.752,1.199
						c0.486,0.502,0.874,1.086,1.169,1.747c0.295,0.662,0.445,1.375,0.445,2.138v12.1c0,2.048-0.393,3.988-1.173,5.813
						c-0.781,1.826-1.854,3.416-3.207,4.771c-1.359,1.357-2.949,2.426-4.773,3.211c-1.824,0.781-3.781,1.169-5.867,1.169
						c-2.053,0-3.989-0.388-5.814-1.169c-1.826-0.786-3.416-1.854-4.771-3.211c-1.355-1.355-2.426-2.945-3.207-4.771
						c-0.783-1.824-1.174-3.765-1.174-5.813v-12.1C162.941,64.84,163.09,64.126,163.385,63.465"/>
					<path fill="#01BFBE" d="M196.995,75.042c0-2.053,0.391-3.988,1.175-5.814c0.78-1.824,1.85-3.416,3.204-4.773
						c1.359-1.355,2.949-2.423,4.773-3.207s3.762-1.172,5.814-1.172c2.088,0,4.043,0.389,5.868,1.172
						c1.824,0.783,3.416,1.851,4.771,3.207c1.354,1.357,2.426,2.949,3.207,4.773c0.781,1.826,1.174,3.762,1.174,5.814v12.1
						c0,0.764-0.146,1.477-0.445,2.139c-0.291,0.658-0.684,1.24-1.17,1.746c-0.489,0.504-1.073,0.904-1.748,1.199
						c-0.678,0.294-1.398,0.443-2.164,0.443s-1.477-0.148-2.139-0.443c-0.66-0.295-1.244-0.695-1.748-1.199
						c-0.502-0.506-0.904-1.088-1.197-1.746c-0.297-0.662-0.443-1.375-0.443-2.139v-12.1c0-1.076-0.393-2-1.176-2.766
						c-0.779-0.763-1.709-1.146-2.79-1.146c-1.08,0-2,0.383-2.761,1.146c-0.77,0.766-1.15,1.689-1.15,2.766v12.1
						c0,0.764-0.146,1.477-0.441,2.139c-0.297,0.658-0.699,1.24-1.201,1.746c-0.504,0.504-1.086,0.904-1.744,1.199
						c-0.664,0.294-1.375,0.443-2.139,0.443c-0.768,0-1.49-0.148-2.164-0.443c-0.68-0.295-1.262-0.695-1.748-1.199
						c-0.488-0.506-0.881-1.088-1.174-1.746c-0.297-0.662-0.443-1.375-0.443-2.139V75.042z"/>
					<path fill="#01BFBE" d="M243.384,87.14c0,0.766-0.146,1.479-0.445,2.141c-0.293,0.658-0.684,1.24-1.17,1.746
						c-0.488,0.504-1.072,0.904-1.748,1.199c-0.678,0.294-1.398,0.44-2.164,0.44s-1.477-0.146-2.141-0.44
						c-0.658-0.295-1.242-0.695-1.746-1.199c-0.502-0.506-0.904-1.088-1.199-1.746c-0.295-0.662-0.441-1.375-0.441-2.141V65.603
						c0-0.763,0.146-1.477,0.441-2.138c0.295-0.661,0.697-1.245,1.199-1.747c0.504-0.503,1.088-0.904,1.746-1.199
						c0.664-0.295,1.375-0.443,2.141-0.443s1.486,0.148,2.164,0.443c0.676,0.295,1.26,0.696,1.748,1.199
						c0.486,0.502,0.877,1.086,1.17,1.747c0.299,0.662,0.445,1.375,0.445,2.138V87.14z"/>
					<path fill="#01BFBE" d="M255.406,76.348l-6.363-7.2c-0.873-0.971-1.306-2.154-1.306-3.545c0-1.566,0.531-2.875,1.59-3.939
						c1.061-1.059,2.373-1.588,3.939-1.588c0.801,0,1.575,0.156,2.323,0.466c0.746,0.314,1.379,0.803,1.902,1.461l4.85,6.104
						l4.799-6.104c0.523-0.695,1.16-1.189,1.93-1.484c0.762-0.295,1.547-0.443,2.346-0.443c1.563,0,2.875,0.529,3.936,1.588
						c1.063,1.064,1.59,2.373,1.59,3.939c0,1.391-0.434,2.574-1.301,3.545l-6.414,7.2l6.414,7.246
						c0.867,0.974,1.301,2.124,1.301,3.442c0,0.802-0.147,1.541-0.439,2.218c-0.297,0.678-0.701,1.268-1.201,1.774
						c-0.502,0.504-1.104,0.904-1.799,1.199c-0.695,0.294-1.428,0.44-2.189,0.44c-0.801,0-1.564-0.16-2.295-0.493
						c-0.732-0.331-1.354-0.826-1.877-1.487l-4.799-6.049l-4.797,6.049c-0.523,0.661-1.15,1.156-1.876,1.487
						c-0.732,0.333-1.498,0.493-2.296,0.493c-0.799,0-1.543-0.146-2.217-0.44c-0.68-0.295-1.27-0.695-1.778-1.199
						c-0.501-0.506-0.9-1.096-1.195-1.774c-0.299-0.677-0.445-1.416-0.445-2.218c0-1.318,0.433-2.468,1.306-3.442L255.406,76.348z"
						/>
					<path fill="#01BFBE" d="M310.635,82.708c-0.854,1.981-2.018,3.713-3.498,5.19c-1.473,1.476-3.203,2.642-5.186,3.494
						c-1.986,0.852-4.102,1.275-6.365,1.275c-2.258,0-4.369-0.423-6.336-1.275c-1.965-0.852-3.684-2.018-5.164-3.494
						c-1.473-1.477-2.639-3.209-3.49-5.19c-0.854-1.981-1.281-4.101-1.281-6.36c0-2.225,0.428-4.329,1.281-6.312
						c0.852-1.981,2.018-3.711,3.49-5.188c1.48-1.479,3.199-2.643,5.164-3.495c1.967-0.852,4.078-1.277,6.336-1.277
						c2.264,0,4.379,0.425,6.365,1.277c1.982,0.852,3.713,2.016,5.186,3.495c1.48,1.477,2.645,3.207,3.498,5.188
						c0.852,1.983,1.275,4.087,1.275,6.312C311.91,78.607,311.486,80.727,310.635,82.708 M299.291,80.05
						c1.01-1.01,1.512-2.242,1.512-3.703c0-1.461-0.502-2.696-1.512-3.704c-1.008-1.01-2.242-1.513-3.705-1.513
						c-1.459,0-2.691,0.503-3.701,1.513c-1.008,1.008-1.51,2.242-1.51,3.704c0,1.46,0.502,2.692,1.51,3.703
						c1.01,1.006,2.242,1.51,3.701,1.51C297.049,81.56,298.283,81.056,299.291,80.05"/>
					<path fill="#01BFBE" d="M315.84,75.042c0-2.053,0.393-3.988,1.172-5.814c0.783-1.824,1.855-3.416,3.209-4.773
						c1.354-1.355,2.947-2.423,4.771-3.207s3.764-1.172,5.813-1.172c2.086,0,4.045,0.389,5.869,1.172s3.414,1.851,4.773,3.207
						c1.354,1.357,2.424,2.949,3.203,4.773c0.785,1.826,1.176,3.762,1.176,5.814v12.1c0,0.764-0.146,1.477-0.443,2.139
						c-0.299,0.658-0.686,1.24-1.176,1.746c-0.486,0.504-1.066,0.904-1.747,1.199c-0.673,0.294-1.4,0.443-2.164,0.443
						c-0.763,0-1.478-0.148-2.138-0.443c-0.658-0.295-1.244-0.695-1.744-1.199c-0.508-0.506-0.904-1.088-1.204-1.746
						c-0.292-0.662-0.439-1.375-0.439-2.139v-12.1c0-1.076-0.391-2-1.176-2.766c-0.783-0.763-1.715-1.146-2.791-1.146
						c-1.076,0-1.996,0.383-2.766,1.146c-0.762,0.766-1.145,1.689-1.145,2.766v12.1c0,0.764-0.146,1.477-0.443,2.139
						c-0.293,0.658-0.695,1.24-1.198,1.746c-0.507,0.504-1.087,0.904-1.746,1.199c-0.664,0.294-1.375,0.443-2.143,0.443
						c-0.764,0-1.485-0.148-2.164-0.443c-0.674-0.295-1.26-0.695-1.746-1.199c-0.486-0.506-0.879-1.088-1.17-1.746
						c-0.299-0.662-0.445-1.375-0.445-2.139V75.042z"/>
					<path fill="#01BFBE" d="M381.072,82.708c-0.852,1.981-2.018,3.713-3.496,5.19c-1.475,1.476-3.205,2.642-5.186,3.494
						c-1.982,0.852-4.104,1.275-6.367,1.275c-2.258,0-4.369-0.423-6.334-1.275c-1.967-0.852-3.686-2.018-5.164-3.494
						c-1.475-1.477-2.641-3.209-3.492-5.19c-0.852-1.981-1.275-4.101-1.275-6.36c0-2.225,0.424-4.329,1.275-6.312
						c0.852-1.981,2.018-3.711,3.492-5.188c1.478-1.479,3.197-2.643,5.164-3.495c1.965-0.852,4.076-1.277,6.334-1.277
						c2.264,0,4.385,0.425,6.367,1.277c1.98,0.852,3.711,2.016,5.186,3.495c1.479,1.477,2.645,3.207,3.496,5.188
						c0.852,1.983,1.275,4.087,1.275,6.312C382.348,78.607,381.924,80.727,381.072,82.708 M369.73,80.05
						c1.008-1.01,1.51-2.242,1.51-3.703c0-1.461-0.502-2.696-1.51-3.704c-1.01-1.01-2.244-1.513-3.707-1.513
						c-1.459,0-2.691,0.503-3.701,1.513c-1.008,1.008-1.51,2.242-1.51,3.704c0,1.46,0.502,2.692,1.51,3.703
						c1.01,1.006,2.242,1.51,3.701,1.51C367.486,81.56,368.721,81.056,369.73,80.05"/>
					<path fill="#01BFBE" d="M143.651,83.807c0-2.26-1.713-4.118-3.907-4.345v-17.77c0-1.978-0.395-3.863-1.174-5.61
						c-0.74-1.649-1.736-3.13-2.965-4.401c-1.268-1.313-2.789-2.362-4.525-3.115c-1.762-0.77-3.655-1.158-5.622-1.158
						c-0.727,0-1.439,0.054-2.137,0.16c2.412-5.142,2.404-11.645-1.5-18.039c-0.244-0.4-0.514-0.783-0.807-1.15
						c2.74-7.191-2.43-21.535-5.033-19.537c-1.008,0.773-2.326,8.746-4.189,14.285c-2.889-0.695-5.698-0.675-8.292-0.078
						c-1.848-5.533-3.16-13.44-4.163-14.207c-2.617-2.009-7.824,12.486-4.994,19.642c-4.234,4.762-5.916,11.844-2.889,19.101
						c-0.732-0.116-1.482-0.177-2.246-0.177c-1.967,0-3.857,0.389-5.622,1.158c-1.74,0.758-3.261,1.804-4.529,3.117
						c-1.229,1.27-2.225,2.752-2.961,4.404c-0.777,1.735-1.172,3.619-1.172,5.605v17.748c-0.027,0-0.053-0.002-0.078-0.002
						c-2.412,0-4.367,1.953-4.367,4.368c0,2.411,1.955,4.364,4.367,4.364c0.133,0,0.264-0.007,0.393-0.02
						c0.387,2.793,1.129,5.492,2.232,8.066c1.676,3.915,4.006,7.377,6.924,10.295c2.918,2.918,6.383,5.248,10.295,6.925
						c3.941,1.689,8.178,2.545,12.592,2.545c4.481,0,8.749-0.855,12.69-2.545c3.914-1.678,7.379-4.007,10.298-6.925
						c2.918-2.918,5.248-6.381,6.926-10.295c1.102-2.567,1.842-5.266,2.229-8.054C141.772,88.091,143.651,86.169,143.651,83.807
						 M118.626,36.068c0.234,0.135,0.432,0.335,0.566,0.57c1.256,2.159-0.969,4.385-3.129,3.127
						c-0.234-0.135-0.434-0.334-0.568-0.566C114.239,37.04,116.466,34.811,118.626,36.068 M107.443,43.124
						c4.29,0,7.768-1.481,7.768,1.262c0,2.742-3.478,4.963-7.768,4.963c-4.289,0-7.768-2.221-7.768-4.963
						C99.676,41.643,103.154,43.124,107.443,43.124 M98.186,36.068c0.234,0.135,0.434,0.335,0.568,0.57
						c1.256,2.159-0.97,4.385-3.128,3.127c-0.236-0.135-0.434-0.334-0.57-0.566C93.801,37.04,96.025,34.811,98.186,36.068
						 M96.959,108.151c-3.236-1.39-6.094-3.308-8.492-5.706c-2.4-2.4-4.318-5.256-5.707-8.493c-1.379-3.222-2.08-6.694-2.08-10.323
						V61.693c0-1.168,0.225-2.264,0.67-3.256c0.465-1.041,1.086-1.968,1.848-2.758c0.74-0.765,1.645-1.385,2.689-1.839
						c1.047-0.455,2.135-0.678,3.322-0.678c1.182,0,2.246,0.221,3.256,0.67c1.027,0.458,1.947,1.091,2.73,1.876
						c0.783,0.782,1.414,1.702,1.875,2.731c0.443,0.993,0.668,2.088,0.668,3.254v21.936c0,0.036,0.006,0.071,0.006,0.106v0.067
						c0,0,0.066,3.719,0.098,3.999c0.414,6.14,2.617,17.642,12.81,22.22c-1.104,0.136-2.227,0.209-3.368,0.209
						C103.654,110.23,100.18,109.529,96.959,108.151 M133.988,83.628c0,3.629-0.701,7.1-2.082,10.323
						c-1.387,3.237-3.306,6.093-5.704,8.493c-1.623,1.623-3.461,3.021-5.48,4.189c-6.578-0.904-14.985-3.959-18.331-14.135
						l-0.242-0.82c1.51,0.986,3.229,1.49,5.135,1.49c2.61,0,4.892-0.935,6.778-2.781c1.902-1.855,2.867-4.13,2.867-6.76V61.693
						c0-1.168,0.225-2.264,0.668-3.256c0.461-1.027,1.09-1.947,1.875-2.732c0.781-0.781,1.701-1.41,2.732-1.873
						c1.006-0.45,2.07-0.67,3.254-0.67c1.171,0,2.289,0.229,3.324,0.678c1.055,0.462,1.935,1.064,2.688,1.842
						c0.76,0.785,1.381,1.715,1.85,2.757c0.441,0.993,0.668,2.088,0.668,3.254V83.628z"/>
				</g>
			</g>
		</g>
	</g>
</g>
</svg>
