<?xml version="1.0" encoding="UTF-8" standalone="no"?>
<!-- Generator: Adobe Illustrator 16.0.0, SVG Export Plug-In . SVG Version: 6.00 Build 0)  -->

<svg
   xmlns:dc="http://purl.org/dc/elements/1.1/"
   xmlns:cc="http://creativecommons.org/ns#"
   xmlns:rdf="http://www.w3.org/1999/02/22-rdf-syntax-ns#"
   xmlns:svg="http://www.w3.org/2000/svg"
   xmlns="http://www.w3.org/2000/svg"
   xmlns:sodipodi="http://sodipodi.sourceforge.net/DTD/sodipodi-0.dtd"
   xmlns:inkscape="http://www.inkscape.org/namespaces/inkscape"
   version="1.1"
   x="0px"
   y="0px"
   width="99.029045"
   height="98.674515"
   viewBox="0 0 99.029045 98.674511"
   enable-background="new 0 0 99.042 98.688"
   xml:space="preserve"
   id="svg20"
   sodipodi:docname="isotipo calendario-53.svg"
   inkscape:version="0.92.1 r15371"><metadata
     id="metadata26"><rdf:RDF><cc:Work
         rdf:about=""><dc:format>image/svg+xml</dc:format><dc:type
           rdf:resource="http://purl.org/dc/dcmitype/StillImage" /></cc:Work></rdf:RDF></metadata><defs
     id="defs24" /><sodipodi:namedview
     pagecolor="#ffffff"
     bordercolor="#666666"
     borderopacity="1"
     objecttolerance="10"
     gridtolerance="10"
     guidetolerance="10"
     inkscape:pageopacity="0"
     inkscape:pageshadow="2"
     inkscape:window-width="1920"
     inkscape:window-height="1032"
     id="namedview22"
     showgrid="false"
     inkscape:zoom="6.7638292"
     inkscape:cx="20.611912"
     inkscape:cy="53.809808"
     inkscape:window-x="0"
     inkscape:window-y="0"
     inkscape:window-maximized="1"
     inkscape:current-layer="layer1" /><g
     id="Layer_2"
     transform="translate(-0.24764979,-0.0067429)" /><g
     inkscape:groupmode="layer"
     id="layer1"
     inkscape:label="Fondo"
     transform="translate(-0.24764979,-0.0067429)"><path
       style="fill:#ffffff;fill-opacity:1;stroke:#000000;stroke-width:0;stroke-linecap:butt;stroke-linejoin:miter;stroke-miterlimit:4;stroke-dasharray:none;stroke-opacity:1"
       d="M 4.2836498,10.468795 4.114565,79.358287 20.8798,95.588051 82.02165,94.424795 81.900612,80.874077 94.894805,81.01377 81.87365,10.355795 h -8.582 l 0.213345,12.202638 -3.751852,-0.131982 -0.235029,-12.18554 -15.202464,0.110884 0.782679,11.439492 -4.615398,-0.01109 -0.08663,-11.663154 -14.967587,-0.03036 0.301688,12.033905 -4.147277,0.0088 -0.147573,-11.98964 -14.907962,-0.03408 0.130187,12.377918 -4.114361,-0.234108 -0.10284,-12.124194 -8.1569262,0.34351"
       id="path4544"
       inkscape:connector-curvature="0"
       sodipodi:nodetypes="cccccccccccccccccccccccc" /></g><g
     inkscape:groupmode="layer"
     id="layer2"
     inkscape:label="Logo"
     transform="translate(-0.24764979,-0.0067429)"><g
       transform="translate(0.24764977,0.00379512)"
       id="Layer_1"><g
         id="g17"><g
           id="g15"><path
             style="clip-rule:evenodd;fill:#9b9ae6;fill-rule:evenodd;stroke:#9b9ae6;stroke-width:1.59599996;stroke-miterlimit:10"
             inkscape:connector-curvature="0"
             stroke-miterlimit="10"
             d="m 12.801,7.025 c 0,-1.441 -0.002,-2.74 10e-4,-4.037 0.002,-0.289 -0.008,-0.59 0.045,-0.873 0.146,-0.768 0.81,-1.301 1.586,-1.311 0.762,-0.008 1.418,0.527 1.566,1.316 0.058,0.309 0.063,0.631 0.063,0.947 0.008,1.271 0.003,2.545 0.003,3.793 0.619,0.195 14.639,0.248 15.692,0.066 0.016,-0.266 0.044,-0.551 0.047,-0.836 0.006,-1.221 -0.028,-2.443 0.014,-3.664 0.044,-1.256 1.227,-1.99 2.299,-1.451 0.62,0.311 0.927,0.848 0.925,1.553 -0.004,1.164 0,2.334 0,3.502 0.002,0.285 0,0.572 0,0.84 0.629,0.182 14.587,0.236 15.717,0.068 0.012,-0.262 0.034,-0.545 0.034,-0.828 0.006,-1.246 -0.015,-2.494 0.014,-3.742 0.018,-0.787 0.462,-1.301 1.192,-1.498 0.658,-0.178 1.383,0.061 1.729,0.662 0.175,0.305 0.266,0.695 0.274,1.053 0.034,1.166 0.015,2.334 0.015,3.502 0,0.262 0,0.523 0,0.768 0.592,0.199 14.413,0.273 15.702,0.092 0.015,-0.262 0.042,-0.543 0.044,-0.822 0.006,-1.195 0.002,-2.389 0.003,-3.582 0.003,-0.693 0.263,-1.242 0.905,-1.559 1.085,-0.537 2.27,0.176 2.312,1.43 0.042,1.219 0.011,2.439 0.013,3.66 0,0.283 0,0.566 0,0.951 0.391,0 0.675,0.002 0.96,0 2.946,0 5.892,0 8.837,0.002 0.266,0 0.533,-0.008 0.795,0.027 0.792,0.107 1.299,0.605 1.422,1.393 0.037,0.232 0.026,0.477 0.026,0.715 0.001,6.396 -0.007,12.793 0.013,19.188 0.002,0.682 0.089,1.379 0.252,2.041 3.038,12.309 6.094,24.615 9.146,36.922 1.238,4.996 2.456,9.996 3.722,14.984 0.215,0.846 -0.031,1.459 -0.617,1.988 -0.179,0.16 -0.46,0.27 -0.7,0.285 -0.977,0.059 -1.956,0.088 -2.935,0.098 -0.474,0.006 -0.949,-0.082 -1.423,-0.08 -0.582,0.004 -1.16,0.078 -1.741,0.082 -1.566,0.012 -3.131,0.004 -4.697,0.004 -0.29,0 -0.58,0 -0.97,0 -0.019,0.363 -0.045,0.67 -0.045,0.975 -0.005,3.291 -0.002,6.584 -0.005,9.873 0,0.266 0.013,0.535 -0.032,0.795 -0.133,0.764 -0.687,1.273 -1.472,1.33 -0.556,0.039 -1.114,0.023 -1.671,0.025 -20.675,0.041 -41.352,0.08 -62.025,0.119 -0.292,0 -0.598,-0.039 -0.873,0.033 C 18.168,98.033 17.582,97.73 17.039,97.181 14.777,94.904 12.494,92.644 10.234,90.363 8.687,88.8 7.177,87.199 5.623,85.64 4.275,84.292 2.896,82.976 1.519,81.66 1.003,81.17 0.757,80.627 0.808,79.894 0.864,79.049 0.8,78.197 0.8,77.35 0.798,60.76 0.798,44.172 0.798,27.584 c 0,-2.225 0,-4.451 0,-6.676 0,-3.951 0,-7.904 0.002,-11.857 C 0.801,7.59 1.356,7.029 2.821,7.027 5.795,7.021 8.766,7.025 11.739,7.025 c 0.312,0 0.625,0 1.062,0 z m 7.266,87.539 c 20.621,-0.045 41.119,-0.094 61.707,-0.143 0,-0.549 0,-1.016 0,-1.486 0,-10.881 -0.002,-21.76 0.002,-32.641 0,-0.818 0.031,-1.637 0.048,-2.457 0.018,-0.896 0.055,-1.793 0.047,-2.691 -0.017,-1.742 -0.089,-3.486 -0.092,-5.229 -0.013,-5.865 -0.003,-11.73 -0.007,-17.594 0,-0.359 -0.037,-0.723 -0.055,-1.057 C 81.557,31.215 81.484,31.174 81.41,31.174 55.828,31.166 30.246,31.16 4.665,31.158 c -0.157,0 -0.313,0.033 -0.471,0.057 -0.022,0.002 -0.045,0.023 -0.066,0.037 -0.018,0.018 -0.032,0.043 -0.052,0.068 0,15.371 0,30.75 0,46.205 0.373,0 0.684,0 0.998,0 4.112,0 8.226,0 12.339,0 0.371,0 0.743,-0.012 1.114,0.012 0.831,0.051 1.433,0.627 1.525,1.455 0.027,0.238 0.014,0.477 0.014,0.717 0,4.617 0,9.236 0,13.852 0.001,0.293 0.001,0.582 0.001,1.003 z M 4.036,27.813 c 25.965,0 51.801,0 77.625,0 0.184,-0.859 0.149,-16.844 -0.035,-17.461 -2.84,0 -5.688,0 -8.582,0 0,1.215 0,2.369 0,3.496 3.145,1.646 4.421,3.934 3.772,6.699 -0.597,2.545 -2.798,4.32 -5.397,4.354 -2.586,0.033 -4.831,-1.654 -5.502,-4.115 -0.341,-1.25 -0.268,-2.473 0.229,-3.662 0.686,-1.639 1.947,-2.674 3.568,-3.264 0,-1.189 0,-2.32 0,-3.512 -5.23,0 -10.414,0 -15.646,0 0,1.203 0,2.359 0,3.504 3.493,1.498 4.361,4.232 3.566,7.23 -0.537,2.018 -2.591,3.84 -5.289,3.824 -2.563,-0.018 -4.878,-1.701 -5.417,-4.209 -0.522,-2.432 -0.013,-5.283 3.825,-6.895 0,-1.127 0,-2.26 0,-3.379 -0.838,-0.217 -15.052,-0.18 -15.671,0.037 0,1.123 0,2.254 0,3.361 2.151,1.262 2.685,1.723 3.228,2.777 0.685,1.326 0.961,2.734 0.473,4.156 -0.845,2.461 -2.715,4.182 -5.482,4.145 -2.504,-0.035 -4.701,-1.701 -5.359,-4.1 -0.333,-1.221 -0.275,-2.424 0.193,-3.594 0.676,-1.672 1.942,-2.742 3.576,-3.326 0.164,-0.963 0.127,-2.963 -0.051,-3.516 -1.313,-0.199 -15.001,-0.113 -15.55,0.104 0,1.129 0,2.264 0,3.373 3.167,1.723 4.392,3.928 3.759,6.711 -0.551,2.432 -2.694,4.229 -5.168,4.336 C 12.067,25 9.836,23.48 9.028,21.01 8.635,19.811 8.656,18.61 9.079,17.416 c 0.636,-1.799 1.957,-2.908 3.723,-3.576 0,-0.611 0,-1.166 0,-1.723 0,-0.576 0,-1.148 0,-1.695 -0.981,-0.215 -8.141,-0.172 -8.766,0.043 0,5.754 0,11.523 0,17.348 z m 81.172,15.671 c -0.042,0.006 -0.084,0.01 -0.126,0.016 -0.015,0.117 -0.04,0.238 -0.042,0.355 -0.044,2.172 -0.119,4.342 -0.115,6.514 0.006,2.832 0.104,5.662 0.111,8.494 0.016,7.213 0.002,14.428 0.004,21.641 0,0.279 0.031,0.559 0.053,0.9 3.195,-0.033 6.299,0.047 9.49,-0.018 C 91.437,68.66 88.322,56.074 85.208,43.484 Z M 16.8,80.811 c -3.848,0 -7.607,0 -11.52,0 0.868,0.875 1.623,1.646 2.39,2.406 2.984,2.967 5.972,5.932 8.962,8.893 0.012,0.014 0.05,0.014 0.071,0.008 0.025,-0.006 0.046,-0.027 0.097,-0.061 0,-3.707 0,-7.436 0,-11.246 z M 52.335,21.666 c 1.385,-0.057 2.556,-1.252 2.475,-2.527 -0.075,-1.207 -1.33,-2.297 -2.565,-2.234 -1.221,0.061 -2.423,1.227 -2.361,2.367 0.056,1.111 1.277,2.712 2.451,2.394 z M 16.749,19.402 c 0.051,-1.336 -0.936,-2.43 -2.253,-2.498 -1.294,-0.064 -2.438,0.971 -2.5,2.268 -0.065,1.297 0.973,2.432 2.271,2.486 1.328,0.057 2.431,-0.947 2.482,-2.256 z m 54.545,2.256 c 1.307,0.027 2.4,-1.023 2.432,-2.332 0.03,-1.281 -1.055,-2.402 -2.349,-2.426 -1.298,-0.023 -2.392,1.037 -2.414,2.342 -0.024,1.326 1.007,2.393 2.331,2.416 z M 35.735,19.33 c 0.019,-1.324 -1.007,-2.393 -2.326,-2.426 -1.29,-0.035 -2.415,1.049 -2.423,2.338 -0.007,1.334 1.021,2.396 2.333,2.416 1.333,0.022 2.398,-1.006 2.416,-2.328 z"
             id="path3" /><g
             id="g7"><path
               style="fill:#9b9ae6"
               inkscape:connector-curvature="0"
               d="m 23.096,53.044 c -0.002,0.029 -0.028,-0.332 -0.001,-0.81 0.034,-0.495 0.136,-1.197 0.462,-2.026 0.328,-0.818 0.903,-1.795 1.913,-2.613 0.5,-0.406 1.107,-0.75 1.768,-0.991 0.661,-0.235 1.36,-0.347 2.037,-0.363 l 0.128,-0.005 0.032,-0.002 0.183,0.007 0.043,0.003 0.173,0.015 0.345,0.027 0.186,0.022 0.289,0.053 0.571,0.125 c 0.713,0.197 1.279,0.473 1.826,0.824 0.53,0.352 0.972,0.764 1.329,1.181 0.35,0.422 0.624,0.845 0.829,1.246 0.405,0.807 0.571,1.506 0.645,2.003 0.043,0.246 0.047,0.451 0.059,0.591 0.007,0.161 0.011,0.246 0.011,0.246 0.016,0.372 -0.272,0.686 -0.644,0.702 -0.014,0 -0.027,0 -0.04,0 l -1.751,-0.034 c 0.002,0.003 -0.025,-10e-4 -0.09,-0.071 -0.063,-0.065 -0.157,-0.162 -0.276,-0.286 -0.241,-0.246 -0.585,-0.595 -0.994,-0.912 -0.201,-0.161 -0.421,-0.306 -0.639,-0.441 -0.114,-0.059 -0.226,-0.113 -0.333,-0.177 -0.119,-0.035 -0.225,-0.092 -0.336,-0.134 -0.214,-0.063 -0.479,-0.138 -0.651,-0.152 -0.035,0 -0.068,-0.004 -0.101,-0.012 L 30.02,51.044 C 29.991,51.039 29.913,51.041 29.862,51.038 L 29.516,51.02 29.343,51.011 29.3,51.009 29.289,51.008 h -0.005 c -0.145,-0.005 0.191,0.006 0.155,0.005 l -0.011,0.002 -0.045,0.007 c -0.117,0.025 -0.244,0.008 -0.356,0.024 -0.103,0.035 -0.216,0.035 -0.319,0.057 -0.2,0.06 -0.404,0.11 -0.606,0.212 -0.204,0.097 -0.422,0.215 -0.626,0.375 -0.213,0.146 -0.42,0.322 -0.608,0.507 -0.195,0.177 -0.376,0.365 -0.535,0.538 -0.16,0.181 -0.299,0.339 -0.414,0.469 -0.236,0.288 -0.36,0.381 -0.362,0.409 -0.157,0.68 -0.835,1.103 -1.514,0.945 -0.682,-0.158 -1.105,-0.835 -0.947,-1.514 z"
               id="path5" /></g><g
             id="g11"><path
               style="fill:#9b9ae6"
               inkscape:connector-curvature="0"
               d="m 51.174,53.044 c -0.002,0.029 -0.028,-0.332 -10e-4,-0.81 0.034,-0.495 0.136,-1.196 0.462,-2.026 0.329,-0.818 0.904,-1.795 1.914,-2.613 0.5,-0.406 1.107,-0.75 1.768,-0.991 0.662,-0.235 1.36,-0.347 2.038,-0.363 l 0.128,-0.006 0.032,-10e-4 0.182,0.007 0.043,0.004 0.173,0.014 0.345,0.027 0.186,0.022 0.289,0.053 0.57,0.125 c 0.713,0.197 1.279,0.473 1.826,0.824 0.529,0.352 0.971,0.764 1.329,1.181 0.35,0.422 0.624,0.845 0.828,1.246 0.406,0.807 0.571,1.506 0.646,2.003 0.043,0.246 0.047,0.451 0.059,0.591 0.005,0.16 0.009,0.245 0.009,0.245 0.016,0.37 -0.271,0.685 -0.642,0.7 -0.013,0 -0.026,10e-4 -0.04,0 l -1.753,-0.032 c 0.002,0.003 -0.025,-10e-4 -0.089,-0.071 -0.064,-0.065 -0.158,-0.162 -0.277,-0.285 -0.241,-0.247 -0.585,-0.596 -0.994,-0.912 -0.201,-0.162 -0.421,-0.307 -0.639,-0.441 -0.114,-0.059 -0.226,-0.113 -0.333,-0.177 -0.119,-0.036 -0.226,-0.093 -0.336,-0.134 -0.214,-0.063 -0.479,-0.139 -0.652,-0.153 -0.035,0 -0.068,-0.004 -0.101,-0.012 L 58.095,51.044 C 58.068,51.038 57.989,51.04 57.938,51.037 L 57.592,51.019 57.419,51.01 57.375,51.008 57.364,51.007 H 57.36 c 0.069,0.002 -0.164,-0.006 0.154,0.005 l -0.011,0.002 -0.045,0.007 c -0.117,0.025 -0.244,0.009 -0.355,0.024 -0.103,0.034 -0.216,0.035 -0.32,0.057 -0.199,0.059 -0.403,0.11 -0.606,0.212 -0.204,0.097 -0.421,0.215 -0.626,0.374 -0.212,0.146 -0.42,0.323 -0.607,0.508 -0.195,0.177 -0.376,0.364 -0.535,0.537 -0.16,0.182 -0.299,0.34 -0.414,0.47 -0.236,0.288 -0.36,0.381 -0.362,0.409 -0.157,0.68 -0.835,1.103 -1.514,0.945 -0.68,-0.157 -1.102,-0.834 -0.945,-1.513 z"
               id="path9" /></g><path
             style="fill:none;stroke:#9b9ae6;stroke-width:3.99000001;stroke-linecap:round;stroke-linejoin:round;stroke-miterlimit:10"
             inkscape:connector-curvature="0"
             stroke-miterlimit="10"
             d="m 58.21,60.207 c 0,6.959 -6.744,12.598 -15.063,12.598 -8.319,0 -15.065,-5.639 -15.065,-12.598"
             id="path13" /></g></g></g></g></svg>