<?xml version="1.0" encoding="utf-8"?>
<!-- Generator: Adobe Illustrator 16.0.0, SVG Export Plug-In . SVG Version: 6.00 Build 0)  -->
<!DOCTYPE svg PUBLIC "-//W3C//DTD SVG 1.1//EN" "http://www.w3.org/Graphics/SVG/1.1/DTD/svg11.dtd">
<svg version="1.1" xmlns="http://www.w3.org/2000/svg" xmlns:xlink="http://www.w3.org/1999/xlink" x="0px" y="0px"
	 width="99.042px" height="98.688px" viewBox="0 0 99.042 98.688" enable-background="new 0 0 99.042 98.688" xml:space="preserve">
<g id="Layer_2">
</g>
<g id="Layer_1">
	<g>
		<g>
			<path fill-rule="evenodd" clip-rule="evenodd" fill="#9B9AE6" stroke="#9B9AE6" stroke-width="1.596" stroke-miterlimit="10" d="
				M12.801,7.025c0-1.441-0.002-2.74,0.001-4.037c0.002-0.289-0.008-0.59,0.045-0.873c0.146-0.768,0.81-1.301,1.586-1.311
				c0.762-0.008,1.418,0.527,1.566,1.316c0.058,0.309,0.063,0.631,0.063,0.947c0.008,1.271,0.003,2.545,0.003,3.793
				c0.619,0.195,14.639,0.248,15.692,0.066c0.016-0.266,0.044-0.551,0.047-0.836c0.006-1.221-0.028-2.443,0.014-3.664
				c0.044-1.256,1.227-1.99,2.299-1.451c0.62,0.311,0.927,0.848,0.925,1.553c-0.004,1.164,0,2.334,0,3.502
				c0.002,0.285,0,0.572,0,0.84c0.629,0.182,14.587,0.236,15.717,0.068c0.012-0.262,0.034-0.545,0.034-0.828
				c0.006-1.246-0.015-2.494,0.014-3.742c0.018-0.787,0.462-1.301,1.192-1.498c0.658-0.178,1.383,0.061,1.729,0.662
				c0.175,0.305,0.266,0.695,0.274,1.053c0.034,1.166,0.015,2.334,0.015,3.502c0,0.262,0,0.523,0,0.768
				c0.592,0.199,14.413,0.273,15.702,0.092c0.015-0.262,0.042-0.543,0.044-0.822c0.006-1.195,0.002-2.389,0.003-3.582
				c0.003-0.693,0.263-1.242,0.905-1.559c1.085-0.537,2.27,0.176,2.312,1.43c0.042,1.219,0.011,2.439,0.013,3.66
				c0,0.283,0,0.566,0,0.951c0.391,0,0.675,0.002,0.96,0c2.946,0,5.892,0,8.837,0.002c0.266,0,0.533-0.008,0.795,0.027
				c0.792,0.107,1.299,0.605,1.422,1.393c0.037,0.232,0.026,0.477,0.026,0.715c0.001,6.396-0.007,12.793,0.013,19.188
				c0.002,0.682,0.089,1.379,0.252,2.041c3.038,12.309,6.094,24.615,9.146,36.922c1.238,4.996,2.456,9.996,3.722,14.984
				c0.215,0.846-0.031,1.459-0.617,1.988c-0.179,0.16-0.46,0.27-0.7,0.285c-0.977,0.059-1.956,0.088-2.935,0.098
				c-0.474,0.006-0.949-0.082-1.423-0.08c-0.582,0.004-1.16,0.078-1.741,0.082c-1.566,0.012-3.131,0.004-4.697,0.004
				c-0.29,0-0.58,0-0.97,0c-0.019,0.363-0.045,0.67-0.045,0.975c-0.005,3.291-0.002,6.584-0.005,9.873
				c0,0.266,0.013,0.535-0.032,0.795c-0.133,0.764-0.687,1.273-1.472,1.33c-0.556,0.039-1.114,0.023-1.671,0.025
				c-20.675,0.041-41.352,0.08-62.025,0.119c-0.292,0-0.598-0.039-0.873,0.033c-0.795,0.209-1.381-0.094-1.924-0.643
				c-2.262-2.277-4.545-4.537-6.805-6.818c-1.547-1.563-3.057-3.164-4.611-4.723c-1.348-1.348-2.727-2.664-4.104-3.98
				c-0.516-0.49-0.762-1.033-0.711-1.766C0.864,79.049,0.8,78.197,0.8,77.35C0.798,60.76,0.798,44.172,0.798,27.584
				c0-2.225,0-4.451,0-6.676c0-3.951,0-7.904,0.002-11.857C0.801,7.59,1.356,7.029,2.821,7.027c2.974-0.006,5.945-0.002,8.918-0.002
				C12.051,7.025,12.364,7.025,12.801,7.025z M20.067,94.564c20.621-0.045,41.119-0.094,61.707-0.143c0-0.549,0-1.016,0-1.486
				c0-10.881-0.002-21.76,0.002-32.641c0-0.818,0.031-1.637,0.048-2.457c0.018-0.896,0.055-1.793,0.047-2.691
				c-0.017-1.742-0.089-3.486-0.092-5.229c-0.013-5.865-0.003-11.73-0.007-17.594c0-0.359-0.037-0.723-0.055-1.057
				c-0.16-0.051-0.233-0.092-0.307-0.092c-25.582-0.008-51.164-0.014-76.745-0.016c-0.157,0-0.313,0.033-0.471,0.057
				c-0.022,0.002-0.045,0.023-0.066,0.037c-0.018,0.018-0.032,0.043-0.052,0.068c0,15.371,0,30.75,0,46.205c0.373,0,0.684,0,0.998,0
				c4.112,0,8.226,0,12.339,0c0.371,0,0.743-0.012,1.114,0.012c0.831,0.051,1.433,0.627,1.525,1.455
				c0.027,0.238,0.014,0.477,0.014,0.717c0,4.617,0,9.236,0,13.852C20.067,93.854,20.067,94.143,20.067,94.564z M4.036,27.813
				c25.965,0,51.801,0,77.625,0c0.184-0.859,0.149-16.844-0.035-17.461c-2.84,0-5.688,0-8.582,0c0,1.215,0,2.369,0,3.496
				c3.145,1.646,4.421,3.934,3.772,6.699c-0.597,2.545-2.798,4.32-5.397,4.354c-2.586,0.033-4.831-1.654-5.502-4.115
				c-0.341-1.25-0.268-2.473,0.229-3.662c0.686-1.639,1.947-2.674,3.568-3.264c0-1.189,0-2.32,0-3.512c-5.23,0-10.414,0-15.646,0
				c0,1.203,0,2.359,0,3.504c3.493,1.498,4.361,4.232,3.566,7.23c-0.537,2.018-2.591,3.84-5.289,3.824
				c-2.563-0.018-4.878-1.701-5.417-4.209c-0.522-2.432-0.013-5.283,3.825-6.895c0-1.127,0-2.26,0-3.379
				c-0.838-0.217-15.052-0.18-15.671,0.037c0,1.123,0,2.254,0,3.361c2.151,1.262,2.685,1.723,3.228,2.777
				c0.685,1.326,0.961,2.734,0.473,4.156c-0.845,2.461-2.715,4.182-5.482,4.145c-2.504-0.035-4.701-1.701-5.359-4.1
				c-0.333-1.221-0.275-2.424,0.193-3.594c0.676-1.672,1.942-2.742,3.576-3.326c0.164-0.963,0.127-2.963-0.051-3.516
				c-1.313-0.199-15.001-0.113-15.55,0.104c0,1.129,0,2.264,0,3.373c3.167,1.723,4.392,3.928,3.759,6.711
				c-0.551,2.432-2.694,4.229-5.168,4.336C12.067,25,9.836,23.48,9.028,21.01c-0.393-1.199-0.372-2.4,0.051-3.594
				c0.636-1.799,1.957-2.908,3.723-3.576c0-0.611,0-1.166,0-1.723c0-0.576,0-1.148,0-1.695c-0.981-0.215-8.141-0.172-8.766,0.043
				C4.036,16.219,4.036,21.988,4.036,27.813z M85.208,43.484c-0.042,0.006-0.084,0.01-0.126,0.016
				c-0.015,0.117-0.04,0.238-0.042,0.355c-0.044,2.172-0.119,4.342-0.115,6.514c0.006,2.832,0.104,5.662,0.111,8.494
				c0.016,7.213,0.002,14.428,0.004,21.641c0,0.279,0.031,0.559,0.053,0.9c3.195-0.033,6.299,0.047,9.49-0.018
				C91.437,68.66,88.322,56.074,85.208,43.484z M16.8,80.811c-3.848,0-7.607,0-11.52,0c0.868,0.875,1.623,1.646,2.39,2.406
				c2.984,2.967,5.972,5.932,8.962,8.893c0.012,0.014,0.05,0.014,0.071,0.008c0.025-0.006,0.046-0.027,0.097-0.061
				C16.8,88.35,16.8,84.621,16.8,80.811z M52.335,21.666c1.385-0.057,2.556-1.252,2.475-2.527c-0.075-1.207-1.33-2.297-2.565-2.234
				c-1.221,0.061-2.423,1.227-2.361,2.367C49.94,20.383,51.161,21.984,52.335,21.666z M16.749,19.402
				c0.051-1.336-0.936-2.43-2.253-2.498c-1.294-0.064-2.438,0.971-2.5,2.268c-0.065,1.297,0.973,2.432,2.271,2.486
				C15.595,21.715,16.698,20.711,16.749,19.402z M71.294,21.658c1.307,0.027,2.4-1.023,2.432-2.332
				c0.03-1.281-1.055-2.402-2.349-2.426c-1.298-0.023-2.392,1.037-2.414,2.342C68.939,20.568,69.97,21.635,71.294,21.658z
				 M35.735,19.33c0.019-1.324-1.007-2.393-2.326-2.426c-1.29-0.035-2.415,1.049-2.423,2.338c-0.007,1.334,1.021,2.396,2.333,2.416
				C34.652,21.68,35.717,20.652,35.735,19.33z"/>
			<g>
				<path fill="#9B9AE6" d="M23.096,53.044c-0.002,0.029-0.028-0.332-0.001-0.81c0.034-0.495,0.136-1.197,0.462-2.026
					c0.328-0.818,0.903-1.795,1.913-2.613c0.5-0.406,1.107-0.75,1.768-0.991c0.661-0.235,1.36-0.347,2.037-0.363l0.128-0.005
					l0.032-0.002l0.183,0.007l0.043,0.003l0.173,0.015l0.345,0.027l0.186,0.022l0.289,0.053l0.571,0.125
					c0.713,0.197,1.279,0.473,1.826,0.824c0.53,0.352,0.972,0.764,1.329,1.181c0.35,0.422,0.624,0.845,0.829,1.246
					c0.405,0.807,0.571,1.506,0.645,2.003c0.043,0.246,0.047,0.451,0.059,0.591c0.007,0.161,0.011,0.246,0.011,0.246
					c0.016,0.372-0.272,0.686-0.644,0.702c-0.014,0-0.027,0-0.04,0l-1.751-0.034c0.002,0.003-0.025-0.001-0.09-0.071
					c-0.063-0.065-0.157-0.162-0.276-0.286c-0.241-0.246-0.585-0.595-0.994-0.912c-0.201-0.161-0.421-0.306-0.639-0.441
					c-0.114-0.059-0.226-0.113-0.333-0.177c-0.119-0.035-0.225-0.092-0.336-0.134c-0.214-0.063-0.479-0.138-0.651-0.152
					c-0.035,0-0.068-0.004-0.101-0.012l-0.049-0.016c-0.029-0.005-0.107-0.003-0.158-0.006l-0.346-0.018l-0.173-0.009l-0.043-0.002
					l-0.011-0.001h-0.005c-0.145-0.005,0.191,0.006,0.155,0.005l-0.011,0.002l-0.045,0.007c-0.117,0.025-0.244,0.008-0.356,0.024
					c-0.103,0.035-0.216,0.035-0.319,0.057c-0.2,0.06-0.404,0.11-0.606,0.212c-0.204,0.097-0.422,0.215-0.626,0.375
					c-0.213,0.146-0.42,0.322-0.608,0.507c-0.195,0.177-0.376,0.365-0.535,0.538c-0.16,0.181-0.299,0.339-0.414,0.469
					c-0.236,0.288-0.36,0.381-0.362,0.409c-0.157,0.68-0.835,1.103-1.514,0.945C23.361,54.4,22.938,53.723,23.096,53.044z"/>
			</g>
			<g>
				<path fill="#9B9AE6" d="M51.174,53.044c-0.002,0.029-0.028-0.332-0.001-0.81c0.034-0.495,0.136-1.196,0.462-2.026
					c0.329-0.818,0.904-1.795,1.914-2.613c0.5-0.406,1.107-0.75,1.768-0.991c0.662-0.235,1.36-0.347,2.038-0.363l0.128-0.006
					l0.032-0.001l0.182,0.007l0.043,0.004l0.173,0.014l0.345,0.027l0.186,0.022l0.289,0.053l0.57,0.125
					c0.713,0.197,1.279,0.473,1.826,0.824c0.529,0.352,0.971,0.764,1.329,1.181c0.35,0.422,0.624,0.845,0.828,1.246
					c0.406,0.807,0.571,1.506,0.646,2.003c0.043,0.246,0.047,0.451,0.059,0.591C63.996,52.491,64,52.576,64,52.576
					c0.016,0.37-0.271,0.685-0.642,0.7c-0.013,0-0.026,0.001-0.04,0l-1.753-0.032c0.002,0.003-0.025-0.001-0.089-0.071
					c-0.064-0.065-0.158-0.162-0.277-0.285c-0.241-0.247-0.585-0.596-0.994-0.912c-0.201-0.162-0.421-0.307-0.639-0.441
					c-0.114-0.059-0.226-0.113-0.333-0.177c-0.119-0.036-0.226-0.093-0.336-0.134c-0.214-0.063-0.479-0.139-0.652-0.153
					c-0.035,0-0.068-0.004-0.101-0.012l-0.049-0.015c-0.027-0.006-0.106-0.004-0.157-0.007l-0.346-0.018l-0.173-0.009l-0.044-0.002
					l-0.011-0.001H57.36c0.069,0.002-0.164-0.006,0.154,0.005l-0.011,0.002l-0.045,0.007c-0.117,0.025-0.244,0.009-0.355,0.024
					c-0.103,0.034-0.216,0.035-0.32,0.057c-0.199,0.059-0.403,0.11-0.606,0.212c-0.204,0.097-0.421,0.215-0.626,0.374
					c-0.212,0.146-0.42,0.323-0.607,0.508c-0.195,0.177-0.376,0.364-0.535,0.537c-0.16,0.182-0.299,0.34-0.414,0.47
					c-0.236,0.288-0.36,0.381-0.362,0.409c-0.157,0.68-0.835,1.103-1.514,0.945C51.439,54.4,51.017,53.723,51.174,53.044z"/>
			</g>
			
				<path fill="none" stroke="#9B9AE6" stroke-width="3.99" stroke-linecap="round" stroke-linejoin="round" stroke-miterlimit="10" d="
				M58.21,60.207c0,6.959-6.744,12.598-15.063,12.598s-15.065-5.639-15.065-12.598"/>
		</g>
	</g>
</g>
</svg>
