<?xml version="1.0" encoding="utf-8"?>
<!-- Generator: Adobe Illustrator 16.0.0, SVG Export Plug-In . SVG Version: 6.00 Build 0)  -->
<!DOCTYPE svg PUBLIC "-//W3C//DTD SVG 1.1//EN" "http://www.w3.org/Graphics/SVG/1.1/DTD/svg11.dtd">
<svg version="1.1" xmlns="http://www.w3.org/2000/svg" xmlns:xlink="http://www.w3.org/1999/xlink" x="0px" y="0px"
	 width="629.273px" height="275.909px" viewBox="0 0 629.273 275.909" enable-background="new 0 0 629.273 275.909"
	 xml:space="preserve">
<g id="Layer_2">
</g>
<g id="Layer_1">
	<g>
		<g>
			<g>
				<path fill="#7BCEE9" d="M0,103.542V0h26.241c9.338,0,16.414,2.287,21.227,6.86c4.811,4.572,7.217,11.311,7.217,20.218
					c0,5.308-1.232,9.927-3.697,13.858c-2.465,3.932-5.879,6.774-10.24,8.529c5.025,1.282,9.09,4.209,12.195,8.788
					c3.105,4.58,4.658,9.95,4.658,16.116c0,9.013-2.465,16.127-7.396,21.347c-4.93,5.218-11.922,7.827-20.977,7.827H0z
					 M8.105,46.368h18.846c6.163,0,10.952-1.637,14.365-4.907c3.413-3.272,5.12-8.133,5.12-14.58c0-6.588-1.672-11.437-5.014-14.542
					c-3.342-3.104-8.404-4.66-15.182-4.66H8.105V46.368z M8.105,53.761v42.241h21.478c6.162,0,11.021-1.898,14.578-5.696
					c3.555-3.8,5.333-9.072,5.333-15.816c0-6.269-1.647-11.253-4.942-14.959c-3.296-3.705-7.883-5.628-13.76-5.77H8.105z"/>
				<path fill="#7BCEE9" d="M126.297,53.975h-40.18v42.028h46.225v7.539H78.011V0h53.976v7.679H86.117v38.757h40.18V53.975z"/>
				<path fill="#7BCEE9" d="M197.481,74.598h-38.826l-8.818,28.944h-8.464L174.37,0h7.537l32.998,103.542h-8.463L197.481,74.598z
					 M161.001,66.989h34.135l-17.067-55.541L161.001,66.989z"/>
				<path fill="#7BCEE9" d="M289.219,0v73.46c-0.047,10.004-2.736,17.755-8.072,23.254c-5.332,5.5-12.908,8.25-22.722,8.25
					c-9.954,0-17.575-2.715-22.86-8.144c-5.288-5.428-7.931-13.31-7.931-23.644V0h8.108v72.891c0,16.357,7.561,24.536,22.683,24.536
					c14.888,0,22.425-7.94,22.616-23.824V0H289.219z"/>
				<path fill="#7BCEE9" d="M371.356,7.679h-29.439v95.862h-8.18V7.679h-29.37V0h66.989V7.679z"/>
				<path fill="#7BCEE9" d="M397.599,103.542h-8.109V0h8.109V103.542z"/>
				<path fill="#7BCEE9" d="M471.485,55.327h-39.824v48.215h-8.107V0h53.904v7.679h-45.797v39.966h39.824V55.327z"/>
				<path fill="#7BCEE9" d="M555.112,0v73.46c-0.047,10.004-2.736,17.755-8.07,23.254c-5.332,5.5-12.906,8.25-22.721,8.25
					c-9.955,0-17.576-2.715-22.861-8.144c-5.289-5.428-7.932-13.31-7.932-23.644V0h8.109v72.891
					c0,16.357,7.559,24.536,22.684,24.536c14.887,0,22.424-7.94,22.613-23.824V0H555.112z"/>
				<path fill="#7BCEE9" d="M586.192,96.002h42.668v7.539h-50.846V0h8.178V96.002z"/>
			</g>
		</g>
		<g>
			<path fill="#9B9AE6" d="M71.754,143.441H46.152v86.116H25.174v-86.116H0v-17.424h71.754V143.441z"/>
			<path fill="#9B9AE6" d="M156.378,229.558h-20.835v-44.303H104.68v44.303H83.771V126.017h20.908v41.886h30.863v-41.886h20.835
				V229.558z"/>
			<path fill="#9B9AE6" d="M194.995,229.558h-20.909V126.017h20.909V229.558z"/>
			<path fill="#9B9AE6" d="M284.953,229.558h-20.906l-30.58-67.913v67.913h-20.908V126.017h20.908l30.648,67.984v-67.984h20.838
				V229.558z"/>
			<path fill="#9B9AE6" d="M372.14,217.824c-4.031,4.363-8.973,7.646-14.826,9.849c-5.857,2.205-12.268,3.309-19.238,3.309
				c-11.9,0-21.145-3.687-27.732-11.06c-6.591-7.373-9.98-18.099-10.171-32.178v-18.633c0-14.268,3.117-25.255,9.353-32.961
				c6.232-7.704,15.324-11.557,27.272-11.557c11.235,0,19.71,2.774,25.423,8.321c5.713,5.546,9.018,14.247,9.92,26.099H351.8
				c-0.568-6.588-1.943-11.081-4.123-13.476c-2.181-2.394-5.594-3.591-10.242-3.591c-5.641,0-9.742,2.063-12.301,6.187
				c-2.561,4.125-3.889,10.692-3.982,19.699v18.774c0,9.434,1.408,16.298,4.229,20.587c2.821,4.29,7.456,6.435,13.903,6.435
				c4.125,0,7.468-0.827,10.029-2.488l1.846-1.281v-18.986h-14.646v-15.788h35.627V217.824z"/>
			<path fill="#9B9AE6" d="M430.667,202.393c0-4.219-1.08-7.406-3.236-9.564c-2.158-2.157-6.082-4.396-11.77-6.719
				c-10.383-3.935-17.852-8.545-22.402-13.833c-4.551-5.286-6.824-11.531-6.824-18.738c0-8.723,3.092-15.727,9.279-21.014
				c6.186-5.285,14.043-7.93,23.574-7.93c6.354,0,12.02,1.34,16.994,4.019c4.98,2.68,8.807,6.46,11.486,11.342
				c2.678,4.884,4.018,10.431,4.018,16.64H430.95c0-4.834-1.029-8.522-3.094-11.058c-2.063-2.536-5.039-3.803-8.924-3.803
				c-3.652,0-6.498,1.077-8.535,3.234c-2.039,2.159-3.057,5.062-3.057,8.71c0,2.846,1.137,5.418,3.414,7.717
				c2.273,2.301,6.303,4.683,12.088,7.147c10.098,3.652,17.436,8.133,22.012,13.441c4.572,5.31,6.861,12.066,6.861,20.269
				c0,9.007-2.869,16.047-8.605,21.121c-5.736,5.072-13.537,7.609-23.395,7.609c-6.688,0-12.779-1.376-18.279-4.125
				c-5.5-2.75-9.801-6.685-12.906-11.806c-3.105-5.12-4.658-11.166-4.658-18.134h20.979c0,5.973,1.162,10.311,3.486,13.014
				c2.32,2.702,6.115,4.054,11.379,4.054C427.015,213.986,430.667,210.121,430.667,202.393z"/>
		</g>
		<g>
			<g>
				
					<path fill-rule="evenodd" clip-rule="evenodd" fill="#9B9AE6" stroke="#9B9AE6" stroke-width="2.5314" stroke-miterlimit="10" d="
					M492.485,130.521c0-2.286-0.002-4.346,0.002-6.403c0.004-0.46-0.012-0.934,0.072-1.383c0.232-1.22,1.283-2.064,2.514-2.079
					c1.209-0.013,2.25,0.838,2.484,2.088c0.092,0.49,0.1,1.001,0.102,1.503c0.014,2.016,0.006,4.033,0.006,6.013
					c0.98,0.31,23.217,0.394,24.889,0.107c0.025-0.423,0.068-0.876,0.074-1.328c0.01-1.935-0.045-3.874,0.021-5.809
					c0.07-1.992,1.945-3.157,3.646-2.304c0.984,0.496,1.469,1.345,1.467,2.462c-0.006,1.85,0,3.704,0,5.558
					c0.002,0.452,0,0.907,0,1.331c0.998,0.289,23.139,0.374,24.928,0.108c0.02-0.416,0.055-0.863,0.055-1.313
					c0.01-1.978-0.023-3.956,0.021-5.936c0.027-1.248,0.732-2.064,1.893-2.376c1.043-0.284,2.191,0.095,2.74,1.05
					c0.277,0.483,0.42,1.104,0.436,1.67c0.055,1.849,0.021,3.703,0.021,5.554c0,0.415,0,0.832,0,1.217
					c0.939,0.315,22.863,0.436,24.906,0.146c0.023-0.416,0.066-0.861,0.07-1.303c0.01-1.897,0.002-3.79,0.004-5.684
					c0.006-1.097,0.418-1.97,1.438-2.472c1.721-0.85,3.598,0.279,3.666,2.267c0.066,1.935,0.018,3.871,0.02,5.807
					c0,0.45,0,0.9,0,1.508c0.619,0,1.07,0.002,1.521,0c4.674,0,9.346,0,14.018,0.002c0.42,0,0.846-0.013,1.26,0.044
					c1.256,0.171,2.061,0.96,2.256,2.208c0.059,0.372,0.041,0.756,0.041,1.135c0.004,10.146-0.01,20.29,0.02,30.434
					c0.004,1.081,0.143,2.187,0.4,3.236c4.818,19.525,9.666,39.044,14.508,58.564c1.965,7.922,3.895,15.853,5.902,23.766
					c0.342,1.34-0.049,2.315-0.979,3.152c-0.285,0.254-0.729,0.427-1.109,0.453c-1.551,0.093-3.104,0.138-4.656,0.155
					c-0.75,0.008-1.506-0.13-2.256-0.125c-0.922,0.004-1.84,0.121-2.762,0.128c-2.484,0.018-4.967,0.004-7.451,0.004
					c-0.459,0-0.92,0-1.537,0c-0.029,0.579-0.072,1.063-0.072,1.547c-0.008,5.222-0.002,10.444-0.008,15.662
					c0,0.42,0.02,0.849-0.051,1.258c-0.211,1.212-1.088,2.02-2.334,2.112c-0.881,0.062-1.768,0.037-2.65,0.039
					c-32.791,0.064-65.586,0.126-98.379,0.191c-0.461,0-0.945-0.062-1.385,0.051c-1.26,0.332-2.189-0.148-3.049-1.019
					c-3.588-3.614-7.209-7.196-10.793-10.815c-2.455-2.479-4.848-5.018-7.316-7.49c-2.135-2.139-4.322-4.227-6.508-6.313
					c-0.816-0.776-1.207-1.638-1.127-2.801c0.09-1.339-0.014-2.691-0.014-4.037c-0.002-26.309-0.002-52.623-0.002-78.93
					c0-3.53,0-7.061,0-10.59c0-6.267,0-12.536,0.002-18.805c0.004-2.316,0.883-3.207,3.207-3.212
					c4.717-0.007,9.432-0.002,14.145-0.002C491.296,130.521,491.794,130.521,492.485,130.521z M504.011,269.368
					c32.707-0.074,65.221-0.151,97.873-0.227c0-0.871,0-1.612,0-2.359c0-17.256-0.002-34.512,0.004-51.77
					c0-1.296,0.049-2.595,0.076-3.896c0.027-1.42,0.09-2.843,0.074-4.268c-0.027-2.765-0.141-5.532-0.146-8.295
					c-0.02-9.301-0.004-18.604-0.01-27.904c0-0.571-0.059-1.145-0.086-1.675c-0.254-0.08-0.371-0.147-0.486-0.147
					c-40.578-0.011-81.152-0.021-121.727-0.024c-0.248,0-0.496,0.055-0.746,0.088c-0.037,0.005-0.07,0.038-0.104,0.063
					c-0.029,0.028-0.053,0.066-0.084,0.105c0,24.384,0,48.772,0,73.288c0.592,0,1.086,0,1.582,0c6.523,0,13.047,0,19.572,0
					c0.588,0,1.178-0.02,1.768,0.018c1.316,0.082,2.271,0.995,2.42,2.309c0.041,0.376,0.02,0.756,0.02,1.137
					c0,7.323,0,14.647,0,21.969C504.011,268.238,504.011,268.698,504.011,269.368z M478.585,163.491c41.182,0,82.16,0,123.119,0
					c0.291-1.36,0.238-26.715-0.055-27.694c-4.504,0-9.023,0-13.613,0c0,1.928,0,3.76,0,5.547c4.988,2.611,7.014,6.237,5.984,10.625
					c-0.945,4.037-4.438,6.853-8.561,6.904c-4.102,0.052-7.664-2.623-8.727-6.526c-0.541-1.983-0.424-3.923,0.361-5.81
					c1.088-2.601,3.09-4.239,5.66-5.177c0-1.886,0-3.68,0-5.568c-8.295,0-16.518,0-24.816,0c0,1.908,0,3.742,0,5.556
					c5.541,2.376,6.918,6.716,5.656,11.469c-0.85,3.202-4.109,6.09-8.387,6.066c-4.064-0.027-7.738-2.699-8.594-6.677
					c-0.828-3.857-0.02-8.382,6.066-10.934c0-1.788,0-3.585,0-5.36c-1.328-0.343-23.873-0.286-24.854,0.057c0,1.782,0,3.577,0,5.332
					c3.41,2.002,4.256,2.734,5.119,4.406c1.086,2.103,1.523,4.336,0.748,6.593c-1.34,3.902-4.305,6.631-8.695,6.572
					c-3.971-0.056-7.457-2.696-8.5-6.504c-0.529-1.934-0.438-3.844,0.307-5.698c1.07-2.653,3.08-4.351,5.672-5.276
					c0.262-1.528,0.201-4.699-0.08-5.577c-2.082-0.316-23.793-0.178-24.664,0.164c0,1.792,0,3.591,0,5.353
					c5.023,2.731,6.967,6.229,5.963,10.646c-0.875,3.855-4.273,6.702-8.197,6.874c-4.176,0.177-7.715-2.232-8.996-6.151
					c-0.623-1.901-0.59-3.809,0.08-5.7c1.008-2.852,3.104-4.613,5.904-5.672c0-0.97,0-1.85,0-2.732c0-0.913,0-1.822,0-2.69
					c-1.557-0.34-12.91-0.271-13.902,0.07C478.585,145.104,478.585,154.256,478.585,163.491z M607.331,188.351
					c-0.066,0.007-0.135,0.014-0.201,0.022c-0.021,0.188-0.064,0.379-0.066,0.567c-0.068,3.442-0.188,6.883-0.184,10.329
					c0.012,4.492,0.166,8.982,0.18,13.473c0.023,11.44,0.002,22.882,0.004,34.323c0,0.442,0.049,0.887,0.084,1.429
					c5.068-0.055,9.99,0.073,15.053-0.03C617.21,228.281,612.271,208.319,607.331,188.351z M498.829,247.552
					c-6.104,0-12.066,0-18.271,0c1.377,1.388,2.574,2.609,3.789,3.816c4.734,4.705,9.475,9.406,14.215,14.104
					c0.02,0.022,0.08,0.022,0.113,0.011c0.041-0.01,0.072-0.041,0.154-0.094C498.829,259.509,498.829,253.597,498.829,247.552z
					 M555.19,153.745c2.197-0.092,4.053-1.988,3.926-4.01c-0.119-1.914-2.109-3.645-4.07-3.545
					c-1.936,0.096-3.842,1.945-3.744,3.755C551.394,151.709,553.329,154.249,555.19,153.745z M498.747,150.152
					c0.082-2.119-1.482-3.854-3.572-3.96c-2.051-0.104-3.865,1.539-3.965,3.595c-0.104,2.059,1.543,3.858,3.602,3.945
					C496.919,153.821,498.669,152.228,498.747,150.152z M585.263,153.732c2.072,0.042,3.807-1.625,3.855-3.699
					c0.047-2.032-1.672-3.812-3.725-3.849c-2.059-0.037-3.795,1.646-3.83,3.715C581.526,152.001,583.161,153.695,585.263,153.732z
					 M528.862,150.039c0.031-2.099-1.598-3.794-3.688-3.85c-2.047-0.053-3.832,1.667-3.846,3.709
					c-0.01,2.115,1.619,3.801,3.701,3.833C527.144,153.764,528.833,152.137,528.862,150.039z"/>
				<g>
					<path fill="#9B9AE6" d="M508.814,203.509c0,0-0.024-0.084-0.021-0.345c0.004-0.237-0.018-0.544,0.021-0.937
						c0.028-0.395,0.068-0.871,0.196-1.407c0.107-0.542,0.267-1.153,0.537-1.807c0.257-0.654,0.613-1.358,1.111-2.07
						c0.484-0.712,1.128-1.429,1.924-2.075c0.793-0.645,1.756-1.189,2.803-1.572c0.518-0.194,1.064-0.302,1.608-0.424
						c0.541-0.091,1.079-0.124,1.622-0.153l0.203-0.009l0.051-0.002l0.29,0.011l0.068,0.005l0.274,0.022l0.547,0.044l0.293,0.033
						l0.459,0.085c0.304,0.06,0.606,0.126,0.905,0.198c1.132,0.315,2.028,0.75,2.897,1.308c0.418,0.277,0.795,0.59,1.161,0.893
						c0.333,0.331,0.665,0.647,0.946,0.98c0.555,0.668,0.99,1.339,1.313,1.976c0.644,1.281,0.905,2.391,1.022,3.178
						c0.068,0.391,0.074,0.714,0.093,0.937c0.011,0.254,0.017,0.39,0.017,0.39c0.025,0.59-0.432,1.088-1.021,1.114
						c-0.021,0.001-0.043,0.001-0.064,0.001l-2.775-0.057c0.003,0.004-0.041-0.001-0.143-0.112
						c-0.094-0.104-0.258-0.254-0.439-0.453c-0.381-0.392-0.926-0.945-1.574-1.449c-0.32-0.257-0.669-0.486-1.014-0.701
						c-0.182-0.093-0.357-0.18-0.528-0.279c-0.188-0.057-0.356-0.148-0.533-0.213c-0.188-0.036-0.352-0.119-0.535-0.153
						c-0.167-0.016-0.404-0.104-0.497-0.088c-0.055,0-0.107-0.007-0.159-0.02l-0.077-0.022c-0.047-0.009-0.17-0.007-0.252-0.011
						l-0.547-0.028l-0.275-0.014l-0.068-0.004h-0.018h-0.008c-0.059-0.003,0.475,0.016,0.246,0.008l-0.018,0.003l-0.07,0.011
						c-0.187,0.039-0.387,0.012-0.564,0.039c-0.164,0.054-0.344,0.054-0.508,0.09c-0.316,0.094-0.641,0.174-0.963,0.336
						c-0.322,0.152-0.668,0.341-0.992,0.593c-0.172,0.113-0.34,0.237-0.492,0.385c-0.17,0.126-0.326,0.268-0.473,0.42
						c-0.16,0.136-0.304,0.283-0.44,0.432c-0.149,0.138-0.286,0.28-0.407,0.42c-0.254,0.288-0.475,0.538-0.656,0.745
						c-0.175,0.213-0.334,0.391-0.423,0.484c-0.087,0.071-0.151,0.166-0.151,0.166c-0.668,0.972-2,1.22-2.973,0.551
						c-0.424-0.29-0.71-0.706-0.844-1.164L508.814,203.509z"/>
				</g>
				<g>
					<path fill="#9B9AE6" d="M553.348,203.509c0,0-0.024-0.084-0.021-0.345c0.004-0.237-0.018-0.544,0.021-0.938
						c0.028-0.394,0.069-0.87,0.196-1.406c0.107-0.542,0.268-1.153,0.537-1.807c0.258-0.654,0.613-1.358,1.111-2.07
						c0.484-0.712,1.128-1.429,1.924-2.075c0.793-0.645,1.756-1.19,2.803-1.572c0.519-0.194,1.064-0.304,1.609-0.425
						c0.541-0.09,1.079-0.124,1.623-0.152l0.203-0.009l0.051-0.002l0.289,0.011l0.068,0.005l0.273,0.022l0.547,0.044
						c0.102,0.011,0.16,0.014,0.295,0.034l0.458,0.085c0.305,0.06,0.607,0.126,0.905,0.199c1.131,0.313,2.029,0.749,2.896,1.307
						c0.418,0.277,0.795,0.591,1.162,0.894c0.332,0.33,0.664,0.646,0.945,0.979c0.555,0.668,0.99,1.339,1.314,1.976
						c0.643,1.281,0.904,2.39,1.023,3.178c0.068,0.39,0.074,0.714,0.092,0.937c0.012,0.254,0.018,0.39,0.018,0.39
						c0.025,0.589-0.432,1.087-1.021,1.112c-0.021,0.001-0.042,0.001-0.063,0.001l-2.776-0.055c0.003,0.005-0.041-0.001-0.143-0.112
						c-0.093-0.103-0.258-0.253-0.439-0.453c-0.381-0.392-0.926-0.945-1.575-1.448c-0.319-0.257-0.669-0.486-1.014-0.701
						c-0.181-0.093-0.358-0.18-0.528-0.28c-0.189-0.056-0.357-0.146-0.533-0.212c-0.188-0.035-0.352-0.12-0.535-0.154
						c-0.168-0.014-0.404-0.104-0.498-0.088c-0.056,0-0.108-0.006-0.16-0.019l-0.076-0.023c-0.045-0.009-0.17-0.006-0.251-0.011
						l-0.548-0.028l-0.274-0.014l-0.069-0.004h-0.017h-0.009c0.111,0.003-0.26-0.009,0.246,0.008l-0.018,0.003l-0.072,0.011
						c-0.186,0.039-0.385,0.013-0.563,0.038c-0.164,0.055-0.344,0.055-0.508,0.091c-0.316,0.093-0.64,0.174-0.962,0.336
						c-0.323,0.152-0.668,0.341-0.993,0.593c-0.172,0.113-0.339,0.237-0.492,0.385c-0.169,0.126-0.326,0.268-0.472,0.42
						c-0.161,0.136-0.304,0.283-0.44,0.432c-0.15,0.14-0.286,0.28-0.408,0.421c-0.253,0.287-0.475,0.537-0.656,0.745
						c-0.175,0.212-0.334,0.39-0.423,0.484c-0.087,0.07-0.151,0.166-0.151,0.166c-0.669,0.973-2,1.22-2.973,0.551
						c-0.424-0.291-0.71-0.707-0.844-1.164L553.348,203.509z"/>
				</g>
				
					<path fill="none" stroke="#9B9AE6" stroke-width="6.3285" stroke-linecap="round" stroke-linejoin="round" stroke-miterlimit="10" d="
					M564.509,214.874c0,11.038-10.695,19.983-23.893,19.983c-13.195,0-23.895-8.945-23.895-19.983"/>
			</g>
		</g>
		<g>
			<polygon fill="#9B9AE6" points="455.583,257.965 0,257.965 0,165.357 7.594,165.357 7.594,250.37 455.583,250.37 			"/>
		</g>
	</g>
</g>
</svg>
