<?xml version="1.0" encoding="utf-8"?>
<!-- Generator: Adobe Illustrator 16.0.0, SVG Export Plug-In . SVG Version: 6.00 Build 0)  -->
<!DOCTYPE svg PUBLIC "-//W3C//DTD SVG 1.1//EN" "http://www.w3.org/Graphics/SVG/1.1/DTD/svg11.dtd">
<svg version="1.1" xmlns="http://www.w3.org/2000/svg" xmlns:xlink="http://www.w3.org/1999/xlink" x="0px" y="0px"
	 width="320.783px" height="140.683px" viewBox="0 0 320.783 140.683" enable-background="new 0 0 320.783 140.683"
	 xml:space="preserve">
<g id="Layer_2">
</g>
<g id="Layer_1">
	<g>
		<g>
			<path fill="#FFFFFF" d="M0,52.77V0h13.375c4.758,0,8.365,1.167,10.816,3.496c2.451,2.33,3.68,5.766,3.68,10.305
				c0,2.703-0.629,5.059-1.885,7.063s-2.996,3.455-5.219,4.346c2.561,0.654,4.633,2.146,6.215,4.48
				c1.582,2.333,2.373,5.071,2.373,8.213c0,4.594-1.256,8.219-3.768,10.88c-2.514,2.659-6.076,3.987-10.691,3.987H0z M4.131,23.632
				h9.605c3.141,0,5.582-0.835,7.32-2.5c1.74-1.67,2.609-4.146,2.609-7.431c0-3.359-0.852-5.83-2.555-7.412
				c-1.703-1.584-4.283-2.374-7.736-2.374H4.131V23.632z M4.131,27.4V48.93h10.947c3.139,0,5.617-0.966,7.43-2.904
				c1.813-1.938,2.717-4.623,2.717-8.061c0-3.195-0.838-5.736-2.518-7.623c-1.68-1.889-4.02-2.869-7.014-2.941H4.131z"/>
			<path fill="#FFFFFF" d="M64.369,27.51H43.891v21.42h23.561v3.84H39.76V0h27.51v3.915H43.891v19.752h20.479V27.51z"/>
			<path fill="#FFFFFF" d="M100.65,38.02H80.861l-4.494,14.75h-4.314L88.871,0h3.842l16.816,52.77h-4.313L100.65,38.02z
				 M82.057,34.141h17.398L90.756,5.834L82.057,34.141z"/>
			<path fill="#FFFFFF" d="M147.404,0v37.439c-0.023,5.1-1.395,9.049-4.113,11.852c-2.719,2.805-6.578,4.205-11.58,4.205
				c-5.074,0-8.959-1.382-11.652-4.15c-2.695-2.766-4.041-6.783-4.041-12.051V0h4.133v37.15c0,8.336,3.852,12.504,11.561,12.504
				c7.588,0,11.428-4.047,11.525-12.142V0H147.404z"/>
			<path fill="#FFFFFF" d="M189.27,3.915h-15.004V52.77h-4.17V3.915h-14.971V0h34.145V3.915z"/>
			<path fill="#FFFFFF" d="M202.643,52.77h-4.133V0h4.133V52.77z"/>
			<path fill="#FFFFFF" d="M240.301,28.198h-20.299V52.77h-4.129V0h27.473v3.915h-23.344v20.367h20.299V28.198z"/>
			<path fill="#FFFFFF" d="M282.922,0v37.439c-0.023,5.1-1.393,9.049-4.113,11.852c-2.717,2.805-6.578,4.205-11.58,4.205
				c-5.072,0-8.957-1.382-11.65-4.15c-2.695-2.766-4.043-6.783-4.043-12.051V0h4.133v37.15c0,8.336,3.854,12.504,11.561,12.504
				c7.588,0,11.43-4.047,11.527-12.142V0H282.922z"/>
			<path fill="#FFFFFF" d="M298.764,48.93h21.746v3.84h-25.916V0h4.17V48.93z"/>
		</g>
		<g>
			<path fill="#FFFFFF" d="M36.57,73.105H23.523v43.894H12.83V73.105H0v-8.88h36.57V73.105z"/>
			<path fill="#FFFFFF" d="M79.701,116.999H69.082V94.418h-15.73v22.581H42.695V64.225h10.656v21.35h15.73v-21.35h10.619V116.999z"
				/>
			<path fill="#FFFFFF" d="M99.383,116.999H88.725V64.225h10.658V116.999z"/>
			<path fill="#FFFFFF" d="M145.23,116.999h-10.654L118.99,82.385v34.614h-10.656V64.225h10.656l15.621,34.65v-34.65h10.619V116.999
				z"/>
			<path fill="#FFFFFF" d="M189.668,111.018c-2.055,2.223-4.572,3.897-7.557,5.02c-2.984,1.124-6.252,1.686-9.805,1.686
				c-6.064,0-10.777-1.876-14.137-5.635c-3.357-3.757-5.084-9.225-5.184-16.4v-9.499c0-7.271,1.59-12.871,4.768-16.798
				c3.178-3.926,7.811-5.891,13.9-5.891c5.727,0,10.047,1.416,12.959,4.24c2.91,2.828,4.596,7.264,5.055,13.303h-10.367
				c-0.289-3.357-0.99-5.648-2.102-6.867c-1.109-1.221-2.852-1.832-5.219-1.832c-2.875,0-4.967,1.052-6.27,3.155
				c-1.307,2.102-1.982,5.448-2.031,10.04v9.568c0,4.808,0.719,8.305,2.156,10.493c1.438,2.187,3.801,3.279,7.086,3.279
				c2.104,0,3.807-0.422,5.111-1.27l0.941-0.65v-9.677h-7.463v-8.048h18.156V111.018z"/>
			<path fill="#FFFFFF" d="M219.498,103.152c0-2.15-0.551-3.773-1.65-4.873c-1.102-1.102-3.1-2.243-5.998-3.428
				c-5.291-2.003-9.098-4.353-11.418-7.049c-2.318-2.693-3.479-5.877-3.479-9.551c0-4.445,1.576-8.016,4.729-10.711
				c3.152-2.692,7.158-4.041,12.016-4.041c3.238,0,6.125,0.684,8.662,2.049c2.537,1.366,4.488,3.293,5.854,5.782
				c1.365,2.488,2.047,5.316,2.047,8.482h-10.619c0-2.467-0.523-4.344-1.576-5.637c-1.051-1.292-2.566-1.939-4.549-1.939
				c-1.859,0-3.311,0.549-4.348,1.648c-1.041,1.1-1.561,2.58-1.561,4.439c0,1.451,0.58,2.762,1.742,3.934
				c1.158,1.172,3.211,2.387,6.16,3.643c5.146,1.862,8.887,4.143,11.219,6.852c2.33,2.705,3.498,6.148,3.498,10.328
				c0,4.59-1.465,8.18-4.387,10.764c-2.926,2.585-6.9,3.878-11.926,3.878c-3.406,0-6.512-0.701-9.314-2.102
				c-2.805-1.402-4.994-3.408-6.578-6.018c-1.582-2.609-2.375-5.688-2.375-9.242h10.691c0,3.044,0.594,5.255,1.777,6.633
				c1.184,1.376,3.117,2.066,5.799,2.066C217.635,109.061,219.498,107.092,219.498,103.152z"/>
		</g>
		<g>
			<g>
				
					<path fill-rule="evenodd" clip-rule="evenodd" fill="#FFFFFF" stroke="#FFFFFF" stroke-width="1.4156" stroke-miterlimit="10" d="
					M251.004,66.521c0-1.167,0-2.215,0.002-3.264c0.002-0.234-0.008-0.476,0.037-0.705c0.117-0.62,0.652-1.053,1.279-1.061
					c0.615-0.004,1.146,0.428,1.268,1.064c0.047,0.25,0.049,0.512,0.051,0.768c0.006,1.025,0.002,2.057,0.002,3.066
					c0.5,0.157,11.834,0.199,12.686,0.053c0.012-0.215,0.035-0.445,0.037-0.676c0.006-0.985-0.021-1.975,0.014-2.961
					c0.033-1.016,0.99-1.608,1.857-1.175c0.5,0.253,0.748,0.687,0.746,1.255c-0.002,0.942,0,1.887,0,2.832
					c0.002,0.232,0,0.463,0,0.677c0.51,0.149,11.793,0.192,12.707,0.057c0.008-0.213,0.025-0.441,0.025-0.67
					c0.006-1.008-0.01-2.016,0.014-3.025c0.012-0.637,0.371-1.051,0.963-1.209c0.531-0.146,1.117,0.047,1.396,0.534
					c0.141,0.246,0.215,0.562,0.223,0.851c0.027,0.943,0.012,1.887,0.012,2.832c0,0.209,0,0.422,0,0.619
					c0.479,0.16,11.652,0.22,12.693,0.074c0.01-0.211,0.033-0.439,0.035-0.664c0.006-0.966,0-1.932,0.002-2.899
					c0.004-0.558,0.213-1.003,0.732-1.257c0.877-0.434,1.834,0.144,1.869,1.156c0.033,0.985,0.008,1.971,0.01,2.957
					c0,0.23,0,0.459,0,0.77c0.314,0,0.545,0.002,0.775,0c2.381,0,4.764,0,7.145,0.002c0.213,0,0.432-0.007,0.643,0.021
					c0.639,0.088,1.049,0.49,1.148,1.125c0.029,0.189,0.021,0.387,0.021,0.578c0.002,5.172-0.006,10.342,0.01,15.512
					c0.002,0.551,0.072,1.115,0.205,1.648c2.455,9.951,4.926,19.9,7.393,29.85c1.002,4.037,1.984,8.08,3.008,12.111
					c0.176,0.684-0.023,1.18-0.498,1.607c-0.145,0.131-0.371,0.217-0.566,0.23c-0.789,0.047-1.58,0.071-2.371,0.08
					c-0.383,0.002-0.768-0.068-1.15-0.064c-0.471,0.002-0.939,0.063-1.408,0.066c-1.266,0.008-2.531,0-3.797,0
					c-0.236,0-0.469,0-0.783,0c-0.016,0.297-0.037,0.543-0.037,0.79c-0.004,2.662,0,5.324-0.004,7.982
					c0,0.212,0.01,0.431-0.027,0.64c-0.107,0.617-0.553,1.029-1.189,1.077c-0.447,0.031-0.9,0.019-1.35,0.022
					c-16.713,0.031-33.428,0.062-50.141,0.095c-0.236,0-0.482-0.032-0.705,0.025c-0.643,0.17-1.117-0.074-1.555-0.518
					c-1.828-1.841-3.674-3.668-5.5-5.512c-1.252-1.266-2.471-2.559-3.73-3.818c-1.086-1.09-2.203-2.154-3.314-3.217
					c-0.418-0.396-0.617-0.835-0.576-1.427c0.047-0.684-0.008-1.374-0.008-2.059c0-13.41,0-26.818,0-40.229c0-1.796,0-3.598,0-5.396
					c0-3.194,0-6.39,0-9.584c0.002-1.182,0.451-1.635,1.635-1.637c2.404-0.004,4.809-0.002,7.209-0.002
					C250.398,66.521,250.65,66.521,251.004,66.521z M256.877,137.287c16.672-0.039,33.24-0.078,49.885-0.117c0-0.443,0-0.82,0-1.201
					c0-8.795-0.002-17.589,0-26.385c0-0.662,0.025-1.324,0.039-1.986c0.014-0.725,0.047-1.451,0.037-2.176
					c-0.012-1.41-0.07-2.818-0.072-4.226c-0.012-4.743-0.004-9.484-0.006-14.223c0-0.291-0.029-0.584-0.045-0.854
					c-0.129-0.041-0.188-0.074-0.246-0.074c-20.682-0.006-41.361-0.011-62.041-0.014c-0.127,0-0.252,0.03-0.379,0.045
					c-0.02,0.004-0.037,0.02-0.055,0.031c-0.016,0.016-0.025,0.035-0.041,0.057c0,12.424,0,24.855,0,37.353c0.301,0,0.553,0,0.805,0
					c3.326,0,6.65,0,9.975,0c0.301,0,0.602-0.013,0.9,0.007c0.674,0.041,1.16,0.506,1.234,1.178c0.021,0.189,0.01,0.385,0.01,0.579
					c0,3.732,0,7.465,0,11.197C256.877,136.711,256.877,136.946,256.877,137.287z M243.918,83.326c20.99,0,41.875,0,62.752,0
					c0.146-0.694,0.119-13.617-0.029-14.117c-2.295,0-4.598,0-6.938,0c0,0.985,0,1.918,0,2.83c2.543,1.328,3.574,3.177,3.049,5.414
					c-0.482,2.057-2.26,3.493-4.361,3.52c-2.09,0.026-3.906-1.338-4.447-3.328c-0.275-1.01-0.217-1.999,0.184-2.959
					c0.553-1.326,1.574-2.162,2.885-2.638c0-0.961,0-1.877,0-2.84c-4.229,0-8.42,0-12.648,0c0,0.973,0,1.908,0,2.832
					c2.822,1.211,3.525,3.422,2.883,5.846c-0.434,1.632-2.096,3.104-4.275,3.092c-2.07-0.013-3.943-1.376-4.379-3.402
					c-0.422-1.967-0.012-4.271,3.092-5.574c0-0.91,0-1.826,0-2.73c-0.676-0.175-12.168-0.145-12.668,0.03c0,0.907,0,1.821,0,2.718
					c1.738,1.02,2.17,1.391,2.609,2.245c0.553,1.072,0.777,2.208,0.381,3.361c-0.684,1.989-2.193,3.379-4.432,3.35
					c-2.023-0.029-3.801-1.376-4.33-3.316c-0.271-0.984-0.225-1.958,0.154-2.904c0.547-1.352,1.57-2.217,2.891-2.689
					c0.133-0.778,0.104-2.395-0.041-2.84c-1.059-0.162-12.127-0.091-12.568,0.082c0,0.914,0,1.83,0,2.729
					c2.559,1.392,3.549,3.173,3.037,5.425c-0.445,1.965-2.178,3.416-4.178,3.502c-2.127,0.091-3.932-1.137-4.586-3.135
					c-0.316-0.969-0.301-1.941,0.041-2.904c0.516-1.455,1.584-2.352,3.012-2.892c0-0.493,0-0.942,0-1.393c0-0.465,0-0.928,0-1.371
					c-0.795-0.171-6.582-0.139-7.088,0.037C243.918,73.953,243.918,78.617,243.918,83.326z M309.537,95.995
					c-0.035,0.004-0.068,0.007-0.104,0.013c-0.012,0.094-0.031,0.191-0.033,0.287c-0.035,1.756-0.096,3.51-0.094,5.264
					c0.006,2.291,0.084,4.58,0.092,6.87c0.012,5.83,0.002,11.66,0.002,17.492c0,0.225,0.025,0.453,0.041,0.728
					c2.584-0.029,5.094,0.038,7.674-0.015C314.57,116.349,312.055,106.172,309.537,95.995z M254.236,126.168
					c-3.109,0-6.148,0-9.313,0c0.701,0.707,1.313,1.332,1.932,1.946c2.414,2.398,4.828,4.792,7.246,7.187
					c0.01,0.012,0.041,0.012,0.059,0.006c0.02-0.004,0.035-0.021,0.076-0.047C254.236,132.265,254.236,129.248,254.236,126.168z
					 M282.961,78.357c1.121-0.046,2.066-1.013,2.002-2.043c-0.061-0.976-1.076-1.857-2.074-1.806
					c-0.986,0.047-1.959,0.991-1.908,1.912C281.027,77.32,282.014,78.614,282.961,78.357z M254.195,76.525
					c0.041-1.078-0.756-1.962-1.822-2.016c-1.045-0.055-1.969,0.783-2.02,1.83c-0.053,1.049,0.787,1.969,1.836,2.01
					C253.262,78.396,254.154,77.586,254.195,76.525z M298.289,78.35c1.057,0.021,1.939-0.826,1.967-1.885
					c0.023-1.032-0.855-1.941-1.9-1.961c-1.051-0.018-1.934,0.84-1.951,1.894C296.385,77.469,297.219,78.332,298.289,78.35z
					 M269.543,76.469c0.018-1.071-0.813-1.935-1.879-1.961c-1.043-0.029-1.953,0.847-1.959,1.89
					c-0.006,1.077,0.824,1.936,1.885,1.952C268.668,78.369,269.529,77.539,269.543,76.469z"/>
				<g>
					<path fill="#FFFFFF" d="M259.23,103.699c-0.002,0.026-0.029-0.277-0.016-0.67c0.021-0.408,0.088-0.992,0.359-1.675
						c0.254-0.686,0.73-1.496,1.568-2.183c0.416-0.341,0.924-0.63,1.475-0.832c0.553-0.199,1.137-0.292,1.701-0.305l0.105-0.005
						l0.027-0.001l0.16,0.006l0.035,0.002l0.139,0.012l0.279,0.022l0.15,0.019l0.244,0.045l0.479,0.105
						c0.598,0.167,1.066,0.397,1.521,0.692c0.441,0.295,0.807,0.64,1.102,0.989c0.291,0.35,0.506,0.71,0.674,1.041
						c0.335,0.666,0.457,1.25,0.512,1.66c0.033,0.204,0.029,0.375,0.035,0.491c0.006,0.133,0.01,0.205,0.01,0.205
						c0.006,0.142-0.096,0.262-0.232,0.284l-1.928,0.309c0.002,0.003-0.018,0.003-0.072-0.052c-0.051-0.049-0.141-0.12-0.236-0.217
						c-0.199-0.19-0.488-0.454-0.813-0.697c-0.16-0.124-0.345-0.223-0.513-0.323c-0.175-0.091-0.349-0.159-0.515-0.216
						c-0.16-0.04-0.363-0.093-0.482-0.097c-0.021,0.001-0.041,0-0.063-0.005l-0.029-0.011l-0.127-0.004l-0.278-0.014l-0.14-0.007
						l-0.035-0.001h-0.01l-0.004-0.001c-0.127-0.004,0.17,0.006,0.139,0.005l-0.009,0.001l-0.032,0.006
						c-0.086,0.021-0.181,0.005-0.262,0.017c-0.074,0.026-0.156,0.024-0.231,0.039c-0.144,0.04-0.292,0.069-0.444,0.14
						c-0.153,0.066-0.322,0.148-0.482,0.266c-0.168,0.106-0.338,0.237-0.494,0.375c-0.306,0.279-0.586,0.568-0.781,0.777
						c-0.198,0.225-0.304,0.29-0.307,0.316c-0.139,0.602-0.74,0.977-1.342,0.837C259.465,104.902,259.09,104.301,259.23,103.699z"/>
				</g>
				<g>
					<path fill="#FFFFFF" d="M281.928,103.699c-0.002,0.026-0.029-0.277-0.016-0.67c0.021-0.408,0.088-0.992,0.359-1.675
						c0.254-0.686,0.731-1.496,1.568-2.183c0.416-0.341,0.924-0.63,1.475-0.832c0.553-0.199,1.137-0.292,1.701-0.305l0.106-0.005
						l0.026-0.001l0.16,0.006l0.035,0.002l0.139,0.012l0.279,0.022l0.15,0.019l0.244,0.045l0.479,0.105
						c0.597,0.167,1.067,0.397,1.521,0.692c0.44,0.295,0.806,0.64,1.101,0.989c0.291,0.35,0.506,0.71,0.674,1.041
						c0.334,0.666,0.457,1.25,0.512,1.66c0.033,0.204,0.029,0.375,0.035,0.491c0.006,0.133,0.01,0.205,0.01,0.205
						c0.006,0.142-0.096,0.262-0.232,0.284l-1.928,0.309c0.002,0.003-0.018,0.003-0.072-0.052c-0.05-0.049-0.141-0.12-0.235-0.217
						c-0.2-0.19-0.489-0.454-0.813-0.697c-0.16-0.124-0.346-0.223-0.514-0.323c-0.174-0.091-0.348-0.159-0.514-0.216
						c-0.16-0.04-0.363-0.093-0.482-0.097c-0.021,0.001-0.041,0-0.062-0.005l-0.03-0.011l-0.126-0.004l-0.278-0.014l-0.141-0.007
						l-0.035-0.001h-0.01l-0.004-0.001c-0.127-0.004,0.17,0.006,0.139,0.005l-0.01,0.001l-0.032,0.006
						c-0.085,0.021-0.181,0.005-0.261,0.017c-0.074,0.026-0.156,0.024-0.231,0.039c-0.144,0.04-0.292,0.069-0.444,0.14
						c-0.154,0.066-0.322,0.148-0.483,0.266c-0.167,0.106-0.336,0.237-0.493,0.375c-0.307,0.279-0.587,0.568-0.781,0.777
						c-0.199,0.225-0.305,0.29-0.307,0.316c-0.139,0.602-0.74,0.977-1.342,0.837C282.162,104.902,281.787,104.301,281.928,103.699z"
						/>
				</g>
				<g>
					
						<path fill="none" stroke="#FFFFFF" stroke-width="3.5389" stroke-linecap="round" stroke-linejoin="round" stroke-miterlimit="10" d="
						M287.713,109.514c0,5.625-5.453,10.185-12.178,10.185s-12.18-4.56-12.18-10.185"/>
				</g>
			</g>
		</g>
		<g>
			<polygon fill="#FFFFFF" points="232.197,131.475 0,131.475 0,84.278 3.871,84.278 3.871,127.604 232.197,127.604 			"/>
		</g>
	</g>
</g>
</svg>
