<?xml version="1.0" encoding="UTF-8" standalone="no"?>
<svg
   xmlns:dc="http://purl.org/dc/elements/1.1/"
   xmlns:cc="http://creativecommons.org/ns#"
   xmlns:rdf="http://www.w3.org/1999/02/22-rdf-syntax-ns#"
   xmlns:svg="http://www.w3.org/2000/svg"
   xmlns="http://www.w3.org/2000/svg"
   xmlns:sodipodi="http://sodipodi.sourceforge.net/DTD/sodipodi-0.dtd"
   xmlns:inkscape="http://www.inkscape.org/namespaces/inkscape"
   aria-hidden="true"
   data-prefix="far"
   data-icon="eye"
   class="svg-inline--fa fa-eye fa-w-18"
   role="img"
   viewBox="0 0 576 512"
   version="1.1"
   id="svg4"
   sodipodi:docname="eye-regular.svg"
   inkscape:version="0.92.1 r15371">
  <metadata
     id="metadata10">
    <rdf:RDF>
      <cc:Work
         rdf:about="">
        <dc:format>image/svg+xml</dc:format>
        <dc:type
           rdf:resource="http://purl.org/dc/dcmitype/StillImage" />
      </cc:Work>
    </rdf:RDF>
  </metadata>
  <defs
     id="defs8" />
  <sodipodi:namedview
     pagecolor="#ffffff"
     bordercolor="#666666"
     borderopacity="1"
     objecttolerance="10"
     gridtolerance="10"
     guidetolerance="10"
     inkscape:pageopacity="0"
     inkscape:pageshadow="2"
     inkscape:window-width="1920"
     inkscape:window-height="1051"
     id="namedview6"
     showgrid="false"
     inkscape:zoom="1.84375"
     inkscape:cx="334.36224"
     inkscape:cy="130.72349"
     inkscape:window-x="0"
     inkscape:window-y="0"
     inkscape:window-maximized="1"
     inkscape:current-layer="svg4" />
  <path
     fill="currentColor"
     d="M569.354 231.631C512.97 135.949 407.81 72 288 72 168.14 72 63.004 135.994 6.646 231.631a47.999 47.999 0 0 0 0 48.739C63.031 376.051 168.19 440 288 440c119.86 0 224.996-63.994 281.354-159.631a47.997 47.997 0 0 0 0-48.738zM288 392c-102.556 0-192.091-54.701-240-136 44.157-74.933 123.677-127.27 216.162-135.007C273.958 131.078 280 144.83 280 160c0 30.928-25.072 56-56 56s-56-25.072-56-56l.001-.042C157.794 179.043 152 200.844 152 224c0 75.111 60.889 136 136 136s136-60.889 136-136c0-31.031-10.4-59.629-27.895-82.515C451.704 164.638 498.009 205.106 528 256c-47.908 81.299-137.444 136-240 136z"
     id="path2" />
  <path
     style="fill:#808285;fill-opacity:1;stroke-width:2.16949153"
     d="M 238.31864,435.38547 C 168.84357,424.12828 104.67581,391.39912 56.470331,342.63259 35.416982,321.33422 15.170972,294.38477 6.6637503,276.33508 -4.3708015,252.92318 0.24256022,238.12768 30.977017,198.36004 68.822951,149.39078 123.99335,110.42473 183.8302,90.402072 213.07331,80.616717 232.21866,76.764899 262.83802,74.506638 382.1483,65.707176 495.10305,120.55475 559.56836,218.59036 c 22.71499,34.54381 21.07988,47.32178 -11.6741,91.23062 -45.60614,61.13801 -115.71096,105.40978 -194.00589,122.51633 -27.11782,5.92493 -87.91849,7.52855 -115.56973,3.04816 z m 104.1356,-47.67304 c 73.23691,-15.14261 135.58168,-56.181 177.00805,-116.51543 4.66591,-6.79554 8.48347,-13.7204 8.48347,-15.38857 0,-4.96407 -20.96455,-33.30444 -37.56218,-50.77743 -8.50797,-8.95666 -23.59507,-22.38354 -33.52689,-29.8375 -18.30732,-13.73986 -55.31409,-34.66886 -59.00199,-33.36828 -1.10785,0.39071 1.38203,6.07986 5.53309,12.64258 19.20445,30.36168 24.49063,74.57237 13.12013,109.72943 -8.66417,26.78923 -26.16346,51.8364 -46.79856,66.98394 -55.32624,40.61321 -128.46537,35.71875 -175.90957,-11.77179 -38.68005,-38.71785 -50.83218,-92.68123 -32.12481,-142.65509 l 4.68819,-12.52378 3.30079,11.85694 c 6.23055,22.38111 31.21728,41.2956 54.55299,41.2956 10.8818,0 27.34468,-6.44198 36.50857,-14.28592 14.22414,-12.17533 18.73122,-22.54664 18.77591,-43.2056 0.0325,-15.08381 -0.74687,-18.69033 -5.95428,-27.54889 -3.29552,-5.60613 -6.91638,-10.76435 -8.04634,-11.46271 -3.87705,-2.39614 -44.53612,5.56769 -67.31254,13.18443 -56.45537,18.8794 -108.492543,57.89153 -140.510841,105.3406 l -11.115581,16.47258 11.262501,17.09174 c 6.194378,9.40045 20.539657,26.36631 31.878398,37.70191 45.368553,45.35595 102.624803,72.79546 169.226063,81.09999 15.37415,1.91701 66.68217,-0.57619 83.52543,-4.05875 z"
     id="path4487"
     inkscape:connector-curvature="0" />
</svg>
