<?xml version="1.0" encoding="UTF-8" standalone="no"?>
<svg
   xmlns:dc="http://purl.org/dc/elements/1.1/"
   xmlns:cc="http://creativecommons.org/ns#"
   xmlns:rdf="http://www.w3.org/1999/02/22-rdf-syntax-ns#"
   xmlns:svg="http://www.w3.org/2000/svg"
   xmlns="http://www.w3.org/2000/svg"
   xmlns:sodipodi="http://sodipodi.sourceforge.net/DTD/sodipodi-0.dtd"
   xmlns:inkscape="http://www.inkscape.org/namespaces/inkscape"
   aria-hidden="true"
   data-prefix="far"
   data-icon="eye-slash"
   class="svg-inline--fa fa-eye-slash fa-w-18"
   role="img"
   viewBox="0 0 576 512"
   version="1.1"
   id="svg4"
   sodipodi:docname="EyeSlash.svg"
   inkscape:version="0.92.1 r15371">
  <metadata
     id="metadata10">
    <rdf:RDF>
      <cc:Work
         rdf:about="">
        <dc:format>image/svg+xml</dc:format>
        <dc:type
           rdf:resource="http://purl.org/dc/dcmitype/StillImage" />
      </cc:Work>
    </rdf:RDF>
  </metadata>
  <defs
     id="defs8" />
  <sodipodi:namedview
     pagecolor="#ffffff"
     bordercolor="#666666"
     borderopacity="1"
     objecttolerance="10"
     gridtolerance="10"
     guidetolerance="10"
     inkscape:pageopacity="0"
     inkscape:pageshadow="2"
     inkscape:window-width="1920"
     inkscape:window-height="1051"
     id="namedview6"
     showgrid="false"
     inkscape:zoom="0.4609375"
     inkscape:cx="292.33898"
     inkscape:cy="256"
     inkscape:window-x="0"
     inkscape:window-y="0"
     inkscape:window-maximized="1"
     inkscape:current-layer="svg4" />
  <path
     fill="currentColor"
     d="M272.702 359.139c-80.483-9.011-136.212-86.886-116.93-167.042l116.93 167.042zM288 392c-102.556 0-192.092-54.701-240-136 21.755-36.917 52.1-68.342 88.344-91.658l-27.541-39.343C67.001 152.234 31.921 188.741 6.646 231.631a47.999 47.999 0 0 0 0 48.739C63.004 376.006 168.14 440 288 440a332.89 332.89 0 0 0 39.648-2.367l-32.021-45.744A284.16 284.16 0 0 1 288 392zm281.354-111.631c-33.232 56.394-83.421 101.742-143.554 129.492l48.116 68.74c3.801 5.429 2.48 12.912-2.949 16.712L450.23 509.83c-5.429 3.801-12.912 2.48-16.712-2.949L102.084 33.399c-3.801-5.429-2.48-12.912 2.949-16.712L125.77 2.17c5.429-3.801 12.912-2.48 16.712 2.949l55.526 79.325C226.612 76.343 256.808 72 288 72c119.86 0 224.996 63.994 281.354 159.631a48.002 48.002 0 0 1 0 48.738zM528 256c-44.157-74.933-123.677-127.27-216.162-135.007C302.042 131.078 296 144.83 296 160c0 30.928 25.072 56 56 56s56-25.072 56-56l-.001-.042c30.632 57.277 16.739 130.26-36.928 171.719l26.695 38.135C452.626 346.551 498.308 306.386 528 256z"
     id="path2" />
  <path
     style="fill:#808285;fill-opacity:1;stroke-width:2.16949153"
     d="M 268.89914,269.74746 C 176.31038,137.46315 100.55593,27.802826 100.55593,26.057847 c 0,-6.777321 28.13588,-26.62633911 34.76175,-24.5233698 2.36796,0.7515598 17.23731,19.9114258 33.043,42.5774818 26.28442,37.693004 29.20062,41.113309 34.16135,40.066495 2.98305,-0.629485 12.61967,-2.682401 21.41471,-4.56204 36.55674,-7.812746 90.94834,-7.798382 129.43065,0.03417 42.4198,8.633993 89.51328,29.167076 125.26286,54.615496 33.38277,23.76361 72.03078,66.07266 88.80622,97.21864 9.2203,17.11879 9.51808,32.45807 0.92844,47.82657 -25.73017,46.03635 -80.70129,98.21011 -128.82593,122.27038 -7.45762,3.72851 -13.55932,7.59313 -13.55932,8.58813 0,0.99497 10.65366,17.02786 23.67482,35.62862 13.02113,18.60079 24.25283,35.64082 24.95932,37.86676 1.61387,5.08486 -1.30564,8.64237 -15.29769,18.64043 -20.18271,14.42167 -2.05012,36.56719 -190.41697,-232.55815 z m 174.86258,76.32479 c 19.88691,-13.32798 40.30599,-31.05657 54.05362,-46.93128 15.10416,-17.44109 30.13042,-39.05137 30.13042,-43.33254 0,-6.16248 -22.92473,-35.78352 -43.26027,-55.89656 -41.91967,-41.46105 -93.25594,-67.67912 -150.58113,-76.90366 -24.78791,-3.98877 -25.37201,-3.75969 -33.19451,13.01891 -5.73124,12.29302 -6.67067,28.94711 -2.43336,43.13812 4.07765,13.6563 21.59851,30.46316 36.23592,34.75929 14.58722,4.28139 20.31112,4.324 34.0191,0.25316 18.77638,-5.57599 32.47835,-20.14318 38.64682,-41.08722 l 2.60944,-8.85996 4.67328,14.10169 c 10.50462,31.69791 10.59357,60.56856 0.27976,90.81064 -5.88754,17.26341 -22.99505,43.0958 -35.77409,54.01898 l -9.72592,8.31347 9.07991,12.91999 c 4.99395,7.10598 11.41135,16.08268 14.26089,19.94819 l 5.18099,7.02822 16.7204,-8.50848 c 9.19621,-4.67968 22.28165,-12.23561 29.07873,-16.79096 z"
     id="path4487"
     inkscape:connector-curvature="0" />
  <path
     style="fill:#808285;fill-opacity:1;stroke-width:2.16949153"
     d="M 238.31864,435.31103 C 169.85278,424.47842 105.54388,391.8543 57.034617,343.34505 36.558566,322.86899 15.210946,294.46958 6.6637503,276.33508 1.1610466,264.66005 0.39073367,260.95147 1.5083429,251.51501 4.8400271,223.38415 53.979149,164.42826 101.87066,131.10281 l 6.73845,-4.68898 13.04053,18.90834 13.04052,18.90834 -14.96454,10.69535 c -19.29443,13.78998 -47.908727,43.52532 -62.048191,64.4791 l -11.115581,16.47258 11.262501,17.09174 c 6.194378,9.40045 20.539657,26.3977 31.878398,37.77166 48.863323,49.0151 111.928593,77.17642 182.666173,81.56821 l 23.2028,1.44057 14.40768,20.46607 c 7.92422,11.25634 13.7569,21.11959 12.96152,21.91835 -2.86601,2.8782 -65.05179,2.2733 -84.62228,-0.82311 z"
     id="path4489"
     inkscape:connector-curvature="0" />
  <path
     style="fill:#808285;fill-opacity:1;stroke-width:2.16949153"
     d="m 243.69926,351.14506 c -21.24951,-7.5023 -34.12037,-15.791 -51.22733,-32.98988 -30.04447,-30.2059 -44.28359,-72.80014 -38.03933,-113.78908 l 1.48726,-9.76271 15.35865,21.69492 c 42.01667,59.35077 96.32827,137.52895 96.32827,138.65856 0,2.6434 -10.25485,1.00837 -23.90752,-3.81181 z"
     id="path4491"
     inkscape:connector-curvature="0" />
</svg>
