<?xml version="1.0" encoding="utf-8"?>
<!-- Generator: Adobe Illustrator 16.0.0, SVG Export Plug-In . SVG Version: 6.00 Build 0)  -->
<!DOCTYPE svg PUBLIC "-//W3C//DTD SVG 1.1//EN" "http://www.w3.org/Graphics/SVG/1.1/DTD/svg11.dtd">
<svg version="1.1" xmlns="http://www.w3.org/2000/svg" xmlns:xlink="http://www.w3.org/1999/xlink" x="0px" y="0px"
	 width="218.949px" height="132.873px" viewBox="0 0 218.949 132.873" enable-background="new 0 0 218.949 132.873"
	 xml:space="preserve">
<g id="Layer_2">
</g>
<g id="Layer_1">
	<g>
		<g>
			<g>
				<g>
					<path fill-rule="evenodd" clip-rule="evenodd" fill="#FFFFFF" d="M111.877,7.803c0-1.807-0.002-3.434,0.002-5.059
						c0.002-0.363-0.01-0.738,0.057-1.093c0.184-0.964,1.014-1.632,1.986-1.644c0.955-0.009,1.777,0.662,1.963,1.65
						c0.072,0.387,0.078,0.792,0.08,1.188c0.01,1.592,0.004,3.187,0.004,4.752c0.775,0.244,18.344,0.31,19.664,0.084
						c0.02-0.334,0.055-0.692,0.059-1.049c0.008-1.53-0.035-3.061,0.018-4.59c0.055-1.573,1.537-2.494,2.881-1.82
						c0.777,0.391,1.16,1.062,1.158,1.946c-0.004,1.46,0,2.925,0,4.39c0.002,0.358,0,0.717,0,1.051
						c0.789,0.229,18.281,0.297,19.695,0.086c0.016-0.329,0.043-0.682,0.043-1.038c0.008-1.562-0.018-3.125,0.018-4.688
						c0.021-0.987,0.578-1.632,1.494-1.878c0.824-0.225,1.732,0.074,2.166,0.829c0.219,0.382,0.332,0.873,0.344,1.32
						c0.043,1.46,0.018,2.926,0.018,4.389c0,0.328,0,0.656,0,0.961c0.742,0.25,18.063,0.345,19.678,0.115
						c0.018-0.328,0.053-0.68,0.055-1.029c0.008-1.498,0.002-2.994,0.004-4.489c0.004-0.867,0.33-1.558,1.135-1.954
						c1.359-0.672,2.844,0.22,2.896,1.791c0.053,1.53,0.014,3.059,0.016,4.588c0,0.355,0,0.711,0,1.191c0.49,0,0.846,0.002,1.203,0
						c3.691,0,7.383,0,11.074,0.002c0.332,0,0.668-0.01,0.996,0.035c0.992,0.135,1.627,0.758,1.781,1.745
						c0.047,0.292,0.033,0.597,0.033,0.896c0.002,8.015-0.008,16.031,0.016,24.044c0.002,0.854,0.111,1.729,0.316,2.557
						c3.807,15.425,7.637,30.847,11.461,46.269c1.553,6.26,3.078,12.525,4.664,18.777c0.27,1.059-0.039,1.828-0.773,2.49
						c-0.225,0.202-0.576,0.338-0.877,0.358c-1.225,0.074-2.451,0.109-3.678,0.123c-0.594,0.006-1.189-0.104-1.783-0.099
						c-0.729,0.003-1.453,0.095-2.182,0.102c-1.963,0.013-3.924,0.003-5.887,0.003c-0.363,0-0.727,0-1.215,0
						c-0.023,0.457-0.057,0.84-0.057,1.223c-0.006,4.125-0.002,8.25-0.006,12.373c0,0.332,0.016,0.67-0.041,0.995
						c-0.166,0.957-0.859,1.596-1.844,1.668c-0.695,0.048-1.396,0.029-2.094,0.031c-25.908,0.051-51.818,0.1-77.725,0.15
						c-0.367,0-0.75-0.049-1.096,0.041c-0.996,0.262-1.73-0.116-2.41-0.804c-2.834-2.856-5.695-5.686-8.527-8.545
						c-1.939-1.959-3.83-3.965-5.779-5.917c-1.688-1.69-3.416-3.341-5.143-4.989c-0.645-0.613-0.953-1.296-0.891-2.214
						c0.072-1.058-0.01-2.126-0.01-3.189c-0.002-20.787-0.002-41.576-0.002-62.361c0-2.79,0-5.579,0-8.367
						c0-4.951,0-9.905,0.002-14.858c0.002-1.83,0.697-2.533,2.533-2.537c3.727-0.005,7.451-0.002,11.176-0.002
						C110.938,7.803,111.33,7.803,111.877,7.803z M120.984,117.502c25.84-0.059,51.527-0.119,77.326-0.18c0-0.688,0-1.273,0-1.863
						c0-13.635-0.002-27.268,0.002-40.902c0-1.025,0.039-2.051,0.061-3.078c0.021-1.123,0.07-2.248,0.059-3.373
						c-0.021-2.184-0.111-4.369-0.115-6.552c-0.016-7.351-0.004-14.7-0.008-22.048c0-0.451-0.047-0.903-0.068-1.324
						c-0.201-0.063-0.293-0.115-0.385-0.115c-32.059-0.01-64.115-0.018-96.172-0.02c-0.197,0-0.393,0.042-0.59,0.069
						c-0.029,0.004-0.057,0.03-0.082,0.049c-0.023,0.021-0.041,0.053-0.066,0.084c0,19.264,0,38.533,0,57.902
						c0.467,0,0.857,0,1.25,0c5.154,0,10.309,0,15.463,0c0.465,0,0.932-0.016,1.396,0.014c1.041,0.065,1.797,0.785,1.914,1.824
						c0.033,0.297,0.016,0.598,0.016,0.898c0,5.785,0,11.572,0,17.357C120.984,116.61,120.984,116.973,120.984,117.502z
						 M100.895,33.852c32.537,0,64.912,0,97.273,0c0.23-1.076,0.188-21.107-0.043-21.881c-3.559,0-7.129,0-10.756,0
						c0,1.523,0,2.971,0,4.383c3.941,2.063,5.541,4.928,4.729,8.395c-0.748,3.189-3.506,5.414-6.764,5.454
						c-3.24,0.042-6.055-2.071-6.895-5.155c-0.428-1.566-0.336-3.1,0.285-4.59c0.859-2.054,2.441-3.35,4.473-4.09
						c0-1.49,0-2.908,0-4.4c-6.555,0-13.051,0-19.607,0c0,1.508,0,2.957,0,4.391c4.377,1.878,5.465,5.305,4.469,9.061
						c-0.672,2.53-3.246,4.813-6.627,4.793c-3.211-0.021-6.113-2.133-6.789-5.275c-0.654-3.047-0.016-6.621,4.793-8.638
						c0-1.412,0-2.832,0-4.235c-1.049-0.271-18.861-0.226-19.637,0.045c0,1.409,0,2.827,0,4.213
						c2.695,1.583,3.363,2.161,4.045,3.481c0.857,1.662,1.203,3.425,0.592,5.208c-1.059,3.084-3.402,5.24-6.871,5.193
						c-3.137-0.045-5.891-2.13-6.715-5.138c-0.418-1.528-0.346-3.038,0.242-4.502c0.846-2.096,2.434-3.438,4.48-4.168
						c0.207-1.207,0.16-3.712-0.063-4.406c-1.645-0.25-18.799-0.141-19.486,0.128c0,1.416,0,2.838,0,4.229
						c3.969,2.158,5.506,4.922,4.713,8.41c-0.693,3.047-3.379,5.298-6.479,5.432c-3.299,0.141-6.096-1.764-7.107-4.859
						c-0.492-1.504-0.467-3.009,0.063-4.504c0.797-2.254,2.453-3.645,4.666-4.482c0-0.766,0-1.46,0-2.158c0-0.72,0-1.439,0-2.125
						c-1.23-0.27-10.201-0.215-10.984,0.055C100.895,19.325,100.895,26.555,100.895,33.852z M202.613,53.493
						c-0.053,0.006-0.105,0.012-0.158,0.018c-0.018,0.148-0.051,0.299-0.053,0.447c-0.055,2.721-0.148,5.44-0.145,8.162
						c0.008,3.55,0.131,7.097,0.141,10.645c0.02,9.039,0.002,18.078,0.004,27.118c0,0.35,0.039,0.701,0.066,1.128
						c4.004-0.043,7.893,0.059,11.893-0.023C210.418,85.042,206.516,69.268,202.613,53.493z M116.889,100.267
						c-4.822,0-9.533,0-14.436,0c1.088,1.095,2.033,2.062,2.994,3.016c3.74,3.717,7.484,7.431,11.23,11.142
						c0.016,0.018,0.063,0.018,0.09,0.011c0.031-0.009,0.057-0.034,0.121-0.075C116.889,109.713,116.889,105.042,116.889,100.267z
						 M161.418,26.152c1.736-0.073,3.203-1.571,3.102-3.168c-0.094-1.512-1.666-2.879-3.215-2.801
						c-1.529,0.076-3.035,1.537-2.959,2.967C158.418,24.543,159.947,26.55,161.418,26.152z M116.824,23.313
						c0.064-1.674-1.172-3.045-2.822-3.129c-1.621-0.081-3.055,1.215-3.133,2.84c-0.082,1.628,1.219,3.049,2.846,3.117
						C115.379,26.211,116.762,24.953,116.824,23.313z M185.178,26.141c1.637,0.033,3.008-1.283,3.047-2.922
						c0.037-1.605-1.322-3.012-2.943-3.041c-1.627-0.029-2.998,1.301-3.025,2.936C182.227,24.774,183.518,26.112,185.178,26.141z
						 M140.617,23.223c0.025-1.658-1.262-2.998-2.914-3.041c-1.617-0.043-3.027,1.316-3.037,2.929
						c-0.008,1.671,1.279,3.004,2.924,3.029C139.26,26.167,140.594,24.882,140.617,23.223z"/>
					<path fill-rule="evenodd" clip-rule="evenodd" fill="#FFFFFF" d="M143.336,132.872c-12.465,0-24.932,0-37.396-0.002
						c-0.4,0-0.803,0.02-1.195-0.035c-1.098-0.154-1.793-0.979-1.773-2.057c0.018-1.024,0.713-1.799,1.777-1.943
						c0.361-0.049,0.73-0.049,1.094-0.049c25.033,0,50.064,0,75.098,0.002c0.395,0,0.799,0.008,1.189,0.077
						c0.951,0.169,1.594,0.921,1.641,1.865c0.045,0.938-0.523,1.773-1.455,2.016c-0.441,0.117-0.92,0.123-1.381,0.123
						C168.4,132.874,155.869,132.872,143.336,132.872z"/>
					<path fill-rule="evenodd" clip-rule="evenodd" fill="#FFFFFF" d="M194.104,128.851c1.178-0.01,2.033,0.816,2.033,1.965
						c-0.002,1.13-0.906,2.062-1.996,2.054c-1.096-0.005-2.057-0.943-2.063-2.013C192.072,129.739,192.957,128.862,194.104,128.851z
						"/>
					<g>
						<path fill="#FFFFFF" d="M124.779,65.47c0,0-0.02-0.066-0.018-0.272c0.004-0.188-0.014-0.431,0.017-0.741
							c0.022-0.312,0.054-0.689,0.155-1.112c0.084-0.428,0.209-0.91,0.424-1.428c0.41-1.026,1.131-2.248,2.396-3.274
							c0.627-0.511,1.389-0.94,2.215-1.244c0.41-0.152,0.842-0.239,1.271-0.334c0.428-0.073,0.853-0.099,1.281-0.121l0.161-0.007
							l0.04-0.002l0.229,0.009l0.055,0.004l0.216,0.017l0.433,0.036l0.232,0.026l0.361,0.067l0.715,0.156
							c0.895,0.248,1.604,0.593,2.289,1.033c0.664,0.441,1.218,0.957,1.666,1.48c0.438,0.529,0.781,1.059,1.037,1.562
							c0.508,1.011,0.715,1.888,0.809,2.511c0.053,0.308,0.059,0.563,0.072,0.739c0.009,0.201,0.014,0.31,0.014,0.31
							c0.02,0.464-0.342,0.858-0.807,0.878c-0.018,0.001-0.034,0.001-0.051,0.001l-2.193-0.044c0.002,0.004-0.032-0.001-0.112-0.088
							c-0.073-0.082-0.204-0.2-0.347-0.359c-0.303-0.308-0.732-0.745-1.246-1.142c-0.252-0.204-0.527-0.385-0.799-0.555
							c-0.145-0.073-0.283-0.142-0.418-0.221c-0.15-0.044-0.283-0.116-0.422-0.167c-0.148-0.029-0.277-0.095-0.422-0.122
							c-0.133-0.012-0.32-0.083-0.395-0.07c-0.043,0-0.084-0.005-0.125-0.015l-0.061-0.019c-0.036-0.006-0.135-0.004-0.199-0.008
							l-0.432-0.022l-0.217-0.011l-0.055-0.002l-0.014-0.001h-0.007c-0.181-0.006,0.239,0.008,0.194,0.006l-0.014,0.002
							l-0.057,0.009c-0.146,0.031-0.305,0.01-0.445,0.031c-0.129,0.043-0.271,0.043-0.4,0.072c-0.25,0.073-0.506,0.137-0.76,0.264
							c-0.256,0.121-0.527,0.269-0.785,0.47c-0.135,0.088-0.268,0.187-0.389,0.303c-0.133,0.101-0.258,0.213-0.373,0.332
							c-0.242,0.222-0.471,0.458-0.669,0.675c-0.2,0.226-0.374,0.425-0.519,0.587c-0.138,0.168-0.264,0.309-0.334,0.383
							c-0.068,0.056-0.119,0.131-0.119,0.13c-0.527,0.77-1.58,0.966-2.35,0.438c-0.334-0.23-0.561-0.558-0.666-0.92L124.779,65.47z"
							/>
					</g>
					<g>
						<path fill="#FFFFFF" d="M159.963,65.47c0,0-0.02-0.066-0.017-0.273c0.003-0.187-0.014-0.43,0.017-0.741
							c0.021-0.311,0.053-0.688,0.154-1.111c0.084-0.429,0.211-0.911,0.424-1.428c0.412-1.026,1.133-2.248,2.397-3.274
							c0.626-0.511,1.388-0.94,2.216-1.244c0.408-0.152,0.84-0.239,1.271-0.335c0.427-0.072,0.853-0.098,1.282-0.12l0.16-0.007
							l0.041-0.002l0.227,0.009l0.055,0.004l0.217,0.017l0.432,0.036l0.233,0.027l0.362,0.067l0.715,0.157
							c0.893,0.247,1.602,0.592,2.287,1.032c0.666,0.441,1.219,0.957,1.666,1.48c0.439,0.529,0.783,1.059,1.039,1.561
							c0.508,1.012,0.715,1.888,0.809,2.512c0.053,0.308,0.059,0.563,0.072,0.739c0.009,0.201,0.014,0.31,0.014,0.31
							c0.02,0.464-0.341,0.857-0.806,0.877c-0.017,0-0.034,0.001-0.05,0l-2.195-0.042c0.002,0.004-0.032-0.001-0.112-0.088
							c-0.073-0.081-0.204-0.2-0.347-0.359c-0.303-0.308-0.732-0.745-1.245-1.142c-0.253-0.203-0.528-0.385-0.802-0.555
							c-0.143-0.073-0.281-0.142-0.416-0.22c-0.15-0.046-0.283-0.117-0.422-0.168c-0.148-0.029-0.277-0.095-0.423-0.122
							c-0.132-0.012-0.319-0.083-0.394-0.07c-0.043,0-0.084-0.005-0.125-0.015l-0.062-0.019c-0.035-0.006-0.134-0.004-0.198-0.008
							l-0.434-0.022l-0.217-0.011l-0.054-0.003l-0.013-0.001h-0.008c0.088,0.003-0.205-0.007,0.193,0.006l-0.014,0.002l-0.057,0.009
							c-0.146,0.031-0.305,0.01-0.444,0.031c-0.13,0.043-0.271,0.043-0.401,0.071c-0.25,0.074-0.505,0.138-0.76,0.266
							c-0.255,0.121-0.527,0.269-0.783,0.47c-0.137,0.089-0.269,0.187-0.391,0.303c-0.133,0.102-0.256,0.212-0.371,0.332
							c-0.244,0.222-0.472,0.458-0.672,0.675c-0.199,0.227-0.373,0.425-0.518,0.587c-0.139,0.168-0.264,0.309-0.334,0.384
							c-0.068,0.055-0.119,0.13-0.119,0.129c-0.528,0.77-1.58,0.966-2.35,0.437c-0.334-0.23-0.561-0.559-0.666-0.92L159.963,65.47z"
							/>
					</g>
					<g>
						
							<path fill="none" stroke="#FFFFFF" stroke-width="5" stroke-linecap="round" stroke-linejoin="round" stroke-miterlimit="10" d="
							M168.781,74.448c0,8.721-8.451,15.788-18.877,15.788s-18.879-7.066-18.879-15.788"/>
					</g>
				</g>
			</g>
			<path fill-rule="evenodd" clip-rule="evenodd" fill="#FFFFFF" d="M22.54,79.129c0.328-0.439,0.603-0.813,0.882-1.179
				C33.99,63.989,44.547,50.024,55.131,36.077c2.599-3.425,7.263-4.047,10.619-1.49c3.365,2.563,3.951,7.236,1.316,10.719
				c-8.773,11.588-17.557,23.17-26.335,34.756c-4.152,5.479-8.303,10.961-12.451,16.443c-3.51,4.637-9.638,4.432-12.814-0.455
				c-4.752-7.307-9.495-14.615-14.213-21.944c-2.097-3.255-1.506-7.357,1.345-9.85c2.77-2.422,6.992-2.471,9.797-0.049
				c0.65,0.561,1.212,1.266,1.684,1.991c1.592,2.441,3.1,4.939,4.688,7.385C19.956,75.413,21.222,77.196,22.54,79.129z"/>
		</g>
	</g>
</g>
</svg>
