<?xml version="1.0" encoding="utf-8"?>
<!-- Generator: Adobe Illustrator 16.0.0, SVG Export Plug-In . SVG Version: 6.00 Build 0)  -->
<!DOCTYPE svg PUBLIC "-//W3C//DTD SVG 1.1//EN" "http://www.w3.org/Graphics/SVG/1.1/DTD/svg11.dtd">
<svg version="1.1" xmlns="http://www.w3.org/2000/svg" xmlns:xlink="http://www.w3.org/1999/xlink" x="0px" y="0px"
	 width="68.715px" height="66.833px" viewBox="0 0 68.715 66.833" enable-background="new 0 0 68.715 66.833" xml:space="preserve">
<g id="Layer_2">
</g>
<g id="Layer_1">
	<path fill-rule="evenodd" clip-rule="evenodd" fill="#FFFFFF" d="M22.54,46.11c0.328-0.439,0.604-0.813,0.883-1.18
		C33.989,30.97,44.548,17.005,55.131,3.058c2.599-3.426,7.263-4.046,10.62-1.491c3.363,2.563,3.951,7.236,1.316,10.719
		c-8.773,11.588-17.557,23.17-26.336,34.756c-4.152,5.478-8.303,10.96-12.451,16.443c-3.51,4.637-9.637,4.432-12.814-0.455
		c-4.751-7.307-9.495-14.615-14.213-21.943c-2.096-3.256-1.506-7.357,1.346-9.85c2.77-2.422,6.992-2.471,9.797-0.049
		c0.65,0.561,1.211,1.266,1.684,1.99c1.591,2.441,3.1,4.939,4.688,7.385C19.956,42.394,21.222,44.177,22.54,46.11z"/>
</g>
</svg>
