<?xml version="1.0" encoding="utf-8"?>
<!-- Generator: Adobe Illustrator 16.0.0, SVG Export Plug-In . SVG Version: 6.00 Build 0)  -->
<!DOCTYPE svg PUBLIC "-//W3C//DTD SVG 1.1//EN" "http://www.w3.org/Graphics/SVG/1.1/DTD/svg11.dtd">
<svg version="1.1" xmlns="http://www.w3.org/2000/svg" xmlns:xlink="http://www.w3.org/1999/xlink" x="0px" y="0px"
	 width="82.281px" height="57.461px" viewBox="0 0 82.281 57.461" enable-background="new 0 0 82.281 57.461" xml:space="preserve">
<g id="Layer_2">
</g>
<g id="Layer_1">
	<path fill="#FFFFFF" d="M78.27,32.474c1.986-0.143,3.572-1.551,3.943-3.506c0.35-1.832-0.688-3.79-2.359-4.458
		c-0.717-0.285-1.67-0.43-2.83-0.43l-20.137-0.018c-5.674-0.004-6.809-0.006-12.486-0.006H17.379l4.221-3.533
		c1.292-1.083,11.854-8.839,17.08-12.627c1.389-1.007,2.168-2.439,2.142-3.932c-0.026-1.327-0.688-2.491-1.866-3.279
		c-1.498-1.002-3.414-0.9-5.041,0.264c-3.867,2.769-7.728,5.543-11.59,8.316c-6.264,4.5-12.529,9-18.81,13.476
		C1.68,24.051,0.5,25.141,0,26.734v1.37c0.441,1.31,1.315,2.407,2.951,3.726c4.893,3.939,9.83,7.986,14.604,11.898l5.489,4.495
		c1.015,0.831,2.027,1.663,3.041,2.496c2.279,1.875,4.635,3.813,6.978,5.674c0.88,0.699,1.88,1.068,2.896,1.068
		c1.649,0,3.051-0.947,3.747-2.534c0.814-1.854,0.274-3.746-1.479-5.19c-3.453-2.848-6.918-5.679-10.383-8.51l-5.124-4.189
		c-0.224-0.184-0.438-0.377-0.714-0.628l-4.395-3.92l59.938,0.003C77.79,32.494,78.029,32.491,78.27,32.474z"/>
</g>
</svg>
