<?xml version="1.0" encoding="UTF-8" standalone="no"?>
<!-- Generator: Adobe Illustrator 16.0.0, SVG Export Plug-In . SVG Version: 6.00 Build 0)  -->

<svg
   xmlns:dc="http://purl.org/dc/elements/1.1/"
   xmlns:cc="http://creativecommons.org/ns#"
   xmlns:rdf="http://www.w3.org/1999/02/22-rdf-syntax-ns#"
   xmlns:svg="http://www.w3.org/2000/svg"
   xmlns="http://www.w3.org/2000/svg"
   xmlns:sodipodi="http://sodipodi.sourceforge.net/DTD/sodipodi-0.dtd"
   xmlns:inkscape="http://www.inkscape.org/namespaces/inkscape"
   version="1.1"
   x="0px"
   y="0px"
   width="50.625328"
   height="30.828175"
   viewBox="0 0 50.625327 30.828175"
   enable-background="new 0 0 30.836 50.619"
   xml:space="preserve"
   id="svg6"
   sodipodi:docname="Expand.svg"
   inkscape:version="0.92.1 r15371"><metadata
     id="metadata12"><rdf:RDF><cc:Work
         rdf:about=""><dc:format>image/svg+xml</dc:format><dc:type
           rdf:resource="http://purl.org/dc/dcmitype/StillImage" /></cc:Work></rdf:RDF></metadata><defs
     id="defs10" /><sodipodi:namedview
     pagecolor="#ffffff"
     bordercolor="#666666"
     borderopacity="1"
     objecttolerance="10"
     gridtolerance="10"
     guidetolerance="10"
     inkscape:pageopacity="0"
     inkscape:pageshadow="2"
     inkscape:window-width="1920"
     inkscape:window-height="1051"
     id="namedview8"
     showgrid="false"
     inkscape:zoom="9.324562"
     inkscape:cx="34.962023"
     inkscape:cy="21.640608"
     inkscape:window-x="0"
     inkscape:window-y="0"
     inkscape:window-maximized="1"
     inkscape:current-layer="Layer_1" /><g
     id="Layer_2"
     transform="translate(9.8917315,-9.8898093)" /><g
     id="Layer_1"
     transform="translate(9.8917315,-9.8898093)"><path
       stroke-miterlimit="10"
       d="m -4.8101713,10.390964 c 1.431,0.004 2.539,0.471 3.451,1.379 2.531,2.52 5.055,5.049 7.58,7.574 2.982,2.982 5.9690003,5.961 8.9440003,8.951 0.244,0.246 0.359,0.141 0.539,-0.039 3.241,-3.246 6.483,-6.488 9.725,-9.73 2.258,-2.256 4.5,-4.529 6.779,-6.764 2.281,-2.2359997 5.921,-1.674 7.476,1.121 0.951,1.713 0.619,4.076 -0.764,5.463 -2.584,2.59 -5.164,5.184 -7.75,7.771 -2.345,2.346 -4.697,4.688 -7.044,7.029 -1.892,1.887 -3.766,3.789 -5.678,5.654 -0.83,0.811 -1.795,1.416 -3.02,1.418 -1.241,0.004 -2.215,-0.607 -3.052,-1.43 -2.125,-2.082 -4.2170003,-4.197 -6.3230003,-6.299 -2.527,-2.521 -5.05600004,-5.041 -7.582,-7.564 -1.941,-1.943 -3.878,-3.891 -5.818,-5.836 -0.509,-0.51 -1.038,-1 -1.41,-1.633 -1.6449997,-2.789 0.055,-6.443 3.254,-6.99 0.277,-0.048 0.55,-0.081 0.693,-0.075 z"
       id="path3"
       inkscape:connector-curvature="0"
       style="clip-rule:evenodd;fill:#bcbec0;fill-rule:evenodd;stroke:#ffffff;stroke-linecap:round;stroke-linejoin:round;stroke-miterlimit:10" /></g></svg>