<?xml version="1.0" encoding="utf-8"?>
<!-- Generator: Adobe Illustrator 16.0.0, SVG Export Plug-In . SVG Version: 6.00 Build 0)  -->
<!DOCTYPE svg PUBLIC "-//W3C//DTD SVG 1.1//EN" "http://www.w3.org/Graphics/SVG/1.1/DTD/svg11.dtd">
<svg version="1.1" xmlns="http://www.w3.org/2000/svg" xmlns:xlink="http://www.w3.org/1999/xlink" x="0px" y="0px"
	 width="82.281px" height="57.462px" viewBox="0 0 82.281 57.462" enable-background="new 0 0 82.281 57.462" xml:space="preserve">
<g id="Layer_2">
</g>
<g id="Layer_1">
	<path fill="#9B9AE6" d="M78.271,32.475c1.985-0.143,3.571-1.551,3.943-3.506c0.349-1.832-0.688-3.79-2.36-4.458
		c-0.716-0.285-1.67-0.43-2.831-0.43l-20.136-0.018c-5.674-0.005-6.809-0.006-12.487-0.006H17.38l4.22-3.533
		c1.292-1.083,11.853-8.839,17.08-12.627c1.389-1.007,2.169-2.439,2.142-3.932c-0.025-1.327-0.688-2.491-1.865-3.279
		c-1.499-1.002-3.416-0.9-5.042,0.265c-3.866,2.769-7.728,5.543-11.59,8.316c-6.264,4.5-12.528,9-18.81,13.476
		C1.68,24.052,0.5,25.142,0,26.734v1.37c0.441,1.31,1.316,2.407,2.952,3.726c4.892,3.939,9.83,7.986,14.604,11.898l5.489,4.495
		c1.015,0.83,2.028,1.663,3.042,2.496c2.279,1.875,4.636,3.813,6.978,5.674c0.879,0.699,1.88,1.068,2.896,1.068
		c1.649,0,3.051-0.947,3.747-2.534c0.814-1.854,0.275-3.745-1.479-5.189c-3.453-2.848-6.918-5.679-10.382-8.51l-5.125-4.189
		c-0.224-0.185-0.438-0.377-0.714-0.628l-4.395-3.92l59.938,0.003C77.791,32.494,78.031,32.491,78.271,32.475z"/>
</g>
</svg>
