<?xml version="1.0" encoding="utf-8"?>
<!-- Generator: Adobe Illustrator 16.0.0, SVG Export Plug-In . SVG Version: 6.00 Build 0)  -->
<!DOCTYPE svg PUBLIC "-//W3C//DTD SVG 1.1//EN" "http://www.w3.org/Graphics/SVG/1.1/DTD/svg11.dtd">
<svg version="1.1" xmlns="http://www.w3.org/2000/svg" xmlns:xlink="http://www.w3.org/1999/xlink" x="0px" y="0px"
	 width="72.332px" height="48.746px" viewBox="0 0 72.332 48.746" enable-background="new 0 0 72.332 48.746" xml:space="preserve">
<g id="Layer_2">
</g>
<g id="Layer_1">
	<g>
		<path fill-rule="evenodd" clip-rule="evenodd" fill="#9B9AE6" d="M72.332,5.765c0,3.186-2.58,5.766-5.766,5.766H5.766
			C2.58,11.531,0,8.951,0,5.765l0,0C0,2.582,2.58,0,5.766,0h60.801C69.752,0,72.332,2.582,72.332,5.765L72.332,5.765z"/>
		<path fill-rule="evenodd" clip-rule="evenodd" fill="#9B9AE6" d="M72.332,24.373c0,3.186-2.58,5.766-5.766,5.766H5.766
			C2.58,30.139,0,27.559,0,24.373l0,0c0-3.184,2.58-5.766,5.766-5.766h60.801C69.752,18.607,72.332,21.189,72.332,24.373
			L72.332,24.373z"/>
		<path fill-rule="evenodd" clip-rule="evenodd" fill="#9B9AE6" d="M72.332,42.98c0,3.186-2.58,5.766-5.766,5.766H5.766
			C2.58,48.746,0,46.166,0,42.98l0,0c0-3.183,2.58-5.766,5.766-5.766h60.801C69.752,37.214,72.332,39.797,72.332,42.98L72.332,42.98
			z"/>
	</g>
</g>
</svg>
