<?xml version="1.0" encoding="utf-8"?>
<!-- Generator: Adobe Illustrator 16.0.0, SVG Export Plug-In . SVG Version: 6.00 Build 0)  -->
<!DOCTYPE svg PUBLIC "-//W3C//DTD SVG 1.1//EN" "http://www.w3.org/Graphics/SVG/1.1/DTD/svg11.dtd">
<svg version="1.1" xmlns="http://www.w3.org/2000/svg" xmlns:xlink="http://www.w3.org/1999/xlink" x="0px" y="0px"
	 width="68.331px" height="75.398px" viewBox="0 0 68.331 75.398" enable-background="new 0 0 68.331 75.398" xml:space="preserve">
<g id="Layer_2">
</g>
<g id="Layer_1">
	<g>
		<path fill-rule="evenodd" clip-rule="evenodd" fill="#9B9AE6" d="M43.599,65.976c-0.123,2.994-1.26,5.486-3.582,7.371
			c-1.807,1.463-3.898,2.135-6.227,2.043c-2.525-0.1-4.664-1.074-6.416-2.889c-1.742-1.805-2.568-4-2.658-6.525
			c-0.17,0-0.314,0-0.461,0c-5.416,0-10.834,0-16.25,0c-1.465,0-2.932-0.035-4.395,0.01c-1.449,0.043-2.703-1.041-3.146-2.354
			c-0.68-2.018-0.516-4.057-0.125-6.104c0.424-2.219,1.691-3.838,3.482-5.129c1.27-0.916,2.461-1.922,3.363-3.232
			c0.822-1.197,1.436-2.494,1.84-3.881c0.477-1.643,0.973-3.287,1.322-4.959c0.305-1.465,0.402-2.975,0.621-4.461
			c0.24-1.643,0.473-3.287,0.789-4.916c0.344-1.777,0.732-3.549,1.191-5.299c0.328-1.244,0.756-2.469,1.224-3.668
			c0.647-1.66,1.565-3.18,2.649-4.594c1.17-1.523,2.541-2.844,4.105-3.961c2.018-1.443,4.227-2.484,6.613-3.158
			c0.07-0.02,0.135-0.057,0.205-0.088c-1.311-3.656-0.662-6.764,2.619-9.043c2.488-1.727,5.955-1.42,8.24,0.439
			c2.096,1.705,3.498,4.979,1.943,8.588c0.088,0.037,0.172,0.084,0.262,0.109c2.141,0.605,4.146,1.514,5.998,2.744
			c2.021,1.344,3.74,3.01,5.146,4.996c1.223,1.725,2.174,3.59,2.813,5.596c0.463,1.451,0.814,2.939,1.164,4.422
			c0.357,1.51,0.701,3.025,0.957,4.553c0.277,1.648,0.465,3.313,0.66,4.975c0.249,2.111,0.645,4.191,1.297,6.215
			c0.361,1.121,0.691,2.258,1.145,3.342c0.873,2.09,2.34,3.711,4.172,5.029c1.059,0.762,2.059,1.592,2.779,2.715
			c0.682,1.059,0.994,2.244,1.195,3.457c0.232,1.402,0.277,2.822,0.021,4.227c-0.174,0.963-0.508,1.865-1.256,2.559
			c-0.586,0.543-1.256,0.873-2.072,0.871c-2.967-0.002-5.936,0-8.902,0c-3.965,0-7.928,0-11.891,0
			C43.901,65.976,43.767,65.976,43.599,65.976z M34.118,61.269v-0.012c1.688,0,3.377,0,5.066,0c5.863,0,11.729,0,17.592,0
			c2.148,0,4.297-0.006,6.447,0.008c0.314,0.002,0.424-0.102,0.396-0.402c-0.061-0.654-0.076-1.314-0.176-1.963
			c-0.104-0.674-0.254-1.357-0.777-1.854c-0.387-0.367-0.818-0.684-1.221-1.031c-1.002-0.867-2.068-1.674-2.98-2.627
			c-1.512-1.578-2.557-3.477-3.27-5.533c-0.516-1.486-0.965-2.998-1.357-4.521c-0.338-1.307-0.641-2.633-0.805-3.971
			c-0.357-2.92-0.678-5.844-1.342-8.715c-0.494-2.137-0.883-4.299-1.693-6.354c-0.854-2.166-2.045-4.102-3.729-5.717
			c-1.486-1.426-3.203-2.484-5.127-3.229c-1.563-0.605-3.178-0.973-4.836-1.131c-2.023-0.193-4.037-0.111-6.041,0.275
			c-2.295,0.443-4.432,1.271-6.357,2.594c-2.912,2-4.83,4.758-5.896,8.088c-0.529,1.648-0.879,3.355-1.287,5.041
			c-0.611,2.525-1.016,5.088-1.26,7.672c-0.25,2.633-0.855,5.186-1.584,7.715c-0.498,1.732-1.121,3.416-2.014,4.994
			c-0.713,1.26-1.543,2.438-2.607,3.414c-0.986,0.902-2.063,1.705-3.098,2.553c-0.508,0.416-0.986,0.879-1.104,1.543
			c-0.164,0.912-0.242,1.84-0.359,2.76c-0.043,0.336,0.107,0.412,0.426,0.41c2.049-0.014,4.098-0.008,6.146-0.008
			C18.888,61.269,26.503,61.269,34.118,61.269z M38.835,65.993c-3.135,0-6.242,0-9.352,0c-0.029,2.447,1.955,4.643,4.592,4.686
			C36.808,70.724,38.827,68.495,38.835,65.993z M34.177,4.735c-1.295-0.008-2.369,1.066-2.365,2.365
			c0.004,1.248,1.07,2.318,2.326,2.334c1.264,0.016,2.357-1.063,2.367-2.332C36.515,5.823,35.452,4.741,34.177,4.735z"/>
	</g>
</g>
</svg>
