<?xml version="1.0" encoding="utf-8"?>
<!-- Generator: Adobe Illustrator 16.0.0, SVG Export Plug-In . SVG Version: 6.00 Build 0)  -->
<!DOCTYPE svg PUBLIC "-//W3C//DTD SVG 1.1//EN" "http://www.w3.org/Graphics/SVG/1.1/DTD/svg11.dtd">
<svg version="1.1" xmlns="http://www.w3.org/2000/svg" xmlns:xlink="http://www.w3.org/1999/xlink" x="0px" y="0px"
	 width="67.433px" height="72.043px" viewBox="0 0 67.433 72.043" enable-background="new 0 0 67.433 72.043" xml:space="preserve">
<g id="Layer_2">
</g>
<g id="Layer_1">
	<g>
		<path fill-rule="evenodd" clip-rule="evenodd" fill="#9B9AE6" d="M32.603,50.374c0,1.047,0.035,1.885-0.006,2.721
			c-0.141,2.828-1.49,4.881-4.059,6.07c-2.647,1.229-5.225,0.879-7.342-1.01C14.794,52.442,8.452,46.659,2.189,40.796
			c-2.979-2.787-2.889-7.252,0.093-10.018c6.117-5.678,12.296-11.289,18.462-16.912c2.296-2.096,4.942-2.66,7.788-1.367
			c2.851,1.297,4.145,3.662,4.089,6.779c-0.011,0.594-0.001,1.189-0.001,1.938c0.666,0,1.17,0,1.673,0
			c4.924,0,9.848-0.01,14.771,0.002c4.991,0.014,7.865,2.867,7.887,7.844c0.02,4.549-0.057,9.098,0.02,13.646
			c0.086,5.154-3.898,7.883-7.726,7.719c-4.962-0.213-9.938-0.053-14.909-0.053C33.826,50.374,33.318,50.374,32.603,50.374z
			 M39.297,45.001c3.28,0,6.561,0.008,9.84-0.004c1.859-0.006,2.338-0.484,2.341-2.314c0.006-4.498,0.004-8.998,0.001-13.496
			c-0.002-2.061-0.407-2.471-2.451-2.473c-6.561-0.002-13.121,0.004-19.681-0.006c-1.589-0.002-2.108-0.514-2.13-2.09
			c-0.023-1.781,0.068-3.566-0.051-5.34c-0.04-0.605-0.447-1.52-0.9-1.678c-0.549-0.191-1.511,0.064-1.975,0.482
			c-5.995,5.387-11.936,10.832-17.883,16.27c-1.188,1.086-1.217,1.854-0.037,2.93c5.953,5.432,11.911,10.859,17.913,16.236
			c0.472,0.422,1.505,0.813,1.902,0.578c0.532-0.313,0.921-1.23,0.979-1.92c0.139-1.629,0.033-3.277,0.047-4.918
			c0.017-1.803,0.458-2.25,2.242-2.256C32.737,44.995,36.017,45.001,39.297,45.001z"/>
		<path fill-rule="evenodd" clip-rule="evenodd" fill="#9B9AE6" d="M61.853,66.515c0-20.389,0-40.572,0-60.941
			c-0.607,0-1.152,0-1.697,0c-9.563,0-19.125,0.002-28.688-0.006c-0.605-0.002-1.225-0.025-1.811-0.156
			c-1.538-0.346-2.306-1.443-2.15-2.967c0.139-1.363,1.191-2.361,2.664-2.379c3.093-0.039,6.188-0.016,9.281-0.018
			c7.547,0,15.095,0.092,22.641-0.047c2.726-0.051,5.342,2.027,5.34,5.252c-0.014,20.578,0.004,41.158-0.02,61.736
			c-0.004,3.119-2.029,5.043-5.155,5.047c-10.454,0.01-20.907,0.006-31.36,0.002c-2.163-0.002-3.329-0.973-3.326-2.74
			c0.004-1.678,1.271-2.77,3.359-2.773c8.626-0.02,17.252-0.01,25.877-0.01C58.442,66.515,60.076,66.515,61.853,66.515z"/>
	</g>
</g>
</svg>
